# DX12 UV variant: V already converted to 1-V; do NOT flip V again in the loader/shader.
# Metres; Y up; local part pivot; see assembly.json
mtllib S07_Shared.mtl
usemtl S07_Shared
# Blender 4.2.20 LTS
# www.blender.org
o S07_Body_LOD2.001
v 0.441909 0.054178 -0.474578
v -0.440863 0.055602 -0.476834
v -0.515785 0.055127 -0.400435
v -0.517849 0.056571 0.399767
v -0.441909 0.054178 0.474578
v 0.440863 0.055602 0.476834
v 0.515785 0.055127 0.400435
v 0.517849 0.056571 -0.399767
v 0.457452 0.114946 -0.506187
v -0.457409 0.116043 -0.506475
v -0.545960 0.113857 -0.417105
v -0.546308 0.114862 0.417090
v -0.457452 0.114946 0.506187
v 0.457409 0.116043 0.506475
v 0.545960 0.113857 0.417105
v 0.546308 0.114862 -0.417090
v 0.450010 0.614020 -0.498516
v -0.455908 0.587245 -0.505794
v -0.539183 0.611552 -0.412422
v -0.546166 0.585593 0.416304
v -0.450010 0.614020 0.498516
v 0.455908 0.587245 0.505794
v 0.539183 0.611552 0.412422
v 0.546166 0.585593 -0.416304
v -0.441487 0.624104 -0.486083
v -0.526210 0.623502 0.403761
v 0.441487 0.624104 0.486083
v 0.526210 0.623502 -0.403761
v 0.403106 0.621242 -0.446414
v -0.403020 0.620300 -0.445990
v -0.486720 0.621917 -0.363167
v -0.486300 0.621252 0.363433
v -0.403106 0.621242 0.446414
v 0.403020 0.620300 0.445990
v 0.486720 0.621917 0.363167
v 0.486300 0.621252 -0.363433
v 0.400179 0.119192 -0.443121
v -0.402953 0.117848 -0.441363
v -0.483538 0.120487 -0.360587
v -0.481969 0.119192 0.362959
v -0.400179 0.119192 0.443121
v 0.402953 0.117848 0.441363
v 0.483538 0.120487 0.360587
v 0.481969 0.119192 -0.362959
v 0.506292 0.032742 -0.448401
v -0.488233 0.032429 -0.466106
v -0.506292 0.032742 0.448401
v 0.488233 0.032429 0.466106
v 0.463685 0.098814 -0.516147
v -0.466842 0.104394 -0.514751
v -0.555400 0.095214 -0.420540
v -0.554507 0.102423 0.422771
v -0.463685 0.098814 0.516147
v 0.466842 0.104394 0.514751
v 0.555400 0.095214 0.420540
v 0.554507 0.102423 -0.422771
v 0.515462 0.597000 -0.454923
v -0.447000 0.597726 -0.496000
v -0.536000 0.597366 -0.407000
v -0.515462 0.597000 0.454923
v 0.447000 0.597726 0.496000
v 0.536000 0.597366 0.407000
v 0.494923 0.634000 -0.475461
v -0.494923 0.634000 0.475461
v 0.462333 0.607399 -0.422333
v -0.407000 0.607267 -0.450000
v -0.490000 0.607529 -0.367000
v -0.490000 0.607399 0.367000
v -0.407000 0.607399 0.450000
v 0.462333 0.607399 0.422333
v 0.515000 0.074000 -0.475000
v 0.515000 0.074000 -0.305000
v 0.515000 0.000000 -0.305000
v 0.515000 0.000000 -0.475000
v 0.345000 0.000000 -0.475000
v 0.345000 0.000000 -0.305000
v 0.345000 0.074000 -0.305000
v 0.345000 0.074000 -0.475000
v 0.515000 0.000000 -0.475000
v 0.345000 0.000000 -0.475000
v 0.345000 0.074000 -0.475000
v 0.515000 0.074000 -0.475000
v 0.515000 0.074000 -0.305000
v 0.345000 0.074000 -0.305000
v 0.345000 0.000000 -0.305000
v 0.515000 0.000000 -0.305000
v 0.515000 0.000000 -0.305000
v 0.345000 0.000000 -0.305000
v 0.345000 0.000000 -0.475000
v 0.515000 0.000000 -0.475000
v 0.515000 0.074000 -0.475000
v 0.345000 0.074000 -0.475000
v 0.345000 0.074000 -0.305000
v 0.515000 0.074000 -0.305000
v 0.515000 0.074000 0.305000
v 0.515000 0.074000 0.475000
v 0.515000 0.000000 0.475000
v 0.515000 0.000000 0.305000
v 0.345000 0.000000 0.305000
v 0.345000 0.000000 0.475000
v 0.345000 0.074000 0.475000
v 0.345000 0.074000 0.305000
v 0.515000 0.000000 0.305000
v 0.345000 0.000000 0.305000
v 0.345000 0.074000 0.305000
v 0.515000 0.074000 0.305000
v 0.515000 0.074000 0.475000
v 0.345000 0.074000 0.475000
v 0.345000 0.000000 0.475000
v 0.515000 0.000000 0.475000
v 0.515000 0.000000 0.475000
v 0.345000 0.000000 0.475000
v 0.345000 0.000000 0.305000
v 0.515000 0.000000 0.305000
v 0.515000 0.074000 0.305000
v 0.345000 0.074000 0.305000
v 0.345000 0.074000 0.475000
v 0.515000 0.074000 0.475000
v -0.345000 0.074000 -0.475000
v -0.345000 0.074000 -0.305000
v -0.345000 0.000000 -0.305000
v -0.345000 0.000000 -0.475000
v -0.515000 0.000000 -0.475000
v -0.515000 0.000000 -0.305000
v -0.515000 0.074000 -0.305000
v -0.515000 0.074000 -0.475000
v -0.345000 0.000000 -0.475000
v -0.515000 0.000000 -0.475000
v -0.515000 0.074000 -0.475000
v -0.345000 0.074000 -0.475000
v -0.345000 0.074000 -0.305000
v -0.515000 0.074000 -0.305000
v -0.515000 0.000000 -0.305000
v -0.345000 0.000000 -0.305000
v -0.345000 0.000000 -0.305000
v -0.515000 0.000000 -0.305000
v -0.515000 0.000000 -0.475000
v -0.345000 0.000000 -0.475000
v -0.345000 0.074000 -0.475000
v -0.515000 0.074000 -0.475000
v -0.515000 0.074000 -0.305000
v -0.345000 0.074000 -0.305000
v -0.345001 0.074000 0.305000
v -0.345001 0.074000 0.475000
v -0.345001 0.000000 0.475000
v -0.345001 0.000000 0.305000
v -0.514999 0.000000 0.305000
v -0.514999 0.000000 0.475000
v -0.514999 0.074000 0.475000
v -0.514999 0.074000 0.305000
v -0.345001 0.000000 0.305000
v -0.514999 0.000000 0.305000
v -0.514999 0.074000 0.305000
v -0.345001 0.074000 0.305000
v -0.345001 0.074000 0.475000
v -0.514999 0.074000 0.475000
v -0.514999 0.000000 0.475000
v -0.345001 0.000000 0.475000
v -0.345001 0.000000 0.475000
v -0.514999 0.000000 0.475000
v -0.514999 0.000000 0.305000
v -0.345001 0.000000 0.305000
v -0.345001 0.074000 0.305000
v -0.514999 0.074000 0.305000
v -0.514999 0.074000 0.475000
v -0.345001 0.074000 0.475000
v 0.428499 0.135000 -0.525500
v 0.141500 0.135000 -0.525500
v 0.141500 0.543000 -0.525500
v 0.428499 0.543000 -0.525500
v -0.141500 0.135000 -0.525500
v -0.428499 0.135000 -0.525500
v -0.428499 0.543000 -0.525500
v -0.141500 0.543000 -0.525500
v 0.115499 0.599000 -0.538500
v 0.115499 0.599000 -0.505500
v 0.115499 0.125000 -0.505500
v 0.115499 0.125000 -0.538500
v -0.115499 0.125000 -0.538500
v -0.115499 0.125000 -0.505500
v -0.115499 0.599000 -0.505500
v -0.115499 0.599000 -0.538500
v 0.115499 0.125000 -0.538500
v -0.115499 0.125000 -0.538500
v -0.115499 0.599000 -0.538500
v 0.115499 0.599000 -0.538500
v 0.115499 0.599000 -0.505500
v -0.115499 0.599000 -0.505500
v -0.115499 0.125000 -0.505500
v 0.115499 0.125000 -0.505500
v 0.115499 0.125000 -0.505500
v -0.115499 0.125000 -0.505500
v -0.115499 0.125000 -0.538500
v 0.115499 0.125000 -0.538500
v 0.115499 0.599000 -0.538500
v -0.115499 0.599000 -0.538500
v -0.115499 0.599000 -0.505500
v 0.115499 0.599000 -0.505500
v 0.097000 0.574000 -0.554000
v 0.097000 0.574000 -0.528000
v 0.097000 0.114000 -0.528000
v 0.097000 0.114000 -0.554000
v -0.097000 0.114000 -0.554000
v -0.097000 0.114000 -0.528000
v -0.097000 0.574000 -0.528000
v -0.097000 0.574000 -0.554000
v 0.097000 0.114000 -0.554000
v -0.097000 0.114000 -0.554000
v -0.097000 0.574000 -0.554000
v 0.097000 0.574000 -0.554000
v 0.097000 0.574000 -0.528000
v -0.097000 0.574000 -0.528000
v -0.097000 0.114000 -0.528000
v 0.097000 0.114000 -0.528000
v 0.097000 0.114000 -0.528000
v -0.097000 0.114000 -0.528000
v -0.097000 0.114000 -0.554000
v 0.097000 0.114000 -0.554000
v 0.097000 0.574000 -0.554000
v -0.097000 0.574000 -0.554000
v -0.097000 0.574000 -0.528000
v 0.097000 0.574000 -0.528000
v 0.064499 0.170000 -0.575000
v 0.064499 0.170000 -0.551000
v 0.064499 0.118000 -0.551000
v 0.064499 0.118000 -0.575000
v -0.064499 0.118000 -0.575000
v -0.064499 0.118000 -0.551000
v -0.064499 0.170000 -0.551000
v -0.064499 0.170000 -0.575000
v 0.064499 0.118000 -0.575000
v -0.064499 0.118000 -0.575000
v -0.064499 0.170000 -0.575000
v 0.064499 0.170000 -0.575000
v 0.064499 0.170000 -0.551000
v -0.064499 0.170000 -0.551000
v -0.064499 0.118000 -0.551000
v 0.064499 0.118000 -0.551000
v 0.064499 0.118000 -0.551000
v -0.064499 0.118000 -0.551000
v -0.064499 0.118000 -0.575000
v 0.064499 0.118000 -0.575000
v 0.064499 0.170000 -0.575000
v -0.064499 0.170000 -0.575000
v -0.064499 0.170000 -0.551000
v 0.064499 0.170000 -0.551000
v 0.099500 0.613000 -0.598000
v 0.099500 0.613000 -0.518000
v 0.099500 0.565000 -0.518000
v 0.099500 0.565000 -0.598000
v -0.099500 0.565000 -0.598000
v -0.099500 0.565000 -0.518000
v -0.099500 0.613000 -0.518000
v -0.099500 0.613000 -0.598000
v 0.099500 0.565000 -0.598000
v -0.099500 0.565000 -0.598000
v -0.099500 0.613000 -0.598000
v 0.099500 0.613000 -0.598000
v 0.099500 0.613000 -0.518000
v -0.099500 0.613000 -0.518000
v -0.099500 0.565000 -0.518000
v 0.099500 0.565000 -0.518000
v 0.099500 0.565000 -0.518000
v -0.099500 0.565000 -0.518000
v -0.099500 0.565000 -0.598000
v 0.099500 0.565000 -0.598000
v 0.099500 0.613000 -0.598000
v -0.099500 0.613000 -0.598000
v -0.099500 0.613000 -0.518000
v 0.099500 0.613000 -0.518000
v -0.565500 0.135000 -0.428500
v -0.565500 0.135000 -0.141500
v -0.565500 0.543000 -0.141500
v -0.565500 0.543000 -0.428500
v -0.565500 0.135000 0.141500
v -0.565500 0.135000 0.428500
v -0.565500 0.543000 0.428500
v -0.565500 0.543000 0.141500
v -0.545500 0.599000 -0.115500
v -0.545500 0.599000 0.115500
v -0.545500 0.125000 0.115500
v -0.545500 0.125000 -0.115500
v -0.578501 0.125000 -0.115500
v -0.578501 0.125000 0.115500
v -0.578501 0.599000 0.115500
v -0.578501 0.599000 -0.115500
v -0.545500 0.125000 -0.115500
v -0.578501 0.125000 -0.115500
v -0.578501 0.599000 -0.115500
v -0.545500 0.599000 -0.115500
v -0.545500 0.599000 0.115500
v -0.578501 0.599000 0.115500
v -0.578501 0.125000 0.115500
v -0.545500 0.125000 0.115500
v -0.545500 0.125000 0.115500
v -0.578501 0.125000 0.115500
v -0.578501 0.125000 -0.115500
v -0.545500 0.125000 -0.115500
v -0.545500 0.599000 -0.115500
v -0.578501 0.599000 -0.115500
v -0.578501 0.599000 0.115500
v -0.545500 0.599000 0.115500
v -0.567999 0.574000 -0.097000
v -0.567999 0.574000 0.097000
v -0.567999 0.114000 0.097000
v -0.567999 0.114000 -0.097000
v -0.594000 0.114000 -0.097000
v -0.594000 0.114000 0.097000
v -0.594000 0.574000 0.097000
v -0.594000 0.574000 -0.097000
v -0.567999 0.114000 -0.097000
v -0.594000 0.114000 -0.097000
v -0.594000 0.574000 -0.097000
v -0.567999 0.574000 -0.097000
v -0.567999 0.574000 0.097000
v -0.594000 0.574000 0.097000
v -0.594000 0.114000 0.097000
v -0.567999 0.114000 0.097000
v -0.567999 0.114000 0.097000
v -0.594000 0.114000 0.097000
v -0.594000 0.114000 -0.097000
v -0.567999 0.114000 -0.097000
v -0.567999 0.574000 -0.097000
v -0.594000 0.574000 -0.097000
v -0.594000 0.574000 0.097000
v -0.567999 0.574000 0.097000
v -0.591002 0.170000 -0.064500
v -0.591002 0.170000 0.064500
v -0.591002 0.118000 0.064500
v -0.591002 0.118000 -0.064500
v -0.615000 0.118000 -0.064500
v -0.615000 0.118000 0.064500
v -0.615000 0.170000 0.064500
v -0.615000 0.170000 -0.064500
v -0.591002 0.118000 -0.064500
v -0.615000 0.118000 -0.064500
v -0.615000 0.170000 -0.064500
v -0.591002 0.170000 -0.064500
v -0.591002 0.170000 0.064500
v -0.615000 0.170000 0.064500
v -0.615000 0.118000 0.064500
v -0.591002 0.118000 0.064500
v -0.591002 0.118000 0.064500
v -0.615000 0.118000 0.064500
v -0.615000 0.118000 -0.064500
v -0.591002 0.118000 -0.064500
v -0.591002 0.170000 -0.064500
v -0.615000 0.170000 -0.064500
v -0.615000 0.170000 0.064500
v -0.591002 0.170000 0.064500
v -0.557999 0.613000 -0.099500
v -0.557999 0.613000 0.099500
v -0.557999 0.565000 0.099500
v -0.557999 0.565000 -0.099500
v -0.638000 0.565000 -0.099500
v -0.638000 0.565000 0.099500
v -0.638000 0.613000 0.099500
v -0.638000 0.613000 -0.099500
v -0.557999 0.565000 -0.099500
v -0.638000 0.565000 -0.099500
v -0.638000 0.613000 -0.099500
v -0.557999 0.613000 -0.099500
v -0.557999 0.613000 0.099500
v -0.638000 0.613000 0.099500
v -0.638000 0.565000 0.099500
v -0.557999 0.565000 0.099500
v -0.557999 0.565000 0.099500
v -0.638000 0.565000 0.099500
v -0.638000 0.565000 -0.099500
v -0.557999 0.565000 -0.099500
v -0.557999 0.613000 -0.099500
v -0.638000 0.613000 -0.099500
v -0.638000 0.613000 0.099500
v -0.557999 0.613000 0.099500
v -0.141499 0.543000 0.525500
v -0.428501 0.543000 0.525500
v -0.428501 0.135000 0.525500
v -0.141499 0.135000 0.525500
v 0.428500 0.543000 0.525500
v 0.141500 0.543000 0.525500
v 0.141500 0.135000 0.525500
v 0.428500 0.135000 0.525500
v 0.115500 0.599000 0.505500
v 0.115500 0.599000 0.538500
v 0.115500 0.125000 0.538500
v 0.115500 0.125000 0.505500
v -0.115500 0.125000 0.505500
v -0.115500 0.125000 0.538500
v -0.115500 0.599000 0.538500
v -0.115500 0.599000 0.505500
v 0.115500 0.125000 0.505500
v -0.115500 0.125000 0.505500
v -0.115500 0.599000 0.505500
v 0.115500 0.599000 0.505500
v 0.115500 0.599000 0.538500
v -0.115500 0.599000 0.538500
v -0.115500 0.125000 0.538500
v 0.115500 0.125000 0.538500
v 0.115500 0.125000 0.538500
v -0.115500 0.125000 0.538500
v -0.115500 0.125000 0.505500
v 0.115500 0.125000 0.505500
v 0.115500 0.599000 0.505500
v -0.115500 0.599000 0.505500
v -0.115500 0.599000 0.538500
v 0.115500 0.599000 0.538500
v 0.097000 0.574000 0.528000
v 0.097000 0.574000 0.554000
v 0.097000 0.114000 0.554000
v 0.097000 0.114000 0.528000
v -0.097000 0.114000 0.528000
v -0.097000 0.114000 0.554000
v -0.097000 0.574000 0.554000
v -0.097000 0.574000 0.528000
v 0.097000 0.114000 0.528000
v -0.097000 0.114000 0.528000
v -0.097000 0.574000 0.528000
v 0.097000 0.574000 0.528000
v 0.097000 0.574000 0.554000
v -0.097000 0.574000 0.554000
v -0.097000 0.114000 0.554000
v 0.097000 0.114000 0.554000
v 0.097000 0.114000 0.554000
v -0.097000 0.114000 0.554000
v -0.097000 0.114000 0.528000
v 0.097000 0.114000 0.528000
v 0.097000 0.574000 0.528000
v -0.097000 0.574000 0.528000
v -0.097000 0.574000 0.554000
v 0.097000 0.574000 0.554000
v 0.064500 0.170000 0.551000
v 0.064500 0.170000 0.575000
v 0.064500 0.118000 0.575000
v 0.064500 0.118000 0.551000
v -0.064500 0.118000 0.551000
v -0.064500 0.118000 0.575000
v -0.064500 0.170000 0.575000
v -0.064500 0.170000 0.551000
v 0.064500 0.118000 0.551000
v -0.064500 0.118000 0.551000
v -0.064500 0.170000 0.551000
v 0.064500 0.170000 0.551000
v 0.064500 0.170000 0.575000
v -0.064500 0.170000 0.575000
v -0.064500 0.118000 0.575000
v 0.064500 0.118000 0.575000
v 0.064500 0.118000 0.575000
v -0.064500 0.118000 0.575000
v -0.064500 0.118000 0.551000
v 0.064500 0.118000 0.551000
v 0.064500 0.170000 0.551000
v -0.064500 0.170000 0.551000
v -0.064500 0.170000 0.575000
v 0.064500 0.170000 0.575000
v 0.099500 0.613000 0.518000
v 0.099500 0.613000 0.598000
v 0.099500 0.565000 0.598000
v 0.099500 0.565000 0.518000
v -0.099500 0.565000 0.518000
v -0.099500 0.565000 0.598000
v -0.099500 0.613000 0.598000
v -0.099500 0.613000 0.518000
v 0.099500 0.565000 0.518000
v -0.099500 0.565000 0.518000
v -0.099500 0.613000 0.518000
v 0.099500 0.613000 0.518000
v 0.099500 0.613000 0.598000
v -0.099500 0.613000 0.598000
v -0.099500 0.565000 0.598000
v 0.099500 0.565000 0.598000
v 0.099500 0.565000 0.598000
v -0.099500 0.565000 0.598000
v -0.099500 0.565000 0.518000
v 0.099500 0.565000 0.518000
v 0.099500 0.613000 0.518000
v -0.099500 0.613000 0.518000
v -0.099500 0.613000 0.598000
v 0.099500 0.613000 0.598000
v 0.565500 0.543000 0.141500
v 0.565500 0.543000 0.428500
v 0.565500 0.135000 0.428500
v 0.565500 0.135000 0.141500
v 0.565500 0.543000 -0.428500
v 0.565500 0.543000 -0.141500
v 0.565500 0.135000 -0.141500
v 0.565500 0.135000 -0.428500
v 0.578501 0.599000 -0.115500
v 0.578501 0.599000 0.115500
v 0.578501 0.125000 0.115500
v 0.578501 0.125000 -0.115500
v 0.545500 0.125000 -0.115500
v 0.545500 0.125000 0.115500
v 0.545500 0.599000 0.115500
v 0.545500 0.599000 -0.115500
v 0.578501 0.125000 -0.115500
v 0.545500 0.125000 -0.115500
v 0.545500 0.599000 -0.115500
v 0.578501 0.599000 -0.115500
v 0.578501 0.599000 0.115500
v 0.545500 0.599000 0.115500
v 0.545500 0.125000 0.115500
v 0.578501 0.125000 0.115500
v 0.578501 0.125000 0.115500
v 0.545500 0.125000 0.115500
v 0.545500 0.125000 -0.115500
v 0.578501 0.125000 -0.115500
v 0.578501 0.599000 -0.115500
v 0.545500 0.599000 -0.115500
v 0.545500 0.599000 0.115500
v 0.578501 0.599000 0.115500
v 0.594000 0.574000 -0.097000
v 0.594000 0.574000 0.097000
v 0.594000 0.114000 0.097000
v 0.594000 0.114000 -0.097000
v 0.567999 0.114000 -0.097000
v 0.567999 0.114000 0.097000
v 0.567999 0.574000 0.097000
v 0.567999 0.574000 -0.097000
v 0.594000 0.114000 -0.097000
v 0.567999 0.114000 -0.097000
v 0.567999 0.574000 -0.097000
v 0.594000 0.574000 -0.097000
v 0.594000 0.574000 0.097000
v 0.567999 0.574000 0.097000
v 0.567999 0.114000 0.097000
v 0.594000 0.114000 0.097000
v 0.594000 0.114000 0.097000
v 0.567999 0.114000 0.097000
v 0.567999 0.114000 -0.097000
v 0.594000 0.114000 -0.097000
v 0.594000 0.574000 -0.097000
v 0.567999 0.574000 -0.097000
v 0.567999 0.574000 0.097000
v 0.594000 0.574000 0.097000
v 0.615002 0.170000 -0.064500
v 0.615002 0.170000 0.064500
v 0.615002 0.118000 0.064500
v 0.615002 0.118000 -0.064500
v 0.591000 0.118000 -0.064500
v 0.591000 0.118000 0.064500
v 0.591000 0.170000 0.064500
v 0.591000 0.170000 -0.064500
v 0.615002 0.118000 -0.064500
v 0.591000 0.118000 -0.064500
v 0.591000 0.170000 -0.064500
v 0.615002 0.170000 -0.064500
v 0.615002 0.170000 0.064500
v 0.591000 0.170000 0.064500
v 0.591000 0.118000 0.064500
v 0.615002 0.118000 0.064500
v 0.615002 0.118000 0.064500
v 0.591000 0.118000 0.064500
v 0.591000 0.118000 -0.064500
v 0.615002 0.118000 -0.064500
v 0.615002 0.170000 -0.064500
v 0.591000 0.170000 -0.064500
v 0.591000 0.170000 0.064500
v 0.615002 0.170000 0.064500
v 0.638000 0.613000 -0.099500
v 0.638000 0.613000 0.099500
v 0.638000 0.565000 0.099500
v 0.638000 0.565000 -0.099500
v 0.558000 0.565000 -0.099500
v 0.558000 0.565000 0.099500
v 0.558000 0.613000 0.099500
v 0.558000 0.613000 -0.099500
v 0.638000 0.565000 -0.099500
v 0.558000 0.565000 -0.099500
v 0.558000 0.613000 -0.099500
v 0.638000 0.613000 -0.099500
v 0.638000 0.613000 0.099500
v 0.558000 0.613000 0.099500
v 0.558000 0.565000 0.099500
v 0.638000 0.565000 0.099500
v 0.638000 0.565000 0.099500
v 0.558000 0.565000 0.099500
v 0.558000 0.565000 -0.099500
v 0.638000 0.565000 -0.099500
v 0.638000 0.613000 -0.099500
v 0.558000 0.613000 -0.099500
v 0.558000 0.613000 0.099500
v 0.638000 0.613000 0.099500
v 0.052000 0.260000 -0.573999
v -0.052000 0.260000 -0.573999
v -0.052000 0.280000 -0.573999
v 0.052000 0.280000 -0.573999
v 0.052000 0.297000 -0.573999
v -0.052000 0.297000 -0.573999
v -0.052000 0.317000 -0.573999
v 0.052000 0.317000 -0.573999
v 0.052000 0.334000 -0.573999
v -0.052000 0.334000 -0.573999
v -0.052000 0.354000 -0.573999
v 0.052000 0.354000 -0.573999
v 0.052000 0.371000 -0.573999
v -0.052000 0.371000 -0.573999
v -0.052000 0.391000 -0.573999
v 0.052000 0.391000 -0.573999
v 0.052000 0.408000 -0.573999
v -0.052000 0.408000 -0.573999
v -0.052000 0.428000 -0.573999
v 0.052000 0.428000 -0.573999
v 0.052000 0.445000 -0.573999
v -0.052000 0.445000 -0.573999
v -0.052000 0.465000 -0.573999
v 0.052000 0.465000 -0.573999
v 0.052000 0.482000 -0.573999
v -0.052000 0.482000 -0.573999
v -0.052000 0.502000 -0.573999
v 0.052000 0.502000 -0.573999
v -0.613999 0.260000 -0.052000
v -0.613999 0.260000 0.052000
v -0.613999 0.280000 0.052000
v -0.613999 0.280000 -0.052000
v -0.613999 0.297000 -0.052000
v -0.613999 0.297000 0.052000
v -0.613999 0.317000 0.052000
v -0.613999 0.317000 -0.052000
v -0.614000 0.334000 -0.052000
v -0.614000 0.334000 0.052000
v -0.614000 0.354000 0.052000
v -0.614000 0.354000 -0.052000
v -0.614000 0.371000 -0.052000
v -0.614000 0.371000 0.052000
v -0.614000 0.391000 0.052000
v -0.614000 0.391000 -0.052000
v -0.614000 0.408000 -0.052000
v -0.614000 0.408000 0.052000
v -0.614000 0.428000 0.052000
v -0.614000 0.428000 -0.052000
v -0.614000 0.445000 -0.052000
v -0.614000 0.445000 0.052000
v -0.614000 0.465000 0.052000
v -0.614000 0.465000 -0.052000
v -0.614000 0.482000 -0.052000
v -0.614000 0.482000 0.052000
v -0.614000 0.502000 0.052000
v -0.614000 0.502000 -0.052000
v 0.052000 0.280000 0.573999
v -0.052000 0.280000 0.573999
v -0.052000 0.260000 0.573999
v 0.052000 0.260000 0.573999
v 0.052000 0.317000 0.573999
v -0.052000 0.317000 0.573999
v -0.052000 0.297000 0.573999
v 0.052000 0.297000 0.573999
v 0.052000 0.354000 0.573999
v -0.052000 0.354000 0.573999
v -0.052000 0.334000 0.573999
v 0.052000 0.334000 0.573999
v 0.052000 0.391000 0.573999
v -0.052000 0.391000 0.573999
v -0.052000 0.371000 0.573999
v 0.052000 0.371000 0.573999
v 0.052000 0.428000 0.573999
v -0.052000 0.428000 0.573999
v -0.052000 0.408000 0.573999
v 0.052000 0.408000 0.573999
v 0.052000 0.465000 0.573999
v -0.052000 0.465000 0.573999
v -0.052000 0.445000 0.573999
v 0.052000 0.445000 0.573999
v 0.052000 0.502000 0.573999
v -0.052000 0.502000 0.573999
v -0.052000 0.482000 0.573999
v 0.052000 0.482000 0.573999
v 0.614000 0.280000 -0.052000
v 0.614000 0.280000 0.052000
v 0.614000 0.260000 0.052000
v 0.614000 0.260000 -0.052000
v 0.614000 0.317000 -0.052000
v 0.614000 0.317000 0.052000
v 0.614000 0.297000 0.052000
v 0.614000 0.297000 -0.052000
v 0.614000 0.354000 -0.052000
v 0.614000 0.354000 0.052000
v 0.614000 0.334000 0.052000
v 0.614000 0.334000 -0.052000
v 0.614000 0.391000 -0.052000
v 0.614000 0.391000 0.052000
v 0.614000 0.371000 0.052000
v 0.614000 0.371000 -0.052000
v 0.614000 0.428000 -0.052000
v 0.614000 0.428000 0.052000
v 0.614000 0.408000 0.052000
v 0.614000 0.408000 -0.052000
v 0.613998 0.465000 -0.052000
v 0.613998 0.465000 0.052000
v 0.613998 0.445000 0.052000
v 0.613998 0.445000 -0.052000
v 0.614000 0.502000 -0.052000
v 0.614000 0.502000 0.052000
v 0.614000 0.482000 0.052000
v 0.614000 0.482000 -0.052000
vn -0.1848 -0.8422 -0.5065
vn 0.3904 -0.0755 -0.9175
vn 0.1250 -0.7808 -0.6122
vn -0.9307 -0.0580 -0.3612
vn -0.4152 -0.0162 -0.9096
vn -0.6535 -0.7362 0.1759
vn -0.6490 -0.7192 -0.2480
vn -0.1226 -0.8949 0.4292
vn -0.9109 -0.0135 0.4125
vn 0.1873 -0.7166 0.6718
vn -0.2217 -0.0546 0.9736
vn 0.9307 -0.0580 0.3612
vn 0.4152 -0.0162 0.9096
vn 0.6535 -0.7362 -0.1759
vn 0.6490 -0.7192 0.2480
vn 0.2660 0.5480 -0.7931
vn 0.9423 0.1126 -0.3152
vn 0.9109 -0.0135 -0.4125
vn -0.7969 0.5270 -0.2954
vn -0.9423 0.1126 0.3152
vn -0.2660 0.5480 0.7931
vn 0.7969 0.5270 0.2954
vn 0.3016 0.1657 0.9389
vn -0.3016 0.1657 -0.9389
vn 0.4248 0.8660 -0.2638
vn -0.4694 0.8529 0.2283
vn 0.1591 0.8796 0.4484
vn -0.1591 0.8796 -0.4484
vn -0.2016 0.4503 0.8698
vn -0.7843 0.4668 0.4086
vn 0.8432 0.5061 0.1812
vn 0.7873 0.4292 -0.4427
vn 0.2539 0.4589 -0.8514
vn -0.8432 0.5061 -0.1812
vn -0.4658 0.3652 -0.8060
vn 0.4657 0.3652 0.8061
vn -0.1287 0.3959 0.9092
vn -0.8383 0.4245 0.3422
vn 0.9164 0.3715 0.1488
vn 0.7389 0.3923 -0.5478
vn 0.1287 0.3959 -0.9092
vn -0.3571 0.7908 -0.4971
vn -0.8126 0.5640 -0.1465
vn 0.5513 0.4257 0.7175
vn -0.0547 -0.9699 -0.2373
vn -0.0212 -0.9442 -0.3286
vn 0.0187 -0.9704 0.2407
vn 0.0299 0.8897 -0.4556
vn -0.6315 0.1764 -0.7550
vn -0.8043 0.0891 0.5875
vn -0.9463 0.0946 -0.3092
vn 0.0447 -0.9694 0.2415
vn 0.6315 0.1764 0.7550
vn 0.9463 0.0946 0.3092
vn -0.3882 0.1083 0.9152
vn 0.3882 0.1082 -0.9152
vn -0.0868 0.0081 -0.9962
vn 0.4338 0.7434 -0.5091
vn 0.8261 -0.0000 -0.5635
vn 0.0867 0.0081 0.9962
vn -0.6843 0.6130 0.3950
vn -0.8261 -0.0000 0.5635
vn -0.7086 0.0169 0.7054
vn 0.9939 0.0175 0.1086
vn 0.1008 0.0067 0.9949
vn -0.9952 0.0068 -0.0981
vn 0.1038 0.0130 -0.9945
vn -0.6991 0.0170 -0.7148
vn 0.9952 0.0068 0.0981
vn 0.9939 0.0098 -0.1102
vn 1.0000 -0.0000 -0.0000
vn -1.0000 -0.0000 -0.0000
vn -0.0000 -0.0000 -1.0000
vn -0.0000 -0.0000 1.0000
vn -0.0000 -1.0000 -0.0000
vn -0.0000 1.0000 -0.0000
vt 0.440941 0.296606
vt 0.432335 0.436972
vt 0.440942 0.434767
vt 0.006200 0.305268
vt 0.014744 0.317154
vt 0.014785 0.301705
vt 0.006216 0.441623
vt 0.006178 0.318680
vt 0.521073 0.309723
vt 0.529609 0.294280
vt 0.521001 0.298373
vt 0.521074 0.447884
vt 0.529680 0.307517
vt 0.707839 0.459340
vt 0.699160 0.450161
vt 0.699231 0.463433
vt 0.707763 0.322496
vt 0.707764 0.447800
vt 0.432335 0.294316
vt 0.355582 0.435557
vt 0.007233 0.471005
vt 0.007427 0.608485
vt 0.155399 0.471035
vt 0.699231 0.306773
vt 0.625721 0.320083
vt 0.699159 0.320065
vt 0.014782 0.444793
vt 0.091340 0.318027
vt 0.602951 0.294543
vt 0.529680 0.450174
vt 0.606433 0.308933
vt 0.606174 0.461859
vt 0.603245 0.450092
vt 0.622579 0.449001
vt 0.088368 0.301994
vt 0.625652 0.307087
vt 0.620612 0.321804
vt 0.608188 0.296673
vt 0.959655 0.505825
vt 0.959655 0.519762
vt 0.962822 0.508645
vt 0.182955 0.609929
vt 0.189179 0.478081
vt 0.182904 0.472543
vt 0.093384 0.303718
vt 0.201998 0.465264
vt 0.196068 0.459042
vt 0.321534 0.623390
vt 0.201859 0.617156
vt 0.196092 0.623459
vt 0.334698 0.609889
vt 0.315604 0.617168
vt 0.334648 0.472502
vt 0.328423 0.604351
vt 0.315743 0.465276
vt 0.328404 0.478257
vt 0.321510 0.458973
vt 0.182883 0.433735
vt 0.260218 0.308164
vt 0.182824 0.307640
vt 0.189199 0.604175
vt 0.260152 0.295877
vt 0.183168 0.295877
vt 0.721127 0.312685
vt 0.798551 0.199517
vt 0.721098 0.198940
vt 0.721501 0.324534
vt 0.798551 0.312475
vt 0.674607 0.992782
vt 0.751942 0.867212
vt 0.674547 0.866688
vt 0.799039 0.449619
vt 0.721538 0.463378
vt 0.798523 0.463433
vt 0.799010 0.338022
vt 0.721580 0.449094
vt 0.659103 0.488481
vt 0.646124 0.476102
vt 0.533528 0.476905
vt 0.183168 0.445674
vt 0.260217 0.433615
vt 0.768020 0.558075
vt 0.768020 0.574802
vt 0.773327 0.566885
vt 0.755688 0.558075
vt 0.750381 0.566885
vt 0.755688 0.574802
vt 0.358770 0.294398
vt 0.018956 0.620394
vt 0.143844 0.620151
vt 0.155594 0.608516
vt 0.143870 0.459127
vt 0.018982 0.459369
vt 0.088223 0.444771
vt 0.353793 0.296308
vt 0.093353 0.442647
vt 0.608222 0.448182
vt 0.798485 0.324534
vt 0.751941 0.992662
vt 0.721580 0.338290
vt 0.522141 0.488292
vt 0.522190 0.614832
vt 0.535169 0.627211
vt 0.647765 0.626408
vt 0.659792 0.613475
vt 0.260152 0.445674
vt 0.707839 0.310866
vt 0.332519 0.797140
vt 0.329726 0.645667
vt 0.193541 0.799933
vt 0.339373 0.290142
vt 0.329229 0.431620
vt 0.339374 0.429121
vt 0.823413 0.805601
vt 0.832912 0.679843
vt 0.823393 0.672529
vt 0.181838 0.794788
vt 0.195892 0.808842
vt 0.315151 0.290142
vt 0.305006 0.431620
vt 0.315151 0.429121
vt 0.079110 0.160387
vt 0.069528 0.289373
vt 0.079110 0.286874
vt 0.341430 0.650812
vt 0.327375 0.636758
vt 0.165758 0.647640
vt 0.151704 0.633585
vt 0.020220 0.633585
vt 0.190748 0.648459
vt 0.328358 0.287644
vt 0.834391 0.663335
vt 0.834083 0.808842
vt 0.304135 0.287644
vt 0.195892 0.636758
vt 0.181838 0.650812
vt 0.068402 0.157889
vt 0.006166 0.647640
vt 0.006166 0.791616
vt 0.020220 0.805670
vt 0.151704 0.805670
vt 0.165758 0.791616
vt 0.870294 0.808839
vt 0.876003 0.663893
vt 0.870209 0.660682
vt 0.865021 0.396081
vt 0.859387 0.541031
vt 0.865183 0.544238
vt 0.353761 0.613651
vt 0.367425 0.473813
vt 0.359107 0.468701
vt 0.373906 0.620365
vt 0.360945 0.607404
vt 0.503323 0.618996
vt 0.367659 0.627549
vt 0.508669 0.474047
vt 0.501485 0.607404
vt 0.495005 0.473813
vt 0.494771 0.460149
vt 0.333596 0.275310
vt 0.339373 0.275312
vt 0.333608 0.150601
vt 0.894140 0.681731
vt 0.888363 0.681731
vt 0.894083 0.808842
vt 0.488524 0.620365
vt 0.764897 0.079355
vt 0.764897 0.098094
vt 0.768644 0.098094
vt 0.768644 0.079355
vt 0.419716 0.109232
vt 0.416028 0.091221
vt 0.412356 0.091970
vt 0.416044 0.109981
vt 0.934132 0.489999
vt 0.934132 0.471260
vt 0.930384 0.471260
vt 0.930384 0.489999
vt 0.860687 0.074633
vt 0.860687 0.093371
vt 0.864435 0.093372
vt 0.864435 0.074633
vt 0.124454 0.139487
vt 0.124454 0.120748
vt 0.105716 0.120748
vt 0.105716 0.139487
vt 0.676528 0.561979
vt 0.676528 0.580718
vt 0.695267 0.580718
vt 0.695267 0.561979
vt 0.105716 0.081869
vt 0.105716 0.100608
vt 0.109463 0.100608
vt 0.109463 0.081869
vt 0.586955 0.110396
vt 0.583267 0.092385
vt 0.579595 0.093134
vt 0.583283 0.111145
vt 0.334376 0.080411
vt 0.334376 0.061672
vt 0.330629 0.061672
vt 0.330629 0.080411
vt 0.136786 0.073437
vt 0.136786 0.092176
vt 0.140534 0.092176
vt 0.140534 0.073437
vt 0.085958 0.145557
vt 0.085958 0.126818
vt 0.067219 0.126818
vt 0.067219 0.145557
vt 0.677465 0.830837
vt 0.677465 0.849576
vt 0.696204 0.849576
vt 0.696204 0.830837
vt 0.720171 0.079355
vt 0.720171 0.098094
vt 0.723919 0.098094
vt 0.723919 0.079355
vt 0.390942 0.111805
vt 0.387254 0.093794
vt 0.383582 0.094543
vt 0.387270 0.112554
vt 0.559079 0.080064
vt 0.559079 0.061325
vt 0.555331 0.061325
vt 0.555331 0.080064
vt 0.651657 0.070242
vt 0.651657 0.088981
vt 0.655404 0.088981
vt 0.655404 0.070242
vt 0.639325 0.136292
vt 0.639325 0.117553
vt 0.620586 0.117553
vt 0.620586 0.136292
vt 0.715407 0.561979
vt 0.715407 0.580718
vt 0.734145 0.580718
vt 0.734145 0.561979
vt 0.740177 0.079355
vt 0.740177 0.098094
vt 0.743925 0.098094
vt 0.743925 0.079355
vt 0.562691 0.110407
vt 0.559003 0.092396
vt 0.555331 0.093145
vt 0.559019 0.111156
vt 0.583343 0.080053
vt 0.583343 0.061315
vt 0.579595 0.061315
vt 0.579595 0.080053
vt 0.677735 0.069851
vt 0.677735 0.088590
vt 0.681482 0.088590
vt 0.681482 0.069851
vt 0.024905 0.133361
vt 0.024905 0.114622
vt 0.006166 0.114622
vt 0.006166 0.133361
vt 0.716344 0.849576
vt 0.735082 0.849576
vt 0.735082 0.830837
vt 0.716344 0.830837
vt 0.809085 0.589119
vt 0.764268 0.589119
vt 0.764268 0.652830
vt 0.809085 0.652830
vt 0.810490 0.930123
vt 0.765673 0.930123
vt 0.765673 0.993834
vt 0.810490 0.993834
vt 0.735939 0.139866
vt 0.846166 0.526619
vt 0.854288 0.582138
vt 0.823369 0.582138
vt 0.823369 0.651001
vt 0.854288 0.651001
vt 0.813529 0.549583
vt 0.844448 0.549583
vt 0.844448 0.480719
vt 0.813529 0.480719
vt 0.834142 0.478992
vt 0.000000 1.000000
vt 0.704646 0.169113
vt 0.550618 0.179403
vt 0.703969 0.146527
vt 0.677735 0.146527
vt 0.677735 0.214297
vt 0.703969 0.214297
vt 0.523031 0.202001
vt 0.549265 0.202001
vt 0.549265 0.134230
vt 0.523031 0.134230
vt 0.540520 0.132869
vt 0.607355 0.830967
vt 0.611103 0.830967
vt 0.611103 0.822847
vt 0.607355 0.822847
vt 0.659271 0.822844
vt 0.655594 0.822847
vt 0.655594 0.830967
vt 0.659271 0.830964
vt 0.936571 0.585856
vt 0.936571 0.565713
vt 0.928451 0.565713
vt 0.928451 0.585856
vt 0.929965 0.246211
vt 0.929965 0.266355
vt 0.938085 0.266355
vt 0.938085 0.246211
vt 0.624334 0.060409
vt 0.624334 0.040265
vt 0.620586 0.040265
vt 0.620586 0.060409
vt 0.353761 0.039448
vt 0.353761 0.059592
vt 0.357509 0.059592
vt 0.357509 0.039448
vt 0.523187 0.822222
vt 0.523187 0.830967
vt 0.526935 0.830967
vt 0.526935 0.822222
vt 0.767541 0.829243
vt 0.767547 0.837822
vt 0.771295 0.837822
vt 0.771289 0.829243
vt 0.924845 0.684863
vt 0.924845 0.657535
vt 0.921097 0.657535
vt 0.921097 0.684863
vt 0.087046 0.081381
vt 0.087046 0.108708
vt 0.090794 0.108708
vt 0.090794 0.081381
vt 0.256784 0.123395
vt 0.256784 0.096068
vt 0.248039 0.096068
vt 0.248039 0.123395
vt 0.138660 0.110285
vt 0.138660 0.137613
vt 0.147405 0.137613
vt 0.147405 0.110285
vt 0.564971 0.216278
vt 0.521001 0.216309
vt 0.521001 0.280021
vt 0.564971 0.279990
vt 0.397731 0.215114
vt 0.353761 0.215145
vt 0.353761 0.278856
vt 0.397731 0.278825
vt 0.824774 0.993834
vt 0.855693 0.993834
vt 0.855693 0.924970
vt 0.824774 0.924970
vt 0.842618 0.169297
vt 0.812283 0.169318
vt 0.812283 0.238183
vt 0.842618 0.238161
vt 0.843627 0.192254
vt 0.871899 0.620046
vt 0.845387 0.923243
vt 0.353761 0.200837
vt 0.379996 0.200837
vt 0.379996 0.133066
vt 0.353761 0.133066
vt 0.605334 0.212140
vt 0.579595 0.212158
vt 0.579595 0.279930
vt 0.605334 0.279911
vt 0.606128 0.234732
vt 0.883822 0.149067
vt 0.371251 0.131705
vt 0.037237 0.069810
vt 0.037237 0.089954
vt 0.045357 0.089954
vt 0.045357 0.069810
vt 0.248039 0.062093
vt 0.248039 0.081856
vt 0.256159 0.081862
vt 0.256159 0.062099
vt 0.627182 0.822847
vt 0.623435 0.822847
vt 0.623435 0.830967
vt 0.627182 0.830967
vt 0.639514 0.830967
vt 0.643262 0.830967
vt 0.643262 0.822847
vt 0.639514 0.822847
vt 0.606997 0.038348
vt 0.603249 0.038348
vt 0.603249 0.058492
vt 0.606997 0.058492
vt 0.291827 0.057992
vt 0.295575 0.057992
vt 0.295575 0.037848
vt 0.291827 0.037848
vt 0.291827 0.070323
vt 0.291827 0.097651
vt 0.295575 0.097651
vt 0.295575 0.070323
vt 0.273867 0.085460
vt 0.273886 0.112271
vt 0.277634 0.112271
vt 0.277615 0.085460
vt 0.807371 0.572928
vt 0.807371 0.564183
vt 0.803623 0.564183
vt 0.803623 0.572928
vt 0.785659 0.564183
vt 0.785659 0.572928
vt 0.789407 0.572928
vt 0.789407 0.564183
vt 0.688354 0.104826
vt 0.679609 0.104826
vt 0.679609 0.132153
vt 0.688354 0.132153
vt 0.854595 0.367977
vt 0.863340 0.367977
vt 0.863340 0.340650
vt 0.854595 0.340650
vt 0.765673 0.915828
vt 0.810491 0.915828
vt 0.810491 0.852117
vt 0.765673 0.852117
vt 0.183789 0.283545
vt 0.228606 0.283545
vt 0.228606 0.219835
vt 0.183789 0.219835
vt 0.766614 0.162826
vt 0.846638 0.278620
vt 0.855693 0.841183
vt 0.824774 0.841183
vt 0.824774 0.910047
vt 0.855693 0.910047
vt 0.814860 0.324534
vt 0.845779 0.324534
vt 0.845779 0.255670
vt 0.814860 0.255670
vt 0.845387 0.839456
vt 0.901159 0.620411
vt 0.254030 0.160355
vt 0.605829 0.130014
vt 0.579595 0.130014
vt 0.579595 0.197785
vt 0.605829 0.197785
vt 0.227119 0.205540
vt 0.253353 0.205540
vt 0.253353 0.137769
vt 0.227119 0.137769
vt 0.597085 0.128653
vt 0.591276 0.830967
vt 0.595023 0.830967
vt 0.595023 0.822847
vt 0.591276 0.822847
vt 0.947926 0.283774
vt 0.944249 0.283777
vt 0.944249 0.291897
vt 0.947926 0.291895
vt 0.911041 0.089517
vt 0.911041 0.069373
vt 0.902921 0.069373
vt 0.902921 0.089517
vt 0.882469 0.069372
vt 0.882469 0.089517
vt 0.890589 0.089517
vt 0.890589 0.069372
vt 0.540828 0.060756
vt 0.540828 0.040612
vt 0.537081 0.040612
vt 0.537081 0.060756
vt 0.792958 0.040569
vt 0.792958 0.060713
vt 0.796706 0.060713
vt 0.796706 0.040569
vt 0.939761 0.130285
vt 0.939761 0.139029
vt 0.943508 0.139029
vt 0.943508 0.130285
vt 0.787368 0.829243
vt 0.787374 0.837822
vt 0.791122 0.837822
vt 0.791116 0.829243
vt 0.313539 0.097651
vt 0.313539 0.070324
vt 0.309791 0.070324
vt 0.309791 0.097651
vt 0.917427 0.825574
vt 0.917427 0.852902
vt 0.921174 0.852902
vt 0.921174 0.825574
vt 0.339373 0.121944
vt 0.339373 0.094617
vt 0.330629 0.094617
vt 0.330629 0.121944
vt 0.039111 0.104160
vt 0.039111 0.131487
vt 0.047855 0.131487
vt 0.047855 0.104160
vt 0.006166 0.211367
vt 0.050983 0.211367
vt 0.050983 0.147656
vt 0.006166 0.147656
vt 0.620586 0.214297
vt 0.665403 0.214297
vt 0.665403 0.150587
vt 0.620586 0.150587
vt 0.181837 0.205540
vt 0.212756 0.205540
vt 0.212756 0.136676
vt 0.181837 0.136676
vt 0.842642 0.391982
vt 0.812308 0.392004
vt 0.812308 0.460869
vt 0.842642 0.460847
vt 0.844660 0.437897
vt 0.489469 0.145020
vt 0.940779 0.676430
vt 0.412356 0.196620
vt 0.438590 0.196620
vt 0.438590 0.128850
vt 0.412356 0.128850
vt 0.438094 0.210975
vt 0.412356 0.210994
vt 0.412356 0.278765
vt 0.438094 0.278747
vt 0.439684 0.256160
vt 0.897507 0.126473
vt 0.951643 0.800097
vt 0.225088 0.063592
vt 0.225088 0.083736
vt 0.233208 0.083736
vt 0.233208 0.063592
vt 0.383582 0.061693
vt 0.383582 0.081456
vt 0.391702 0.081462
vt 0.391702 0.061699
vt 0.578944 0.822847
vt 0.575196 0.822847
vt 0.575196 0.830967
vt 0.578944 0.830967
vt 0.559116 0.830967
vt 0.562864 0.830967
vt 0.562864 0.822847
vt 0.559116 0.822847
vt 0.889934 0.821283
vt 0.886186 0.821283
vt 0.886186 0.841428
vt 0.889934 0.841428
vt 0.521001 0.060756
vt 0.524749 0.060756
vt 0.524749 0.040612
vt 0.521001 0.040612
vt 0.488610 0.077951
vt 0.488610 0.105278
vt 0.492358 0.105278
vt 0.492358 0.077951
vt 0.069086 0.083771
vt 0.069105 0.110582
vt 0.072853 0.110582
vt 0.072834 0.083771
vt 0.544899 0.830967
vt 0.544899 0.822222
vt 0.541151 0.822222
vt 0.541151 0.830967
vt 0.888363 0.658780
vt 0.888363 0.667525
vt 0.892110 0.667525
vt 0.892110 0.658780
vt 0.235707 0.096068
vt 0.226962 0.096068
vt 0.226962 0.123395
vt 0.235707 0.123395
vt 0.653530 0.134418
vt 0.662275 0.134418
vt 0.662275 0.107091
vt 0.653530 0.107090
vt 0.966257 0.071027
vt 0.966257 0.054787
vt 0.963134 0.054787
vt 0.963134 0.071027
vt 0.966388 0.593352
vt 0.966388 0.577112
vt 0.963265 0.577112
vt 0.963265 0.593352
vt 0.964034 0.373421
vt 0.964034 0.357181
vt 0.960911 0.357181
vt 0.960911 0.373421
vt 0.962358 0.233255
vt 0.962358 0.217014
vt 0.959235 0.217014
vt 0.959235 0.233255
vt 0.961774 0.171036
vt 0.961774 0.154796
vt 0.958651 0.154796
vt 0.958651 0.171036
vt 0.312914 0.057367
vt 0.312914 0.041127
vt 0.309791 0.041127
vt 0.309791 0.057367
vt 0.964104 0.898978
vt 0.964104 0.882738
vt 0.960981 0.882738
vt 0.960981 0.898978
vt 0.975110 0.533035
vt 0.975110 0.548968
vt 0.978233 0.548971
vt 0.978233 0.533038
vt 0.975110 0.442381
vt 0.975110 0.458314
vt 0.978233 0.458316
vt 0.978233 0.442383
vt 0.944367 0.022467
vt 0.944367 0.038401
vt 0.947490 0.038403
vt 0.947490 0.022470
vt 0.925476 0.022472
vt 0.925476 0.038405
vt 0.928600 0.038407
vt 0.928600 0.022474
vt 0.974106 0.155113
vt 0.974106 0.171046
vt 0.977229 0.171048
vt 0.977229 0.155115
vt 0.272000 0.021747
vt 0.272000 0.037680
vt 0.275123 0.037682
vt 0.275123 0.021749
vt 0.700685 0.021920
vt 0.700685 0.037853
vt 0.703808 0.037856
vt 0.703808 0.021922
vt 0.961626 0.626141
vt 0.961626 0.642381
vt 0.964749 0.642381
vt 0.964749 0.626141
vt 0.959235 0.187193
vt 0.959235 0.203433
vt 0.962358 0.203433
vt 0.962358 0.187193
vt 0.021621 0.040613
vt 0.021621 0.056854
vt 0.024744 0.056853
vt 0.024744 0.040613
vt 0.651657 0.041045
vt 0.651657 0.057285
vt 0.654780 0.057285
vt 0.654780 0.041045
vt 0.959655 0.442064
vt 0.959655 0.458304
vt 0.962778 0.458304
vt 0.962778 0.442064
vt 0.453288 0.025495
vt 0.453288 0.041735
vt 0.456411 0.041735
vt 0.456411 0.025495
vt 0.963015 0.307669
vt 0.963015 0.323909
vt 0.966138 0.323909
vt 0.966138 0.307669
vt 0.966691 0.837911
vt 0.966691 0.854151
vt 0.969815 0.854151
vt 0.969815 0.837911
vt 0.966782 0.474696
vt 0.966782 0.490936
vt 0.969905 0.490936
vt 0.969905 0.474696
vt 0.966809 0.249646
vt 0.966809 0.265887
vt 0.969932 0.265887
vt 0.969932 0.249646
vt 0.412356 0.029392
vt 0.412356 0.045632
vt 0.415479 0.045632
vt 0.415479 0.029392
vt 0.970285 0.669872
vt 0.970285 0.686112
vt 0.973408 0.686112
vt 0.973408 0.669872
vt 0.812283 0.026895
vt 0.812283 0.043135
vt 0.815406 0.043135
vt 0.815406 0.026895
vt 0.831174 0.026895
vt 0.831174 0.043135
vt 0.834297 0.043135
vt 0.834297 0.026895
s 1
f 2/1/1 9/2/2 1/3/3
f 2/4/1 11/5/4 10/6/5
f 4/7/6 11/5/4 3/8/7
f 5/9/8 12/10/9 4/11/6
f 6/12/10 13/13/11 5/9/8
f 6/14/10 15/15/12 14/16/13
f 8/17/14 15/15/12 7/18/15
f 10/19/5 17/20/16 9/2/2
f 2/21/1 1/22/3 5/23/8
f 9/24/2 24/25/17 16/26/18
f 12/27/9 19/28/19 11/5/4
f 13/13/11 20/29/20 12/10/9
f 14/30/13 21/31/21 13/13/11
f 14/30/13 23/32/22 22/33/23
f 16/26/18 23/34/22 15/15/12
f 10/6/5 19/28/19 18/35/24
f 17/36/16 28/37/25 24/25/17
f 21/31/21 26/38/26 20/29/20
f 22/39/23 23/40/22 27/41/27
f 25/42/28 29/43/29 17/44/16
f 18/35/24 19/28/19 25/45/28
f 17/44/16 36/46/30 28/47/25
f 26/48/26 31/49/31 19/50/19
f 21/51/21 32/52/32 26/48/26
f 27/53/27 33/54/33 21/51/21
f 27/53/27 35/55/34 34/56/35
f 28/47/25 35/55/34 23/57/22
f 30/58/36 37/59/37 29/60/29
f 25/42/28 31/49/31 30/61/36
f 29/60/29 44/62/38 36/63/30
f 32/64/32 39/65/39 31/66/31
f 33/67/33 40/68/40 32/64/32
f 34/69/35 41/70/41 33/71/33
f 35/72/34 42/73/42 34/74/35
f 36/75/30 43/76/43 35/72/34
f 42/77/42 43/78/43 44/79/38
f 31/80/31 38/81/44 30/58/36
f 1/82/3 16/83/18 8/84/14
f 2/1/1 10/19/5 9/2/2
f 2/4/1 3/8/7 11/5/4
f 4/7/6 12/27/9 11/5/4
f 5/9/8 13/13/11 12/10/9
f 6/12/10 14/30/13 13/13/11
f 6/85/10 7/86/15 15/87/12
f 8/17/14 16/26/18 15/15/12
f 10/19/5 18/88/24 17/20/16
f 1/22/3 8/89/14 7/90/15
f 7/90/15 6/91/10 1/22/3
f 6/91/10 5/23/8 1/22/3
f 5/23/8 4/92/6 3/93/7
f 3/93/7 2/21/1 5/23/8
f 9/24/2 17/36/16 24/25/17
f 12/27/9 20/94/20 19/28/19
f 13/13/11 21/31/21 20/29/20
f 14/30/13 22/33/23 21/31/21
f 14/16/13 15/15/12 23/34/22
f 16/26/18 24/25/17 23/34/22
f 18/88/24 25/95/28 17/20/16
f 10/6/5 11/5/4 19/28/19
f 20/94/20 26/96/26 19/28/19
f 22/33/23 27/97/27 21/31/21
f 24/25/17 28/37/25 23/34/22
f 25/42/28 30/61/36 29/43/29
f 17/44/16 29/43/29 36/46/30
f 26/48/26 32/52/32 31/49/31
f 21/51/21 33/54/33 32/52/32
f 27/53/27 34/56/35 33/54/33
f 27/53/27 23/57/22 35/55/34
f 28/47/25 36/46/30 35/55/34
f 30/58/36 38/81/44 37/59/37
f 25/42/28 19/50/19 31/49/31
f 29/60/29 37/59/37 44/62/38
f 32/64/32 40/68/40 39/65/39
f 33/67/33 41/98/41 40/68/40
f 34/69/35 42/99/42 41/70/41
f 35/72/34 43/76/43 42/73/42
f 36/75/30 44/100/38 43/76/43
f 44/79/38 37/101/37 42/77/42
f 37/101/37 38/102/44 42/77/42
f 38/102/44 39/103/39 40/104/40
f 40/104/40 41/105/41 38/102/44
f 41/105/41 42/77/42 38/102/44
f 31/80/31 39/106/39 38/81/44
f 1/107/3 9/24/2 16/26/18
f 46/108/45 45/109/46 47/110/47
f 46/111/45 49/112/48 45/113/46
f 47/114/47 51/115/49 46/116/45
f 47/110/47 53/117/50 52/118/51
f 48/119/52 53/120/50 47/121/47
f 45/122/46 55/123/53 48/124/52
f 45/109/46 49/125/48 56/126/54
f 54/127/55 55/128/53 56/129/54
f 48/130/52 47/110/47 45/109/46
f 46/111/45 50/131/56 49/112/48
f 46/116/45 51/115/49 50/132/56
f 47/114/47 52/133/51 51/115/49
f 48/119/52 54/134/55 53/120/50
f 48/130/52 55/135/53 54/136/55
f 45/122/46 56/137/54 55/123/53
f 56/129/54 49/138/48 54/127/55
f 49/138/48 50/139/56 54/127/55
f 50/139/56 51/140/49 52/141/51
f 52/141/51 53/142/50 50/139/56
f 53/142/50 54/127/55 50/139/56
f 58/143/57 63/144/58 57/145/59
f 61/146/60 64/147/61 60/148/62
f 58/149/57 65/150/63 63/151/58
f 58/149/57 67/152/64 66/153/65
f 64/154/61 67/152/64 59/155/66
f 61/156/60 69/157/67 64/154/61
f 63/151/58 70/158/68 62/159/69
f 60/160/62 64/161/61 59/162/66
f 57/163/59 63/164/58 62/165/69
f 58/149/57 66/153/65 65/150/63
f 58/149/57 59/155/66 67/152/64
f 64/154/61 68/166/70 67/152/64
f 64/154/61 69/157/67 68/166/70
f 61/156/60 70/158/68 69/157/67
f 61/156/60 62/159/69 70/158/68
f 63/151/58 65/150/63 70/158/68
s 0
f 71/167/71 72/168/71 73/169/71
f 71/167/71 73/169/71 74/170/71
f 75/171/72 76/172/72 77/173/72
f 75/171/72 77/173/72 78/174/72
f 79/175/73 80/176/73 81/177/73
f 79/175/73 81/177/73 82/178/73
f 83/179/74 84/180/74 85/181/74
f 83/179/74 85/181/74 86/182/74
f 87/183/75 88/184/75 89/185/75
f 87/183/75 89/185/75 90/186/75
f 91/187/76 92/188/76 93/189/76
f 91/187/76 93/189/76 94/190/76
f 95/191/71 96/192/71 97/193/71
f 95/191/71 97/193/71 98/194/71
f 99/195/72 100/196/72 101/197/72
f 99/195/72 101/197/72 102/198/72
f 103/199/73 104/200/73 105/201/73
f 103/199/73 105/201/73 106/202/73
f 107/203/74 108/204/74 109/205/74
f 107/203/74 109/205/74 110/206/74
f 111/207/75 112/208/75 113/209/75
f 111/207/75 113/209/75 114/210/75
f 115/211/76 116/212/76 117/213/76
f 115/211/76 117/213/76 118/214/76
f 119/215/71 120/216/71 121/217/71
f 119/215/71 121/217/71 122/218/71
f 123/219/72 124/220/72 125/221/72
f 123/219/72 125/221/72 126/222/72
f 127/223/73 128/224/73 129/225/73
f 127/223/73 129/225/73 130/226/73
f 131/227/74 132/228/74 133/229/74
f 131/227/74 133/229/74 134/230/74
f 135/231/75 136/232/75 137/233/75
f 135/231/75 137/233/75 138/234/75
f 139/235/76 140/236/76 141/237/76
f 139/235/76 141/237/76 142/238/76
f 143/239/71 144/240/71 145/241/71
f 143/239/71 145/241/71 146/242/71
f 147/243/72 148/244/72 149/245/72
f 147/243/72 149/245/72 150/246/72
f 151/247/73 152/248/73 153/249/73
f 151/247/73 153/249/73 154/250/73
f 155/251/74 156/252/74 157/253/74
f 155/251/74 157/253/74 158/254/74
f 159/255/75 160/256/75 161/257/75
f 159/255/75 161/257/75 162/258/75
f 163/259/76 164/260/76 165/261/76
f 163/259/76 165/261/76 166/262/76
f 167/263/73 168/264/73 169/265/73
f 167/263/73 169/265/73 170/266/73
f 171/267/73 172/268/73 173/269/73
f 171/267/73 173/269/73 174/270/73
f 175/271/71 176/271/71 177/271/71
f 175/271/71 177/271/71 178/271/71
f 179/272/72 180/272/72 181/272/72
f 179/272/72 181/272/72 182/272/72
f 183/273/73 184/274/73 185/275/73
f 183/273/73 185/275/73 186/276/73
f 187/277/74 188/278/74 189/279/74
f 187/277/74 189/279/74 190/280/74
f 191/281/75 192/281/75 193/281/75
f 191/281/75 193/281/75 194/281/75
f 195/282/76 196/282/76 197/282/76
f 195/282/76 197/282/76 198/282/76
f 199/283/71 200/283/71 201/283/71
f 199/283/71 201/283/71 202/283/71
f 203/284/72 204/284/72 205/284/72
f 203/284/72 205/284/72 206/284/72
f 207/285/73 208/286/73 209/287/73
f 207/285/73 209/287/73 210/288/73
f 211/289/74 212/290/74 213/291/74
f 211/289/74 213/291/74 214/292/74
f 215/293/75 216/293/75 217/293/75
f 215/293/75 217/293/75 218/293/75
f 219/282/76 220/282/76 221/282/76
f 219/282/76 221/282/76 222/282/76
f 223/294/71 224/295/71 225/296/71
f 223/294/71 225/296/71 226/297/71
f 227/298/72 228/299/72 229/300/72
f 227/298/72 229/300/72 230/301/72
f 231/302/73 232/303/73 233/304/73
f 231/302/73 233/304/73 234/305/73
f 235/306/74 236/307/74 237/308/74
f 235/306/74 237/308/74 238/309/74
f 239/310/75 240/311/75 241/312/75
f 239/310/75 241/312/75 242/313/75
f 243/314/76 244/315/76 245/316/76
f 243/314/76 245/316/76 246/317/76
f 247/318/71 248/319/71 249/320/71
f 247/318/71 249/320/71 250/321/71
f 251/322/72 252/323/72 253/324/72
f 251/322/72 253/324/72 254/325/72
f 255/326/73 256/327/73 257/328/73
f 255/326/73 257/328/73 258/329/73
f 259/330/74 260/331/74 261/332/74
f 259/330/74 261/332/74 262/333/74
f 263/334/75 264/335/75 265/336/75
f 263/334/75 265/336/75 266/337/75
f 267/338/76 268/339/76 269/340/76
f 267/338/76 269/340/76 270/341/76
f 271/342/72 272/343/72 273/344/72
f 271/342/72 273/344/72 274/345/72
f 275/346/72 276/347/72 277/348/72
f 275/346/72 277/348/72 278/349/72
f 279/350/71 280/351/71 281/352/71
f 279/350/71 281/352/71 282/353/71
f 283/354/72 284/355/72 285/356/72
f 283/354/72 285/356/72 286/357/72
f 287/358/73 288/358/73 289/358/73
f 287/358/73 289/358/73 290/358/73
f 291/359/74 292/359/74 293/359/74
f 291/359/74 293/359/74 294/359/74
f 295/360/75 296/360/75 297/360/75
f 295/360/75 297/360/75 298/360/75
f 299/282/76 300/282/76 301/282/76
f 299/282/76 301/282/76 302/282/76
f 303/361/71 304/362/71 305/363/71
f 303/361/71 305/363/71 306/364/71
f 307/365/72 308/366/72 309/367/72
f 307/365/72 309/367/72 310/368/72
f 311/369/73 312/369/73 313/369/73
f 311/369/73 313/369/73 314/369/73
f 315/370/74 316/370/74 317/370/74
f 315/370/74 317/370/74 318/370/74
f 319/371/75 320/371/75 321/371/75
f 319/371/75 321/371/75 322/371/75
f 323/282/76 324/282/76 325/282/76
f 323/282/76 325/282/76 326/282/76
f 327/372/71 328/373/71 329/374/71
f 327/372/71 329/374/71 330/375/71
f 331/376/72 332/377/72 333/378/72
f 331/376/72 333/378/72 334/379/72
f 335/380/73 336/381/73 337/382/73
f 335/380/73 337/382/73 338/383/73
f 339/384/74 340/385/74 341/386/74
f 339/384/74 341/386/74 342/387/74
f 343/388/75 344/389/75 345/390/75
f 343/388/75 345/390/75 346/391/75
f 347/392/76 348/393/76 349/394/76
f 347/392/76 349/394/76 350/395/76
f 351/396/71 352/397/71 353/398/71
f 351/396/71 353/398/71 354/399/71
f 355/400/72 356/401/72 357/402/72
f 355/400/72 357/402/72 358/403/72
f 359/404/73 360/405/73 361/406/73
f 359/404/73 361/406/73 362/407/73
f 363/408/74 364/409/74 365/410/74
f 363/408/74 365/410/74 366/411/74
f 367/412/75 368/413/75 369/414/75
f 367/412/75 369/414/75 370/415/75
f 371/416/76 372/417/76 373/418/76
f 371/416/76 373/418/76 374/419/76
f 375/420/74 376/421/74 377/422/74
f 375/420/74 377/422/74 378/423/74
f 379/424/74 380/425/74 381/426/74
f 379/424/74 381/426/74 382/427/74
f 383/428/71 384/428/71 385/428/71
f 383/428/71 385/428/71 386/428/71
f 387/429/72 388/429/72 389/429/72
f 387/429/72 389/429/72 390/429/72
f 391/430/73 392/431/73 393/432/73
f 391/430/73 393/432/73 394/433/73
f 395/434/74 396/435/74 397/436/74
f 395/434/74 397/436/74 398/437/74
f 399/438/75 400/438/75 401/438/75
f 399/438/75 401/438/75 402/438/75
f 403/282/76 404/282/76 405/282/76
f 403/282/76 405/282/76 406/282/76
f 407/439/71 408/439/71 409/439/71
f 407/439/71 409/439/71 410/439/71
f 411/440/72 412/440/72 413/440/72
f 411/440/72 413/440/72 414/440/72
f 415/441/73 416/442/73 417/443/73
f 415/441/73 417/443/73 418/444/73
f 419/445/74 420/446/74 421/447/74
f 419/445/74 421/447/74 422/448/74
f 423/449/75 424/449/75 425/449/75
f 423/449/75 425/449/75 426/449/75
f 427/282/76 428/282/76 429/282/76
f 427/282/76 429/282/76 430/282/76
f 431/450/71 432/451/71 433/452/71
f 431/450/71 433/452/71 434/453/71
f 435/454/72 436/455/72 437/456/72
f 435/454/72 437/456/72 438/457/72
f 439/458/73 440/459/73 441/460/73
f 439/458/73 441/460/73 442/461/73
f 443/462/74 444/463/74 445/464/74
f 443/462/74 445/464/74 446/465/74
f 447/466/75 448/467/75 449/468/75
f 447/466/75 449/468/75 450/469/75
f 451/470/76 452/471/76 453/472/76
f 451/470/76 453/472/76 454/473/76
f 455/474/71 456/475/71 457/476/71
f 455/474/71 457/476/71 458/477/71
f 459/478/72 460/479/72 461/480/72
f 459/478/72 461/480/72 462/481/72
f 463/482/73 464/483/73 465/484/73
f 463/482/73 465/484/73 466/485/73
f 467/486/74 468/487/74 469/488/74
f 467/486/74 469/488/74 470/489/74
f 471/490/75 472/491/75 473/492/75
f 471/490/75 473/492/75 474/493/75
f 475/494/76 476/495/76 477/496/76
f 475/494/76 477/496/76 478/497/76
f 479/498/71 480/499/71 481/500/71
f 479/498/71 481/500/71 482/501/71
f 483/502/71 484/503/71 485/504/71
f 483/502/71 485/504/71 486/505/71
f 487/506/71 488/507/71 489/508/71
f 487/506/71 489/508/71 490/509/71
f 491/510/72 492/511/72 493/512/72
f 491/510/72 493/512/72 494/513/72
f 495/514/73 496/514/73 497/514/73
f 495/514/73 497/514/73 498/514/73
f 499/515/74 500/515/74 501/515/74
f 499/515/74 501/515/74 502/515/74
f 503/516/75 504/516/75 505/516/75
f 503/516/75 505/516/75 506/516/75
f 507/282/76 508/282/76 509/282/76
f 507/282/76 509/282/76 510/282/76
f 511/517/71 512/518/71 513/519/71
f 511/517/71 513/519/71 514/520/71
f 515/521/72 516/522/72 517/523/72
f 515/521/72 517/523/72 518/524/72
f 519/525/73 520/525/73 521/525/73
f 519/525/73 521/525/73 522/525/73
f 523/526/74 524/526/74 525/526/74
f 523/526/74 525/526/74 526/526/74
f 527/527/75 528/527/75 529/527/75
f 527/527/75 529/527/75 530/527/75
f 531/282/76 532/282/76 533/282/76
f 531/282/76 533/282/76 534/282/76
f 535/528/71 536/529/71 537/530/71
f 535/528/71 537/530/71 538/531/71
f 539/532/72 540/533/72 541/534/72
f 539/532/72 541/534/72 542/535/72
f 543/536/73 544/537/73 545/538/73
f 543/536/73 545/538/73 546/539/73
f 547/540/74 548/541/74 549/542/74
f 547/540/74 549/542/74 550/543/74
f 551/544/75 552/545/75 553/546/75
f 551/544/75 553/546/75 554/547/75
f 555/548/76 556/549/76 557/550/76
f 555/548/76 557/550/76 558/551/76
f 559/552/71 560/553/71 561/554/71
f 559/552/71 561/554/71 562/555/71
f 563/556/72 564/557/72 565/558/72
f 563/556/72 565/558/72 566/559/72
f 567/560/73 568/561/73 569/562/73
f 567/560/73 569/562/73 570/563/73
f 571/564/74 572/565/74 573/566/74
f 571/564/74 573/566/74 574/567/74
f 575/568/75 576/569/75 577/570/75
f 575/568/75 577/570/75 578/571/75
f 579/572/76 580/573/76 581/574/76
f 579/572/76 581/574/76 582/575/76
f 583/576/73 584/577/73 585/578/73
f 583/576/73 585/578/73 586/579/73
f 587/580/73 588/581/73 589/582/73
f 587/580/73 589/582/73 590/583/73
f 591/584/73 592/585/73 593/586/73
f 591/584/73 593/586/73 594/587/73
f 595/588/73 596/589/73 597/590/73
f 595/588/73 597/590/73 598/591/73
f 599/592/73 600/593/73 601/594/73
f 599/592/73 601/594/73 602/595/73
f 603/596/73 604/597/73 605/598/73
f 603/596/73 605/598/73 606/599/73
f 607/600/73 608/601/73 609/602/73
f 607/600/73 609/602/73 610/603/73
f 611/604/72 612/605/72 613/606/72
f 611/604/72 613/606/72 614/607/72
f 615/608/72 616/609/72 617/610/72
f 615/608/72 617/610/72 618/611/72
f 619/612/72 620/613/72 621/614/72
f 619/612/72 621/614/72 622/615/72
f 623/616/72 624/617/72 625/618/72
f 623/616/72 625/618/72 626/619/72
f 627/620/72 628/621/72 629/622/72
f 627/620/72 629/622/72 630/623/72
f 631/624/72 632/625/72 633/626/72
f 631/624/72 633/626/72 634/627/72
f 635/628/72 636/629/72 637/630/72
f 635/628/72 637/630/72 638/631/72
f 639/632/74 640/633/74 641/634/74
f 639/632/74 641/634/74 642/635/74
f 643/636/74 644/637/74 645/638/74
f 643/636/74 645/638/74 646/639/74
f 647/640/74 648/641/74 649/642/74
f 647/640/74 649/642/74 650/643/74
f 651/644/74 652/645/74 653/646/74
f 651/644/74 653/646/74 654/647/74
f 655/648/74 656/649/74 657/650/74
f 655/648/74 657/650/74 658/651/74
f 659/652/74 660/653/74 661/654/74
f 659/652/74 661/654/74 662/655/74
f 663/656/74 664/657/74 665/658/74
f 663/656/74 665/658/74 666/659/74
f 667/660/71 668/661/71 669/662/71
f 667/660/71 669/662/71 670/663/71
f 671/664/71 672/665/71 673/666/71
f 671/664/71 673/666/71 674/667/71
f 675/668/71 676/669/71 677/670/71
f 675/668/71 677/670/71 678/671/71
f 679/672/71 680/673/71 681/674/71
f 679/672/71 681/674/71 682/675/71
f 683/676/71 684/677/71 685/678/71
f 683/676/71 685/678/71 686/679/71
f 687/680/71 688/681/71 689/682/71
f 687/680/71 689/682/71 690/683/71
f 691/684/71 692/685/71 693/686/71
f 691/684/71 693/686/71 694/687/71
