# DX12 UV variant: V already converted to 1-V; do NOT flip V again in the loader/shader.
# Metres; Y up; local part pivot; see assembly.json
mtllib S07_Shared.mtl
usemtl S07_Shared
# Blender 4.2.20 LTS
# www.blender.org
o S07_Lid_LOD2.001
v 0.451000 0.005333 -0.501000
v -0.518500 0.002000 -0.467250
v -0.541000 0.013667 0.411000
v -0.451000 0.005333 0.501000
v 0.518500 0.002000 0.467250
v 0.541000 0.013667 -0.411000
v -0.451000 0.022000 -0.501000
v 0.451000 0.022000 0.501000
v 0.467193 0.032000 -0.513807
v 0.452616 0.019000 -0.510000
v 0.445000 0.032000 -0.523000
v -0.467193 0.032000 -0.513807
v -0.445000 0.032000 -0.523000
v -0.452616 0.019000 -0.510000
v -0.563000 0.032000 -0.405000
v -0.553808 0.032000 -0.427193
v -0.550000 0.019000 -0.412615
v -0.553808 0.032000 0.427193
v -0.563000 0.032000 0.405000
v -0.550000 0.019000 0.412615
v -0.445000 0.032000 0.523000
v -0.467193 0.032000 0.513807
v -0.452616 0.019000 0.510000
v 0.467193 0.032000 0.513807
v 0.445000 0.032000 0.523000
v 0.452616 0.019000 0.510000
v 0.563000 0.032000 0.405000
v 0.553808 0.032000 0.427193
v 0.550000 0.019000 0.412615
v 0.553808 0.032000 -0.427193
v 0.563000 0.032000 -0.405000
v 0.550000 0.019000 -0.412615
v 0.467193 0.211000 -0.513807
v 0.445000 0.211000 -0.523000
v 0.437443 0.234281 -0.515043
v 0.461634 0.233324 -0.506556
v -0.467193 0.211000 -0.513807
v -0.461634 0.233324 -0.506556
v -0.437443 0.234281 -0.515043
v -0.445000 0.211000 -0.523000
v -0.563000 0.211000 -0.405000
v -0.555044 0.234281 -0.397442
v -0.546556 0.233324 -0.421634
v -0.553808 0.211000 -0.427193
v -0.553808 0.211000 0.427193
v -0.546556 0.233324 0.421634
v -0.555044 0.234281 0.397442
v -0.563000 0.211000 0.405000
v -0.445000 0.211000 0.523000
v -0.437443 0.234281 0.515043
v -0.461634 0.233324 0.506556
v -0.467193 0.211000 0.513807
v 0.467193 0.211000 0.513807
v 0.461634 0.233324 0.506556
v 0.437443 0.234281 0.515043
v 0.445000 0.211000 0.523000
v 0.563000 0.211000 0.405000
v 0.555044 0.234281 0.397442
v 0.546556 0.233324 0.421634
v 0.553808 0.211000 0.427193
v 0.553808 0.211000 -0.427193
v 0.546556 0.233324 -0.421634
v 0.555044 0.234281 -0.397442
v 0.563000 0.211000 -0.405000
v 0.403823 0.329676 -0.431988
v 0.380779 0.328719 -0.441957
v 0.383615 0.339000 -0.421000
v -0.403823 0.329676 -0.431988
v -0.383615 0.339000 -0.421000
v -0.380779 0.328719 -0.441957
v -0.481956 0.328719 -0.340779
v -0.461000 0.339000 -0.343616
v -0.471989 0.329676 -0.363823
v -0.471989 0.329676 0.363823
v -0.461000 0.339000 0.343616
v -0.481956 0.328719 0.340779
v -0.380779 0.328719 0.441957
v -0.383615 0.339000 0.421000
v -0.403823 0.329676 0.431988
v 0.403823 0.329676 0.431988
v 0.383615 0.339000 0.421000
v 0.380779 0.328719 0.441957
v 0.481956 0.328719 0.340779
v 0.461000 0.339000 0.343616
v 0.471989 0.329676 0.363823
v 0.471989 0.329676 -0.363823
v 0.461000 0.339000 -0.343616
v 0.481956 0.328719 -0.340779
v 0.402000 -0.032000 -0.442000
v -0.462000 -0.021000 -0.412000
v -0.482000 0.004667 0.362000
v -0.402000 -0.013667 0.442000
v 0.402000 0.004667 0.442000
v 0.482000 -0.013667 0.362000
v 0.462000 0.012000 -0.412000
v -0.402000 0.023000 -0.442000
v -0.000000 0.364602 -0.083613
v 0.067612 0.357500 -0.039036
v 0.072058 0.366227 -0.041603
v 0.072411 0.364602 0.041807
v -0.000000 0.363398 0.083613
v -0.072357 0.362058 0.041348
v -0.067612 0.370500 0.039036
v -0.072411 0.363398 -0.041807
v 0.091499 0.356000 -0.337000
v 0.091499 0.356000 -0.302999
v 0.091499 0.338000 -0.302999
v 0.091499 0.338000 -0.337000
v -0.091499 0.338000 -0.337000
v -0.091499 0.338000 -0.302999
v -0.091499 0.356000 -0.302999
v -0.091499 0.356000 -0.337000
v 0.091499 0.338000 -0.337000
v -0.091499 0.338000 -0.337000
v -0.091499 0.356000 -0.337000
v 0.091499 0.356000 -0.337000
v 0.091499 0.356000 -0.302999
v -0.091499 0.356000 -0.302999
v -0.091499 0.338000 -0.302999
v 0.091499 0.338000 -0.302999
v 0.091499 0.338000 -0.302999
v -0.091499 0.338000 -0.302999
v -0.091499 0.338000 -0.337000
v 0.091499 0.338000 -0.337000
v 0.091499 0.356000 -0.337000
v -0.091499 0.356000 -0.337000
v -0.091499 0.356000 -0.302999
v 0.091499 0.356000 -0.302999
v 0.091499 0.356000 0.302999
v 0.091499 0.356000 0.337000
v 0.091499 0.338000 0.337000
v 0.091499 0.338000 0.302999
v -0.091499 0.338000 0.302999
v -0.091499 0.338000 0.337000
v -0.091499 0.356000 0.337000
v -0.091499 0.356000 0.302999
v 0.091499 0.338000 0.302999
v -0.091499 0.338000 0.302999
v -0.091499 0.356000 0.302999
v 0.091499 0.356000 0.302999
v 0.091499 0.356000 0.337000
v -0.091499 0.356000 0.337000
v -0.091499 0.338000 0.337000
v 0.091499 0.338000 0.337000
v 0.091499 0.338000 0.337000
v -0.091499 0.338000 0.337000
v -0.091499 0.338000 0.302999
v 0.091499 0.338000 0.302999
v 0.091499 0.356000 0.302999
v -0.091499 0.356000 0.302999
v -0.091499 0.356000 0.337000
v 0.091499 0.356000 0.337000
v -0.227229 0.333107 -0.029917
v -0.217534 0.356342 0.059069
v -0.183746 0.334255 0.137363
v -0.087949 0.333943 0.212345
v 0.063124 0.333386 0.223961
v 0.183821 0.333869 0.137356
v 0.227180 0.333493 0.029910
v 0.217534 0.356342 -0.059069
v 0.183746 0.334255 -0.137363
v 0.063124 0.333386 -0.223961
v -0.087964 0.333698 -0.212381
v -0.183746 0.334255 -0.137363
v -0.111163 0.359218 0.192708
v 0.028897 0.358922 0.219514
v 0.179333 0.359412 0.137729
v 0.111163 0.359218 -0.192708
v -0.028897 0.358922 -0.219514
v -0.179333 0.359412 -0.137729
v -0.178284 0.360326 0.062285
v -0.086469 0.361308 0.166718
v 0.073195 0.360639 0.176714
v 0.171377 0.360710 0.070439
v 0.178182 0.360266 -0.062239
v 0.086469 0.361308 -0.166718
v -0.073273 0.360754 -0.176904
v -0.171208 0.360597 -0.070329
vn 0.1358 -0.9454 -0.2961
vn -0.4821 0.2826 -0.8293
vn 0.0051 -0.8569 0.5154
vn -0.4896 0.2116 0.8459
vn -0.1403 -0.9443 0.2978
vn 0.8677 -0.2400 0.4353
vn -0.8677 -0.2400 -0.4353
vn 0.4896 0.2115 -0.8459
vn 0.1500 -0.4454 -0.8827
vn 0.0082 0.0377 -0.9993
vn 0.0113 -0.0701 -0.9975
vn -0.6237 -0.1764 -0.7615
vn -0.6640 0.0399 -0.7467
vn -0.6605 -0.0661 -0.7479
vn -0.8854 -0.4393 -0.1519
vn -0.9992 0.0377 -0.0091
vn -0.9975 -0.0700 -0.0122
vn -0.7615 -0.1764 0.6237
vn -0.7468 0.0401 0.6639
vn -0.7479 -0.0661 0.6605
vn -0.1500 -0.4454 0.8827
vn -0.0082 0.0377 0.9993
vn -0.0113 -0.0701 0.9975
vn 0.6237 -0.1764 0.7615
vn 0.6640 0.0399 0.7467
vn 0.6605 -0.0661 0.7479
vn 0.8854 -0.4393 0.1519
vn 0.9992 0.0377 0.0091
vn 0.9975 -0.0700 0.0122
vn -0.0214 0.4384 -0.8985
vn 0.0082 0.6674 -0.7447
vn 0.0041 0.5698 -0.8218
vn 0.0006 -1.0000 -0.0075
vn -0.2806 -0.7603 -0.5858
vn 0.2710 -0.9316 0.2422
vn 0.6474 0.6731 -0.3575
vn 0.4437 0.7340 -0.5142
vn 0.5141 0.7344 -0.4431
vn -0.8973 0.4409 0.0204
vn -0.7448 0.6672 -0.0090
vn -0.8217 0.5698 -0.0049
vn -0.6474 0.6731 0.3575
vn -0.4437 0.7340 0.5142
vn -0.5141 0.7344 0.4431
vn 0.0214 0.4384 0.8985
vn -0.0082 0.6674 0.7447
vn -0.0041 0.5698 0.8218
vn 0.5735 0.5848 0.5737
vn 0.4437 0.7340 0.5142
vn 0.4938 0.6541 0.5730
vn 0.8973 0.4409 -0.0204
vn 0.7448 0.6672 0.0090
vn 0.8217 0.5698 0.0049
vn -0.0011 1.0000 0.0054
vn 0.0115 0.9999 0.0014
vn 0.4545 0.8899 0.0386
vn -0.5735 0.5848 -0.5737
vn -0.4437 0.7340 -0.5142
vn -0.4938 0.6541 -0.5730
vn 0.6630 -0.0583 -0.7463
vn -0.6287 -0.5832 -0.5144
vn -0.8085 -0.5821 0.0868
vn 0.0854 -0.5757 0.8132
vn 0.6287 -0.5832 0.5144
vn 0.7479 -0.0661 -0.6605
vn 0.8085 -0.5821 -0.0868
vn 0.4096 0.4094 -0.8152
vn 0.6633 0.0409 -0.7472
vn -0.3674 0.3265 -0.8708
vn -0.8438 0.3375 -0.4173
vn -0.8712 0.3265 0.3665
vn -0.4096 0.4094 0.8152
vn -0.4168 0.3380 0.8438
vn 0.3674 0.3265 0.8708
vn 0.8438 0.3375 0.4173
vn 0.8712 0.3265 -0.3665
vn 0.7470 0.0399 -0.6637
vn 0.0314 0.8766 -0.4802
vn -0.3083 0.8811 -0.3587
vn -0.1133 0.8696 -0.4806
vn -0.4787 0.8774 -0.0314
vn -0.4231 0.8790 -0.2200
vn -0.3567 0.8837 0.3031
vn -0.4807 0.8696 0.1125
vn -0.0314 0.8766 0.4802
vn 0.1133 0.8696 0.4806
vn 0.4231 0.8790 0.2200
vn 0.4807 0.8696 -0.1125
vn 0.1398 -0.8974 -0.4186
vn -0.4613 -0.2154 -0.8607
vn -0.0040 -0.8336 0.5524
vn 0.7543 0.6480 0.1054
vn -0.4638 -0.2664 0.8449
vn 0.1076 -0.7349 0.6695
vn -0.8775 -0.2304 -0.4206
vn 0.4643 0.2200 -0.8579
vn -0.0304 0.9994 0.0176
vn -0.0002 -0.6882 0.7255
vn 0.7982 0.3440 0.4945
vn 0.0324 -0.9993 -0.0188
vn 0.8043 0.3735 -0.4621
vn -0.6108 -0.7240 0.3205
vn -0.6278 -0.6886 -0.3628
vn 0.0290 0.3442 -0.9385
vn 1.0000 -0.0000 -0.0000
vn -1.0000 -0.0000 -0.0000
vn -0.0000 -0.0000 -1.0000
vn -0.0000 -0.0000 1.0000
vn -0.0000 -1.0000 -0.0000
vn -0.0000 1.0000 -0.0000
vn 0.2677 0.0241 0.9632
vn -0.3819 0.0341 0.9236
vn -0.9913 0.0194 -0.1302
vn -0.3819 0.0342 0.9236
vn -0.3179 0.7718 0.5506
vn -0.8002 0.0396 0.5985
vn 0.0914 0.7572 0.6468
vn 0.9912 0.0262 0.1301
vn 0.7353 0.6482 -0.1981
vn 0.5541 0.7065 0.4402
vn 0.2675 0.0241 -0.9633
vn 0.3179 0.7718 -0.5507
vn 0.8002 0.0396 -0.5985
vn -0.0914 0.7572 -0.6468
vn -0.3829 0.0298 -0.9233
vn -0.9913 0.0194 -0.1303
vn -0.7353 0.6482 0.1981
vn -0.5542 0.7065 -0.4402
vn 0.0441 0.9948 -0.0915
vn 0.0603 0.9978 -0.0293
vn 0.0196 0.9997 -0.0123
vn -0.1288 0.9901 -0.0562
vn -0.0441 0.9948 0.0915
vn -0.0627 0.9976 0.0300
vn -0.0220 0.9997 0.0082
vn 0.1328 0.9895 0.0572
vn -0.0218 0.9997 0.0085
vn 0.1330 0.9895 0.0573
vn 0.0193 0.9997 -0.0127
vn 0.8002 0.0397 -0.5984
vn 0.7354 0.6480 -0.1981
vn 0.9912 0.0263 0.1301
vn -0.8002 0.0397 0.5984
vn -0.7354 0.6481 0.1981
vn -0.9913 0.0195 -0.1301
vn -0.8009 0.0395 -0.5975
vn -0.3829 0.0297 -0.9233
vn 0.2676 0.0241 -0.9632
vn 0.9912 0.0263 0.1299
vn 0.9912 0.0262 0.1300
vn 0.8011 0.0328 0.5976
vn 0.2675 0.0242 -0.9632
vn 0.8012 0.0328 0.5975
vn -0.3820 0.0341 0.9235
vn -0.8001 0.0396 0.5985
vn -0.9913 0.0194 -0.1301
vn -0.3830 0.0299 -0.9233
vn 0.2677 0.0242 0.9632
vn 0.2675 0.0242 -0.9633
vn 0.2678 0.0242 0.9632
vn 0.8011 0.0329 0.5976
vn -0.8009 0.0397 -0.5975
vn 0.0605 0.9977 -0.0294
vn 0.0441 0.9948 -0.0916
vn 0.0195 0.9997 -0.0124
vn -0.0629 0.9976 0.0300
vn -0.0441 0.9948 0.0916
vn -0.0219 0.9997 0.0084
vn 0.0194 0.9997 -0.0126
vn -0.1288 0.9901 -0.0563
vn -0.0630 0.9976 0.0301
vn -0.0218 0.9997 0.0086
vt 0.361669 0.646027
vt 0.353761 0.794788
vt 0.510230 0.653935
vt 0.510855 0.838927
vt 0.496801 0.824873
vt 0.368440 0.824873
vt 0.367816 0.808842
vt 0.502323 0.802696
vt 0.496176 0.639881
vt 0.872025 0.844351
vt 0.869989 0.854736
vt 0.872566 0.985707
vt 0.750962 0.733063
vt 0.747490 0.743731
vt 0.738372 0.808842
vt 0.354386 0.838927
vt 0.354386 0.979780
vt 0.368440 0.993834
vt 0.496801 0.993834
vt 0.510855 0.979780
vt 0.502632 0.307075
vt 0.473069 0.437449
vt 0.500765 0.436420
vt 0.500848 0.285816
vt 0.474790 0.304355
vt 0.502485 0.303327
vt 0.154397 0.332645
vt 0.125154 0.445935
vt 0.152965 0.444931
vt 0.153096 0.310695
vt 0.126482 0.329914
vt 0.154293 0.328910
vt 0.676397 0.668320
vt 0.718072 0.605537
vt 0.690261 0.604533
vt 0.674871 0.689399
vt 0.703878 0.672188
vt 0.676068 0.671184
vt 0.676199 0.805420
vt 0.702578 0.694138
vt 0.674767 0.693134
vt 0.471151 0.308883
vt 0.453288 0.424185
vt 0.469316 0.436032
vt 0.008196 0.835239
vt 0.008196 0.976597
vt 0.167476 0.835239
vt 0.326010 0.992850
vt 0.329603 0.970793
vt 0.318054 0.980449
vt 0.122831 0.334257
vt 0.105716 0.431884
vt 0.121427 0.444448
vt 0.122891 0.330290
vt 0.105716 0.319165
vt 0.106657 0.333500
vt 0.181837 0.962865
vt 0.204573 0.836617
vt 0.193992 0.826788
vt 0.706273 0.690779
vt 0.723449 0.679655
vt 0.707446 0.672921
vt 0.707737 0.804937
vt 0.722244 0.697893
vt 0.706333 0.694747
vt 0.197213 0.955800
vt 0.208174 0.968911
vt 0.315064 0.978459
vt 0.469566 0.287710
vt 0.454577 0.309596
vt 0.471172 0.304879
vt 0.007601 0.978873
vt 0.006166 0.975408
vt 0.504386 0.305154
vt 0.024592 0.818002
vt 0.021127 0.819437
vt 0.023403 0.820032
vt 0.156227 0.330585
vt 0.169506 0.836428
vt 0.168070 0.832963
vt 0.168070 0.978873
vt 0.169506 0.975408
vt 0.167476 0.976597
vt 0.672937 0.691074
vt 0.021127 0.992399
vt 0.024592 0.993834
vt 0.023403 0.991804
vt 0.469235 0.439060
vt 0.472830 0.440152
vt 0.474936 0.308103
vt 0.472706 0.284247
vt 0.473153 0.286844
vt 0.126586 0.333649
vt 0.124956 0.308834
vt 0.121718 0.312431
vt 0.125286 0.311699
vt 0.704208 0.669324
vt 0.702682 0.690403
vt 0.707764 0.807677
vt 0.704010 0.806424
vt 0.704192 0.808842
vt 0.331474 0.967348
vt 0.328175 0.967498
vt 0.340824 0.845174
vt 0.338834 0.848165
vt 0.342054 0.848897
vt 0.327723 0.831755
vt 0.327873 0.835053
vt 0.331169 0.833625
vt 0.217993 0.823516
vt 0.220983 0.825506
vt 0.221715 0.822286
vt 0.207872 0.836467
vt 0.206444 0.833171
vt 0.195223 0.958790
vt 0.193992 0.955067
vt 0.208324 0.972210
vt 0.204878 0.970339
vt 0.314331 0.981679
vt 0.151079 0.993834
vt 0.152268 0.991804
vt 0.154545 0.819437
vt 0.152268 0.820032
vt 0.007601 0.832963
vt 0.500525 0.439123
vt 0.500401 0.283219
vt 0.152767 0.307830
vt 0.721585 0.607312
vt 0.676381 0.807838
vt 0.467273 0.446575
vt 0.342054 0.977176
vt 0.340398 0.980821
vt 0.337552 0.821174
vt 0.341197 0.822830
vt 0.195649 0.823143
vt 0.182822 0.966746
vt 0.722507 0.693989
vt 0.322129 0.993834
vt 0.470829 0.447817
vt 0.498524 0.446789
vt 0.454886 0.313506
vt 0.106920 0.337404
vt 0.723449 0.792374
vt 0.453288 0.295815
vt 0.468928 0.285107
vt 0.121207 0.309526
vt 0.707957 0.670016
vt 0.154545 0.992399
vt 0.151079 0.818002
vt 0.006166 0.836428
vt 0.779805 0.185785
vt 0.783551 0.184576
vt 0.779805 0.120518
vt 0.529601 0.663761
vt 0.522562 0.796350
vt 0.660605 0.670800
vt 0.855268 0.675421
vt 0.849958 0.805658
vt 0.857849 0.801298
vt 0.661230 0.855792
vt 0.648737 0.843299
vt 0.530226 0.848753
vt 0.535055 0.808842
vt 0.648112 0.808842
vt 0.660605 0.796350
vt 0.648112 0.658307
vt 0.849344 0.684877
vt 0.523187 0.981342
vt 0.535680 0.993834
vt 0.648737 0.993834
vt 0.661230 0.981342
vt 0.823803 0.352087
vt 0.812730 0.357977
vt 0.812749 0.370552
vt 0.475873 0.171884
vt 0.475341 0.184230
vt 0.475885 0.184515
vt 0.822992 0.351473
vt 0.454125 0.171234
vt 0.453430 0.183895
vt 0.823783 0.376961
vt 0.834454 0.371118
vt 0.834470 0.357311
vt 0.464862 0.190875
vt 0.824615 0.351473
vt 0.464671 0.165410
vt 0.623657 0.100380
vt 0.622824 0.073677
vt 0.621523 0.091323
vt 0.624959 0.082734
vt 0.624490 0.099912
vt 0.624490 0.074146
vt 0.621991 0.074146
vt 0.621991 0.099912
vt 0.798268 0.101621
vt 0.798268 0.073045
vt 0.792958 0.073045
vt 0.792958 0.101622
vt 0.928548 0.111624
vt 0.927715 0.084921
vt 0.926414 0.102566
vt 0.929849 0.093978
vt 0.929381 0.111155
vt 0.929381 0.085389
vt 0.926882 0.085389
vt 0.926882 0.111155
vt 0.011475 0.098386
vt 0.011475 0.069810
vt 0.006166 0.069810
vt 0.006166 0.098386
vt 0.687038 0.483071
vt 0.673769 0.501875
vt 0.690280 0.541149
vt 0.274768 0.170793
vt 0.278537 0.166440
vt 0.274366 0.154478
vt 0.279495 0.178863
vt 0.705985 0.251325
vt 0.701770 0.240424
vt 0.702182 0.268835
vt 0.248405 0.272101
vt 0.243743 0.277391
vt 0.246554 0.283524
vt 0.245053 0.259427
vt 0.249005 0.250373
vt 0.275292 0.128223
vt 0.278102 0.141276
vt 0.279495 0.125411
vt 0.674830 0.286946
vt 0.682495 0.262928
vt 0.672889 0.281211
vt 0.687626 0.264925
vt 0.674000 0.241024
vt 0.662995 0.228795
vt 0.683855 0.243583
vt 0.634153 0.234124
vt 0.654544 0.232049
vt 0.626488 0.258142
vt 0.636092 0.239860
vt 0.621357 0.256146
vt 0.634985 0.280050
vt 0.645988 0.292275
vt 0.625128 0.277487
vt 0.654437 0.289003
vt 0.741403 0.501671
vt 0.735612 0.489270
vt 0.724945 0.480358
vt 0.673824 0.519837
vt 0.679615 0.532238
vt 0.707586 0.545743
vt 0.724948 0.541148
vt 0.739678 0.523463
vt 0.707643 0.475765
vt 0.275425 0.179765
vt 0.705342 0.288193
vt 0.701061 0.290917
vt 0.706190 0.269160
vt 0.624204 0.243016
vt 0.244065 0.234300
vt 0.248049 0.233125
vt 0.246554 0.222800
s 1
f 2/1/1 1/2/2 4/3/3
f 8/4/4 5/5/5 6/6/6
f 1/2/2 6/7/6 5/8/5
f 5/8/5 4/3/3 1/2/2
f 4/3/3 3/9/7 2/1/1
f 2/10/1 7/11/8 1/12/2
f 5/13/5 8/14/4 4/15/3
f 6/6/6 1/16/2 8/4/4
f 1/16/2 7/17/8 8/4/4
f 7/17/8 2/18/1 3/19/7
f 3/19/7 4/20/3 7/17/8
f 4/20/3 8/4/4 7/17/8
f 13/21/9 34/22/10 11/23/11
f 16/24/12 37/25/13 12/26/14
f 19/27/15 41/28/16 15/29/17
f 22/30/18 45/31/19 18/32/20
f 25/33/21 49/34/22 21/35/23
f 28/36/24 53/37/25 24/38/26
f 31/39/27 57/40/28 27/41/29
f 39/42/30 66/43/31 35/44/32
f 14/45/33 10/46/34 23/47/35
f 62/48/36 65/49/37 86/50/38
f 47/51/39 71/52/40 42/53/41
f 46/54/42 79/55/43 74/56/44
f 55/57/45 77/58/46 50/59/47
f 59/60/48 80/61/49 54/62/50
f 63/63/51 83/64/52 58/65/53
f 81/66/54 84/67/55 87/68/56
f 43/69/57 68/70/58 38/71/59
f 9/72/60 10/46/34 11/73/11
f 12/26/14 13/21/9 14/74/33
f 15/75/17 16/76/12 17/77/61
f 18/32/20 19/27/15 20/78/62
f 21/79/23 22/80/18 23/47/35
f 24/81/26 25/82/21 26/83/63
f 27/41/29 28/36/24 29/84/64
f 30/85/65 31/86/27 32/87/66
f 34/22/10 36/88/67 33/89/68
f 38/71/59 40/90/69 37/25/13
f 41/91/16 43/69/57 44/92/70
f 46/54/42 48/93/71 45/31/19
f 49/94/22 51/95/72 52/96/73
f 54/62/50 56/97/74 53/37/25
f 57/40/28 59/60/48 60/98/75
f 62/99/36 64/100/76 61/101/77
f 65/49/37 66/102/31 67/103/78
f 68/104/58 69/105/79 70/106/80
f 71/107/40 72/108/81 73/109/82
f 74/110/44 75/111/83 76/112/84
f 77/58/46 78/113/85 79/114/43
f 80/115/49 81/66/54 82/116/86
f 83/117/52 84/67/55 85/118/87
f 86/50/38 87/68/56 88/119/88
f 30/85/65 10/46/34 9/72/60
f 32/87/66 27/120/29 29/121/64
f 29/121/64 24/81/26 26/83/63
f 26/83/63 21/79/23 23/47/35
f 23/47/35 18/122/20 20/123/62
f 20/123/62 15/75/17 17/77/61
f 17/77/61 12/124/14 14/45/33
f 14/45/33 11/73/11 10/46/34
f 34/22/10 9/125/60 11/23/11
f 37/25/13 13/21/9 12/26/14
f 40/90/69 35/44/32 34/22/10
f 41/91/16 16/24/12 15/126/17
f 37/25/13 43/69/57 38/71/59
f 45/31/19 19/27/15 18/32/20
f 48/93/71 42/53/41 41/28/16
f 49/94/22 22/30/18 21/127/23
f 52/96/73 46/54/42 45/31/19
f 53/37/25 25/33/21 24/38/26
f 56/97/74 50/128/47 49/34/22
f 57/40/28 28/36/24 27/41/29
f 53/37/25 59/60/48 54/62/50
f 61/101/77 31/39/27 30/129/65
f 64/100/76 58/65/53 57/40/28
f 62/130/36 33/89/68 36/88/67
f 35/131/32 65/49/37 36/132/67
f 68/70/58 39/42/30 38/71/59
f 70/106/80 67/103/78 66/102/31
f 42/133/41 73/109/82 43/134/57
f 68/104/58 72/108/81 69/105/79
f 74/56/44 47/51/39 46/54/42
f 76/112/84 72/108/81 71/107/40
f 50/59/47 79/114/43 51/135/72
f 79/114/43 75/111/83 74/110/44
f 80/115/49 55/57/45 54/136/50
f 82/116/86 78/113/85 77/58/46
f 58/65/53 85/137/87 59/60/48
f 80/115/49 84/67/55 81/66/54
f 86/50/38 63/138/51 62/48/36
f 88/119/88 84/67/55 83/117/52
f 87/68/56 65/49/37 67/103/78
f 9/125/60 61/139/77 30/140/65
f 13/21/9 40/90/69 34/22/10
f 16/24/12 44/92/70 37/25/13
f 19/27/15 48/93/71 41/28/16
f 22/30/18 52/96/73 45/31/19
f 25/33/21 56/97/74 49/34/22
f 28/36/24 60/98/75 53/37/25
f 31/39/27 64/100/76 57/40/28
f 39/42/30 70/141/80 66/43/31
f 10/46/34 32/87/66 29/121/64
f 29/121/64 26/83/63 10/46/34
f 26/83/63 23/47/35 10/46/34
f 23/47/35 20/123/62 17/77/61
f 17/77/61 14/45/33 23/47/35
f 62/48/36 36/132/67 65/49/37
f 47/51/39 76/142/84 71/52/40
f 46/54/42 51/95/72 79/55/43
f 55/57/45 82/116/86 77/58/46
f 59/60/48 85/137/87 80/61/49
f 63/63/51 88/143/88 83/64/52
f 87/68/56 67/103/78 81/66/54
f 67/103/78 69/105/79 81/66/54
f 69/105/79 72/108/81 75/111/83
f 75/111/83 78/113/85 69/105/79
f 78/113/85 81/66/54 69/105/79
f 43/69/57 73/144/82 68/70/58
f 34/22/10 35/44/32 36/88/67
f 38/71/59 39/42/30 40/90/69
f 41/91/16 42/145/41 43/69/57
f 46/54/42 47/51/39 48/93/71
f 49/94/22 50/146/47 51/95/72
f 54/62/50 55/147/45 56/97/74
f 57/40/28 58/65/53 59/60/48
f 62/99/36 63/63/51 64/100/76
f 30/85/65 32/87/66 10/46/34
f 32/87/66 31/86/27 27/120/29
f 29/121/64 28/148/24 24/81/26
f 26/83/63 25/82/21 21/79/23
f 23/47/35 22/80/18 18/122/20
f 20/123/62 19/149/15 15/75/17
f 17/77/61 16/76/12 12/124/14
f 14/45/33 13/150/9 11/73/11
f 34/22/10 33/89/68 9/125/60
f 37/25/13 40/90/69 13/21/9
f 40/90/69 39/42/30 35/44/32
f 41/91/16 44/92/70 16/24/12
f 37/25/13 44/92/70 43/69/57
f 45/31/19 48/93/71 19/27/15
f 48/93/71 47/51/39 42/53/41
f 49/94/22 52/96/73 22/30/18
f 52/96/73 51/95/72 46/54/42
f 53/37/25 56/97/74 25/33/21
f 56/151/74 55/152/45 50/153/47
f 57/40/28 60/98/75 28/36/24
f 53/37/25 60/98/75 59/60/48
f 61/101/77 64/100/76 31/39/27
f 64/100/76 63/63/51 58/65/53
f 62/130/36 61/139/77 33/89/68
f 35/131/32 66/102/31 65/49/37
f 68/70/58 70/141/80 39/42/30
f 70/106/80 69/105/79 67/103/78
f 42/133/41 71/107/40 73/109/82
f 68/104/58 73/109/82 72/108/81
f 74/56/44 76/142/84 47/51/39
f 76/112/84 75/111/83 72/108/81
f 50/59/47 77/58/46 79/114/43
f 79/114/43 78/113/85 75/111/83
f 80/115/49 82/116/86 55/57/45
f 82/116/86 81/66/54 78/113/85
f 58/65/53 83/64/52 85/137/87
f 80/115/49 85/118/87 84/67/55
f 86/50/38 88/119/88 63/138/51
f 88/119/88 87/68/56 84/67/55
f 87/68/56 86/50/38 65/49/37
f 9/125/60 33/89/68 61/139/77
f 90/154/89 89/155/90 92/156/91
f 90/157/89 95/158/92 89/159/90
f 93/160/93 94/161/94 95/162/92
f 89/155/90 95/163/92 94/164/94
f 94/164/94 93/165/93 89/155/90
f 93/165/93 92/156/91 89/155/90
f 92/156/91 91/166/95 90/154/89
f 90/157/89 96/167/96 95/158/92
f 95/162/92 96/168/96 93/160/93
f 96/168/96 90/169/89 91/170/95
f 91/170/95 92/171/91 96/168/96
f 92/171/91 93/160/93 96/168/96
f 103/172/97 101/173/98 100/174/99
f 100/175/99 98/176/100 99/177/101
f 101/173/98 103/172/97 102/178/102
f 102/179/102 104/180/103 98/176/100
f 100/174/99 99/181/101 103/172/97
f 99/181/101 97/182/104 103/172/97
f 97/182/104 104/183/103 103/172/97
f 97/184/104 99/177/101 98/176/100
f 102/185/102 103/172/97 104/183/103
f 104/180/103 97/184/104 98/176/100
f 98/176/100 100/175/99 101/186/98
f 101/186/98 102/179/102 98/176/100
s 0
f 105/187/105 106/187/105 107/187/105
f 105/187/105 107/187/105 108/187/105
f 109/188/106 110/188/106 111/188/106
f 109/188/106 111/188/106 112/188/106
f 113/189/107 114/189/107 115/189/107
f 113/189/107 115/189/107 116/189/107
f 117/190/108 118/190/108 119/190/108
f 117/190/108 119/190/108 120/190/108
f 121/191/109 122/192/109 123/193/109
f 121/191/109 123/193/109 124/194/109
f 125/195/110 126/196/110 127/197/110
f 125/195/110 127/197/110 128/198/110
f 129/199/105 130/199/105 131/199/105
f 129/199/105 131/199/105 132/199/105
f 133/200/106 134/200/106 135/200/106
f 133/200/106 135/200/106 136/200/106
f 137/201/107 138/201/107 139/201/107
f 137/201/107 139/201/107 140/201/107
f 141/202/108 142/202/108 143/202/108
f 141/202/108 143/202/108 144/202/108
f 145/203/109 146/204/109 147/205/109
f 145/203/109 147/205/109 148/206/109
f 149/207/110 150/208/110 151/209/110
f 149/207/110 151/209/110 152/210/110
f 157/211/111 156/212/112 153/213/113
s 1
f 156/214/114 165/215/115 155/216/116
f 156/214/114 166/217/117 165/215/115
f 159/218/118 160/219/119 167/220/120
f 162/221/121 168/222/122 161/223/123
f 162/221/121 169/224/124 168/222/122
f 163/225/125 169/224/124 162/221/121
f 153/226/126 154/227/127 170/228/128
f 154/229/127 172/230/129 171/231/130
f 165/232/115 173/233/131 172/230/129
f 167/234/120 173/233/131 166/235/117
f 160/236/119 174/237/132 167/234/120
f 160/236/119 176/238/133 175/239/134
f 168/240/122 177/241/135 176/238/133
f 170/242/128 177/241/135 169/243/124
f 154/229/127 178/244/136 170/242/128
s 0
f 177/241/137 178/244/138 173/233/139
f 161/245/140 160/246/141 159/247/142
f 155/248/143 154/249/144 153/213/145
f 153/213/126 164/250/146 163/251/147
f 162/252/148 161/245/123 159/247/149
f 159/247/150 158/253/151 162/252/152
f 158/253/153 157/211/111 162/252/148
f 156/212/154 155/248/155 153/213/156
f 153/213/113 163/251/157 157/211/158
f 163/251/125 162/252/159 157/211/160
s 1
f 155/216/116 165/215/115 154/227/127
f 156/214/114 157/254/158 166/217/117
f 157/255/158 167/220/120 166/256/117
f 157/255/158 158/257/161 167/220/120
f 158/257/161 159/218/118 167/220/120
f 161/258/123 168/240/122 160/236/119
f 163/225/125 170/259/128 169/224/124
f 163/225/125 164/260/162 170/259/128
f 164/260/162 153/261/126 170/259/128
f 154/229/127 165/232/115 172/230/129
f 165/232/115 166/235/117 173/233/131
f 167/234/120 174/237/132 173/233/131
f 160/236/119 175/239/134 174/237/132
f 160/236/119 168/240/122 176/238/133
f 168/240/122 169/243/124 177/241/135
f 170/242/128 178/244/136 177/241/135
f 154/229/127 171/231/130 178/244/136
s 0
f 171/231/163 172/230/164 173/233/165
f 175/239/166 176/238/167 177/241/168
f 178/244/138 171/231/163 173/233/169
f 173/233/165 174/237/170 175/239/166
f 175/239/171 177/241/172 173/233/169
