# DX12 UV variant: V already converted to 1-V; do NOT flip V again in the loader/shader.
# Metres; Y up; local part pivot; see assembly.json
mtllib S07_Shared.mtl
usemtl S07_Shared
# Blender 4.2.20 LTS
# www.blender.org
o S07_Lid_LOD1.001
v 0.451000 -0.003000 -0.501000
v -0.451000 -0.003000 -0.501000
v -0.541000 -0.003000 -0.411000
v -0.541000 -0.003000 0.411000
v -0.451000 -0.003000 0.501000
v 0.451000 -0.003000 0.501000
v 0.541000 -0.003000 0.411000
v 0.541000 -0.003000 -0.411000
v 0.451000 0.022000 -0.501000
v -0.451000 0.022000 -0.501000
v -0.541000 0.022000 -0.411000
v -0.541000 0.022000 0.411000
v -0.451000 0.022000 0.501000
v 0.451000 0.022000 0.501000
v 0.541000 0.022000 0.411000
v 0.541000 0.022000 -0.411000
v 0.467193 0.032000 -0.513807
v 0.452616 0.019000 -0.510000
v 0.445000 0.032000 -0.523000
v -0.467193 0.032000 -0.513807
v -0.445000 0.032000 -0.523000
v -0.452616 0.019000 -0.510000
v -0.563000 0.032000 -0.405000
v -0.553808 0.032000 -0.427193
v -0.550000 0.019000 -0.412615
v -0.553808 0.032000 0.427193
v -0.563000 0.032000 0.405000
v -0.550000 0.019000 0.412615
v -0.445000 0.032000 0.523000
v -0.467193 0.032000 0.513807
v -0.452616 0.019000 0.510000
v 0.467193 0.032000 0.513807
v 0.445000 0.032000 0.523000
v 0.452616 0.019000 0.510000
v 0.563000 0.032000 0.405000
v 0.553808 0.032000 0.427193
v 0.550000 0.019000 0.412615
v 0.553808 0.032000 -0.427193
v 0.563000 0.032000 -0.405000
v 0.550000 0.019000 -0.412615
v 0.467193 0.211000 -0.513807
v 0.445000 0.211000 -0.523000
v 0.437443 0.234281 -0.515043
v 0.461634 0.233324 -0.506556
v -0.467193 0.211000 -0.513807
v -0.461634 0.233324 -0.506556
v -0.437443 0.234281 -0.515043
v -0.445000 0.211000 -0.523000
v -0.563000 0.211000 -0.405000
v -0.555044 0.234281 -0.397442
v -0.546556 0.233324 -0.421634
v -0.553808 0.211000 -0.427193
v -0.553808 0.211000 0.427193
v -0.546556 0.233324 0.421634
v -0.555044 0.234281 0.397442
v -0.563000 0.211000 0.405000
v -0.445000 0.211000 0.523000
v -0.437443 0.234281 0.515043
v -0.461634 0.233324 0.506556
v -0.467193 0.211000 0.513807
v 0.467193 0.211000 0.513807
v 0.461634 0.233324 0.506556
v 0.437443 0.234281 0.515043
v 0.445000 0.211000 0.523000
v 0.563000 0.211000 0.405000
v 0.555044 0.234281 0.397442
v 0.546556 0.233324 0.421634
v 0.553808 0.211000 0.427193
v 0.553808 0.211000 -0.427193
v 0.546556 0.233324 -0.421634
v 0.555044 0.234281 -0.397442
v 0.563000 0.211000 -0.405000
v 0.403823 0.329676 -0.431988
v 0.380779 0.328719 -0.441957
v 0.383615 0.339000 -0.421000
v -0.403823 0.329676 -0.431988
v -0.383615 0.339000 -0.421000
v -0.380779 0.328719 -0.441957
v -0.481956 0.328719 -0.340779
v -0.461000 0.339000 -0.343616
v -0.471989 0.329676 -0.363823
v -0.471989 0.329676 0.363823
v -0.461000 0.339000 0.343616
v -0.481956 0.328719 0.340779
v -0.380779 0.328719 0.441957
v -0.383615 0.339000 0.421000
v -0.403823 0.329676 0.431988
v 0.403823 0.329676 0.431988
v 0.383615 0.339000 0.421000
v 0.380779 0.328719 0.441957
v 0.481956 0.328719 0.340779
v 0.461000 0.339000 0.343616
v 0.471989 0.329676 0.363823
v 0.471989 0.329676 -0.363823
v 0.461000 0.339000 -0.343616
v 0.481956 0.328719 -0.340779
v 0.402000 -0.032000 -0.442000
v -0.402000 -0.032000 -0.442000
v -0.482000 -0.032000 -0.362000
v -0.482000 -0.032000 0.362000
v -0.402000 -0.032000 0.442000
v 0.402000 -0.032000 0.442000
v 0.482000 -0.032000 0.362000
v 0.482000 -0.032000 -0.362000
v 0.402000 0.023000 -0.442000
v -0.402000 0.023000 -0.442000
v -0.482000 0.023000 -0.362000
v -0.482000 0.023000 0.362000
v -0.402000 0.023000 0.442000
v 0.402000 0.023000 0.442000
v 0.482000 0.023000 0.362000
v 0.482000 0.023000 -0.362000
v -0.004013 0.362132 -0.082450
v 0.004256 0.366690 -0.082282
v 0.067612 0.357500 -0.039036
v 0.072058 0.366227 -0.041603
v 0.069493 0.361776 0.044319
v 0.073269 0.366795 0.038042
v 0.004256 0.361309 0.082282
v -0.004013 0.365868 0.082450
v -0.072357 0.362058 0.041348
v -0.067612 0.370500 0.039036
v -0.067612 0.357500 -0.039036
v -0.072381 0.365272 -0.041443
v 0.091499 0.356000 -0.337000
v 0.091499 0.356000 -0.302999
v 0.091499 0.338000 -0.302999
v 0.091499 0.338000 -0.337000
v -0.091499 0.338000 -0.337000
v -0.091499 0.338000 -0.302999
v -0.091499 0.356000 -0.302999
v -0.091499 0.356000 -0.337000
v 0.091499 0.338000 -0.337000
v -0.091499 0.338000 -0.337000
v -0.091499 0.356000 -0.337000
v 0.091499 0.356000 -0.337000
v 0.091499 0.356000 -0.302999
v -0.091499 0.356000 -0.302999
v -0.091499 0.338000 -0.302999
v 0.091499 0.338000 -0.302999
v 0.091499 0.338000 -0.302999
v -0.091499 0.338000 -0.302999
v -0.091499 0.338000 -0.337000
v 0.091499 0.338000 -0.337000
v 0.091499 0.356000 -0.337000
v -0.091499 0.356000 -0.337000
v -0.091499 0.356000 -0.302999
v 0.091499 0.356000 -0.302999
v 0.091499 0.356000 0.302999
v 0.091499 0.356000 0.337000
v 0.091499 0.338000 0.337000
v 0.091499 0.338000 0.302999
v -0.091499 0.338000 0.302999
v -0.091499 0.338000 0.337000
v -0.091499 0.356000 0.337000
v -0.091499 0.356000 0.302999
v 0.091499 0.338000 0.302999
v -0.091499 0.338000 0.302999
v -0.091499 0.356000 0.302999
v 0.091499 0.356000 0.302999
v 0.091499 0.356000 0.337000
v -0.091499 0.356000 0.337000
v -0.091499 0.338000 0.337000
v 0.091499 0.338000 0.337000
v 0.091499 0.338000 0.337000
v -0.091499 0.338000 0.337000
v -0.091499 0.338000 0.302999
v 0.091499 0.338000 0.302999
v 0.091499 0.356000 0.302999
v -0.091499 0.356000 0.302999
v -0.091499 0.356000 0.337000
v 0.091499 0.356000 0.337000
v -0.227304 0.332641 -0.000000
v -0.220165 0.335797 0.056505
v -0.198599 0.333572 0.111214
v -0.162416 0.335796 0.159017
v -0.114025 0.333212 0.197501
v -0.056506 0.335798 0.220165
v -0.000000 0.333222 0.227243
v 0.056506 0.335798 0.220165
v 0.114053 0.332889 0.197550
v 0.162416 0.335796 0.159017
v 0.198688 0.333215 0.111158
v 0.220165 0.335797 0.056505
v 0.227273 0.332939 0.000000
v 0.220165 0.335797 -0.056505
v 0.198599 0.333572 -0.111214
v 0.162416 0.335796 -0.159017
v 0.114053 0.332889 -0.197550
v 0.056506 0.335798 -0.220165
v 0.000000 0.333222 -0.227243
v -0.056506 0.335798 -0.220165
v -0.114041 0.333026 -0.197529
v -0.162416 0.335796 -0.159017
v -0.198599 0.333572 -0.111214
v -0.220165 0.335797 -0.056505
v -0.219000 0.359000 0.000000
v -0.201795 0.359034 0.089224
v -0.133880 0.359101 0.174586
v -0.056681 0.359000 0.211536
v 0.028897 0.358922 0.219514
v 0.133880 0.359101 0.174586
v 0.201795 0.359034 0.089224
v 0.219000 0.359000 0.000000
v 0.201795 0.359034 -0.089224
v 0.133880 0.359101 -0.174586
v 0.056681 0.359000 -0.211536
v -0.028897 0.358922 -0.219514
v -0.133880 0.359101 -0.174586
v -0.201795 0.359034 -0.089224
v -0.183864 0.360837 0.024207
v -0.151054 0.360213 0.104391
v -0.086469 0.361308 0.166718
v 0.022043 0.361731 0.185769
v 0.118749 0.361400 0.143500
v 0.171377 0.360710 0.070439
v 0.183864 0.360837 -0.024207
v 0.150935 0.360104 -0.104207
v 0.086469 0.361308 -0.166718
v -0.022043 0.361731 -0.185769
v -0.118749 0.361400 -0.143500
v -0.171208 0.360597 -0.070329
v 0.073328 0.358988 0.165852
v -0.073326 0.358985 -0.165847
vn 0.0068 -1.0000 -0.0022
vn -0.4893 -0.2111 -0.8462
vn 0.4687 -0.8345 0.2899
vn -0.0068 1.0000 -0.0022
vn 0.0155 -0.9929 -0.1178
vn 0.4896 0.2115 -0.8459
vn -0.0391 -0.9992 -0.0102
vn -0.2970 0.2690 -0.9162
vn -0.8622 0.2557 -0.4373
vn -0.0225 -0.9997 0.0089
vn -0.9288 0.2499 0.2738
vn -0.0155 -0.9929 0.1178
vn -0.4896 0.2115 0.8459
vn 0.0391 -0.9992 0.0102
vn 0.2970 0.2690 0.9162
vn 0.8622 0.2557 0.4373
vn 0.1500 -0.4454 -0.8827
vn 0.0082 0.0377 -0.9993
vn 0.0113 -0.0701 -0.9975
vn -0.6237 -0.1764 -0.7615
vn -0.6640 0.0399 -0.7467
vn -0.6605 -0.0661 -0.7479
vn -0.8854 -0.4393 -0.1519
vn -0.9992 0.0377 -0.0091
vn -0.9975 -0.0700 -0.0122
vn -0.7615 -0.1764 0.6237
vn -0.7468 0.0401 0.6639
vn -0.7479 -0.0661 0.6605
vn -0.1500 -0.4454 0.8827
vn -0.0082 0.0377 0.9993
vn -0.0113 -0.0701 0.9975
vn 0.6237 -0.1764 0.7615
vn 0.6640 0.0399 0.7467
vn 0.6605 -0.0661 0.7479
vn 0.8854 -0.4393 0.1519
vn 0.9992 0.0377 0.0091
vn 0.9975 -0.0700 0.0122
vn -0.0214 0.4384 -0.8985
vn 0.0082 0.6674 -0.7447
vn 0.0041 0.5698 -0.8218
vn 0.0006 -1.0000 -0.0075
vn -0.2806 -0.7603 -0.5858
vn 0.2710 -0.9316 0.2422
vn 0.6474 0.6731 -0.3575
vn 0.4437 0.7340 -0.5142
vn 0.5141 0.7344 -0.4431
vn -0.8973 0.4409 0.0204
vn -0.7448 0.6672 -0.0090
vn -0.8217 0.5698 -0.0049
vn -0.6474 0.6731 0.3575
vn -0.4437 0.7340 0.5142
vn -0.5141 0.7344 0.4431
vn 0.0214 0.4384 0.8985
vn -0.0082 0.6674 0.7447
vn -0.0041 0.5698 0.8218
vn 0.5735 0.5848 0.5737
vn 0.4437 0.7340 0.5142
vn 0.4938 0.6541 0.5730
vn 0.8973 0.4409 -0.0204
vn 0.7448 0.6672 0.0090
vn 0.8217 0.5698 0.0049
vn -0.0011 1.0000 0.0054
vn 0.0115 0.9999 0.0014
vn 0.4545 0.8899 0.0386
vn -0.5735 0.5848 -0.5737
vn -0.4437 0.7340 -0.5142
vn -0.4938 0.6541 -0.5730
vn 0.6630 -0.0583 -0.7463
vn -0.6287 -0.5832 -0.5144
vn -0.8085 -0.5821 0.0868
vn 0.0854 -0.5757 0.8132
vn 0.6287 -0.5832 0.5144
vn 0.7479 -0.0661 -0.6605
vn 0.8085 -0.5821 -0.0868
vn 0.4096 0.4094 -0.8152
vn 0.6633 0.0409 -0.7472
vn -0.3674 0.3265 -0.8708
vn -0.8438 0.3375 -0.4173
vn -0.8712 0.3265 0.3665
vn -0.4096 0.4094 0.8152
vn -0.4168 0.3380 0.8438
vn 0.3674 0.3265 0.8708
vn 0.8438 0.3375 0.4173
vn 0.8712 0.3265 -0.3665
vn 0.7470 0.0399 -0.6637
vn 0.0314 0.8766 -0.4802
vn -0.3083 0.8811 -0.3587
vn -0.1133 0.8696 -0.4806
vn -0.4787 0.8774 -0.0314
vn -0.4231 0.8790 -0.2200
vn -0.3567 0.8837 0.3031
vn -0.4807 0.8696 0.1125
vn -0.0314 0.8766 0.4802
vn 0.1133 0.8696 0.4806
vn 0.4231 0.8790 0.2200
vn 0.4807 0.8696 -0.1125
vn 0.0044 -0.9994 -0.0356
vn -0.4613 -0.2154 -0.8607
vn 0.4550 -0.8326 0.3157
vn -0.0043 0.9994 -0.0356
vn 0.0359 -0.9573 -0.2867
vn 0.4643 0.2200 -0.8579
vn -0.0783 -0.9964 -0.0323
vn -0.3092 0.2918 -0.9051
vn -0.8699 0.2594 -0.4195
vn -0.0420 -0.9977 0.0526
vn -0.9164 0.2772 0.2887
vn -0.0359 -0.9573 0.2867
vn -0.4643 0.2200 0.8579
vn 0.0783 -0.9964 0.0323
vn 0.3092 0.2918 0.9051
vn 0.8699 0.2594 0.4195
vn -0.0304 0.9994 0.0176
vn -0.3011 0.6937 0.6543
vn 0.9101 0.1856 0.3704
vn 0.2501 0.6416 -0.7251
vn 0.0324 -0.9993 -0.0188
vn -0.2897 -0.7209 -0.6295
vn 0.8043 0.3735 -0.4621
vn 0.2973 -0.7628 0.5743
vn -0.6108 -0.7240 0.3205
vn -0.0386 -0.9990 -0.0222
vn -0.8168 0.3210 -0.4793
vn 0.3890 -0.7519 0.5323
vn 1.0000 -0.0000 -0.0000
vn -1.0000 -0.0000 -0.0000
vn -0.0000 -0.0000 -1.0000
vn -0.0000 -0.0000 1.0000
vn -0.0000 -1.0000 -0.0000
vn -0.0000 1.0000 -0.0000
vn 0.5000 0.0154 0.8659
vn -0.4998 0.0210 0.8659
vn -0.9999 0.0112 -0.0001
vn -0.9662 0.0664 0.2490
vn -0.5902 0.8073 -0.0000
vn -0.9999 0.0112 -0.0000
vn -0.8715 0.0275 0.4896
vn -0.5816 0.7703 0.2616
vn -0.7123 0.0664 0.6988
vn -0.4999 0.0212 0.8658
vn -0.3786 0.7790 0.4998
vn -0.1528 0.8073 0.5700
vn -0.2488 0.0664 0.9663
vn 0.0914 0.7571 0.6468
vn 0.2491 0.0664 0.9662
vn -0.0000 0.0213 0.9998
vn 0.5000 0.0155 0.8659
vn 0.7124 0.0664 0.6986
vn 0.5816 0.7703 0.2616
vn 0.3786 0.7790 0.4998
vn 0.9663 0.0664 0.2488
vn 0.5902 0.8073 -0.0000
vn 0.9662 0.0664 -0.2490
vn 0.9999 0.0164 -0.0000
vn 0.8715 0.0275 -0.4896
vn 0.5816 0.7703 -0.2616
vn 0.7123 0.0664 -0.6988
vn 0.5000 0.0155 -0.8659
vn 0.3786 0.7790 -0.4998
vn 0.1527 0.8073 -0.5700
vn 0.2488 0.0664 -0.9663
vn -0.0914 0.7571 -0.6468
vn -0.2491 0.0664 -0.9662
vn -0.0000 0.0213 -0.9998
vn -0.4999 0.0179 -0.8659
vn -0.7125 0.0664 -0.6986
vn -0.5816 0.7703 -0.2616
vn -0.3786 0.7790 -0.4998
vn -0.9663 0.0664 -0.2488
vn 0.1865 0.9717 -0.1453
vn 0.1356 0.9905 -0.0215
vn 0.0440 0.9948 -0.0915
vn -0.0030 0.9946 -0.1041
vn -0.0844 0.9923 -0.0907
vn -0.1288 0.9901 -0.0562
vn -0.1938 0.9691 0.1525
vn -0.1355 0.9905 0.0215
vn -0.0440 0.9948 0.0915
vn 0.0030 0.9946 0.1041
vn 0.0844 0.9923 0.0907
vn 0.1327 0.9895 0.0572
vn 0.1543 0.9395 0.3057
vn 0.1330 0.9895 0.0573
vn -0.1543 0.9395 -0.3057
vn -0.9999 0.0111 -0.0001
vn -0.9663 0.0663 -0.2488
vn -0.8717 0.0273 -0.4892
vn -0.8717 0.0273 -0.4893
vn -0.7124 0.0663 -0.6986
vn -0.4999 0.0178 -0.8659
vn -0.2490 0.0663 -0.9662
vn -0.0000 0.0212 -0.9998
vn 0.2488 0.0663 -0.9663
vn 0.5000 0.0154 -0.8659
vn 0.7123 0.0663 -0.6988
vn 0.8716 0.0274 -0.4895
vn 0.9662 0.0663 -0.2490
vn 0.9999 0.0163 -0.0001
vn 0.9999 0.0163 -0.0000
vn 0.9663 0.0663 0.2488
vn 0.8720 0.0211 0.4891
vn 0.8720 0.0212 0.4891
vn 0.7124 0.0663 0.6986
vn 0.2490 0.0663 0.9662
vn -0.0000 0.0212 0.9998
vn -0.4999 0.0210 0.8658
vn -0.4999 0.0211 0.8658
vn -0.7123 0.0663 0.6988
vn -0.8716 0.0273 0.4895
vn -0.8716 0.0274 0.4894
vn -0.9662 0.0663 0.2490
vn -0.8717 0.0274 -0.4892
vn 0.4999 0.0154 -0.8659
vn 0.8715 0.0273 -0.4895
vn 0.8721 0.0211 0.4889
vn 0.4999 0.0155 -0.8660
vn 0.8720 0.0212 0.4890
vn 0.4999 0.0154 0.8660
vn 0.0001 0.0213 0.9998
vn -0.5000 0.0211 0.8658
vn -0.4998 0.0211 0.8659
vn -0.8715 0.0273 0.4896
vn -0.9999 0.0111 -0.0000
vn -0.5000 0.0178 -0.8658
vn 0.4999 0.0154 -0.8660
vn -0.8717 0.0275 -0.4893
vn -0.1541 0.9398 -0.3049
vn 0.1541 0.9397 0.3052
vn 0.1328 0.9895 0.0572
vn 0.1866 0.9716 -0.1454
vn 0.1867 0.9716 -0.1454
vn 0.0441 0.9948 -0.0916
vn -0.1541 0.9398 -0.3052
vn -0.0030 0.9946 -0.1042
vn -0.1541 0.9398 -0.3050
vn -0.0844 0.9923 -0.0908
vn -0.1289 0.9901 -0.0563
vn -0.1356 0.9905 0.0215
vn -0.1939 0.9691 0.1526
vn -0.0441 0.9948 0.0916
vn 0.1542 0.9396 0.3055
vn 0.0030 0.9946 0.1042
vn 0.1542 0.9397 0.3053
vn 0.0844 0.9923 0.0908
vn 0.1331 0.9895 0.0573
vn 0.1868 0.9716 -0.1455
vn -0.1542 0.9396 -0.3055
vn -0.1542 0.9397 -0.3052
vn -0.1941 0.9690 0.1528
vn 0.1543 0.9395 0.3058
vn -0.1543 0.9396 -0.3056
vt 0.353761 0.653935
vt 0.353761 0.794788
vt 0.510230 0.653935
vt 0.873855 0.854537
vt 0.869989 0.985840
vt 0.873855 0.985641
vt 0.871891 0.836368
vt 0.869989 0.854736
vt 0.870137 0.210711
vt 0.860687 0.324534
vt 0.864574 0.324534
vt 0.869577 0.191752
vt 0.866250 0.210711
vt 0.751377 0.743731
vt 0.735780 0.808842
vt 0.739667 0.808842
vt 0.751936 0.724772
vt 0.747490 0.743731
vt 0.746373 0.610949
vt 0.748049 0.724772
vt 0.868025 0.993834
vt 0.871891 0.993635
vt 0.510855 0.838927
vt 0.496801 0.824873
vt 0.368440 0.824873
vt 0.367816 0.808842
vt 0.496176 0.808842
vt 0.510230 0.794788
vt 0.496176 0.639881
vt 0.367816 0.639881
vt 0.868025 0.836568
vt 0.865691 0.191752
vt 0.742486 0.610949
vt 0.354386 0.838927
vt 0.354386 0.979780
vt 0.368440 0.993834
vt 0.496801 0.993834
vt 0.510855 0.979780
vt 0.502632 0.307075
vt 0.473069 0.437449
vt 0.500765 0.436420
vt 0.500848 0.285816
vt 0.474790 0.304355
vt 0.502485 0.303327
vt 0.154397 0.332645
vt 0.125154 0.445935
vt 0.152965 0.444931
vt 0.153096 0.310695
vt 0.126482 0.329914
vt 0.154293 0.328910
vt 0.676397 0.668320
vt 0.718072 0.605537
vt 0.690261 0.604533
vt 0.674871 0.689399
vt 0.703878 0.672188
vt 0.676068 0.671184
vt 0.676199 0.805420
vt 0.702578 0.694138
vt 0.674767 0.693134
vt 0.471151 0.308883
vt 0.453288 0.424185
vt 0.469316 0.436032
vt 0.008196 0.835239
vt 0.008196 0.976597
vt 0.167476 0.835239
vt 0.326010 0.992850
vt 0.329603 0.970793
vt 0.318054 0.980449
vt 0.122831 0.334257
vt 0.105716 0.431884
vt 0.121427 0.444448
vt 0.122891 0.330290
vt 0.105716 0.319165
vt 0.106657 0.333500
vt 0.181837 0.962865
vt 0.204573 0.836617
vt 0.193992 0.826788
vt 0.706273 0.690779
vt 0.723449 0.679655
vt 0.707446 0.672921
vt 0.707737 0.804937
vt 0.722244 0.697893
vt 0.706333 0.694747
vt 0.197213 0.955800
vt 0.208174 0.968911
vt 0.315064 0.978459
vt 0.469566 0.287710
vt 0.454577 0.309596
vt 0.471172 0.304879
vt 0.007601 0.978873
vt 0.006166 0.975408
vt 0.504386 0.305154
vt 0.024592 0.818002
vt 0.021127 0.819437
vt 0.023403 0.820032
vt 0.156227 0.330585
vt 0.169506 0.836428
vt 0.168070 0.832963
vt 0.168070 0.978873
vt 0.169506 0.975408
vt 0.167476 0.976597
vt 0.672937 0.691074
vt 0.021127 0.992399
vt 0.024592 0.993834
vt 0.023403 0.991804
vt 0.469235 0.439060
vt 0.472830 0.440152
vt 0.474936 0.308103
vt 0.472706 0.284247
vt 0.473153 0.286844
vt 0.126586 0.333649
vt 0.124956 0.308834
vt 0.121718 0.312431
vt 0.125286 0.311699
vt 0.704208 0.669324
vt 0.702682 0.690403
vt 0.707764 0.807677
vt 0.704010 0.806424
vt 0.704192 0.808842
vt 0.331474 0.967348
vt 0.328175 0.967498
vt 0.340824 0.845174
vt 0.338834 0.848165
vt 0.342054 0.848897
vt 0.327723 0.831755
vt 0.327873 0.835053
vt 0.331169 0.833625
vt 0.217993 0.823516
vt 0.220983 0.825506
vt 0.221715 0.822286
vt 0.207872 0.836467
vt 0.206444 0.833171
vt 0.195223 0.958790
vt 0.193992 0.955067
vt 0.208324 0.972210
vt 0.204878 0.970339
vt 0.314331 0.981679
vt 0.151079 0.993834
vt 0.152268 0.991804
vt 0.154545 0.819437
vt 0.152268 0.820032
vt 0.007601 0.832963
vt 0.500525 0.439123
vt 0.500401 0.283219
vt 0.152767 0.307830
vt 0.721585 0.607312
vt 0.676381 0.807838
vt 0.467273 0.446575
vt 0.342054 0.977176
vt 0.340398 0.980821
vt 0.337552 0.821174
vt 0.341197 0.822830
vt 0.195649 0.823143
vt 0.182822 0.966746
vt 0.722507 0.693989
vt 0.322129 0.993834
vt 0.470829 0.447817
vt 0.498524 0.446789
vt 0.454886 0.313506
vt 0.106920 0.337404
vt 0.723449 0.792374
vt 0.453288 0.295815
vt 0.468928 0.285107
vt 0.121207 0.309526
vt 0.707957 0.670016
vt 0.154545 0.992399
vt 0.151079 0.818002
vt 0.006166 0.836428
vt 0.779805 0.185785
vt 0.783551 0.184576
vt 0.779805 0.120518
vt 0.522562 0.670800
vt 0.522562 0.796350
vt 0.660605 0.670800
vt 0.857849 0.684438
vt 0.849344 0.801736
vt 0.857849 0.801298
vt 0.856103 0.668288
vt 0.849344 0.684877
vt 0.887221 0.448896
vt 0.877546 0.549583
vt 0.886091 0.549262
vt 0.886091 0.432074
vt 0.878676 0.449217
vt 0.290928 0.387017
vt 0.273949 0.445674
vt 0.282495 0.445380
vt 0.290844 0.370158
vt 0.282382 0.387312
vt 0.282495 0.270133
vt 0.282299 0.370452
vt 0.847599 0.808842
vt 0.856103 0.808403
vt 0.661230 0.855792
vt 0.648737 0.843299
vt 0.535680 0.843299
vt 0.535055 0.808842
vt 0.648112 0.808842
vt 0.660605 0.796350
vt 0.648112 0.658307
vt 0.535055 0.658307
vt 0.847599 0.668727
vt 0.877546 0.432395
vt 0.273949 0.270428
vt 0.523187 0.855792
vt 0.523187 0.981342
vt 0.535680 0.993834
vt 0.648737 0.993834
vt 0.661230 0.981342
vt 0.823803 0.352087
vt 0.813146 0.357384
vt 0.813157 0.371083
vt 0.465594 0.190939
vt 0.475341 0.184230
vt 0.464141 0.190811
vt 0.476278 0.172435
vt 0.475885 0.184515
vt 0.812308 0.358578
vt 0.463971 0.165330
vt 0.454125 0.171234
vt 0.465381 0.165491
vt 0.822992 0.351473
vt 0.454225 0.184230
vt 0.454099 0.185240
vt 0.505708 0.051084
vt 0.506299 0.063075
vt 0.506248 0.049944
vt 0.823783 0.376961
vt 0.834454 0.371118
vt 0.834470 0.357311
vt 0.475434 0.171288
vt 0.812308 0.369978
vt 0.453288 0.183834
vt 0.824615 0.351473
vt 0.623657 0.100380
vt 0.622824 0.073677
vt 0.621523 0.091323
vt 0.624959 0.082734
vt 0.624490 0.099912
vt 0.624490 0.074146
vt 0.621991 0.074146
vt 0.621991 0.099912
vt 0.798268 0.101621
vt 0.798268 0.073045
vt 0.792958 0.073045
vt 0.792958 0.101622
vt 0.928548 0.111624
vt 0.927715 0.084921
vt 0.926414 0.102566
vt 0.929849 0.093978
vt 0.929381 0.111155
vt 0.929381 0.085389
vt 0.926882 0.085389
vt 0.926882 0.111155
vt 0.011475 0.098386
vt 0.011475 0.069810
vt 0.006166 0.069810
vt 0.006166 0.098386
vt 0.694108 0.478149
vt 0.672624 0.506148
vt 0.686130 0.538752
vt 0.274767 0.140796
vt 0.278894 0.132712
vt 0.274714 0.132138
vt 0.274194 0.149965
vt 0.278340 0.146349
vt 0.274540 0.159046
vt 0.274365 0.167396
vt 0.278360 0.162837
vt 0.278894 0.173727
vt 0.275205 0.174472
vt 0.279495 0.178863
vt 0.705073 0.289144
vt 0.701061 0.290917
vt 0.704788 0.294434
vt 0.706052 0.282079
vt 0.705931 0.273728
vt 0.702289 0.260985
vt 0.702064 0.277471
vt 0.705931 0.255476
vt 0.701904 0.247342
vt 0.705074 0.239280
vt 0.706044 0.246820
vt 0.704734 0.233364
vt 0.701001 0.236646
vt 0.621887 0.247029
vt 0.629942 0.237135
vt 0.626493 0.239051
vt 0.247961 0.278776
vt 0.243355 0.280273
vt 0.246554 0.283524
vt 0.244529 0.271563
vt 0.248245 0.272159
vt 0.245053 0.259427
vt 0.248864 0.255166
vt 0.249105 0.264098
vt 0.249136 0.245949
vt 0.248245 0.237100
vt 0.243438 0.227400
vt 0.244753 0.241891
vt 0.275825 0.124612
vt 0.279495 0.125411
vt 0.679041 0.283936
vt 0.678373 0.275949
vt 0.668731 0.285199
vt 0.682495 0.262928
vt 0.688397 0.256072
vt 0.679554 0.246489
vt 0.671454 0.231178
vt 0.683855 0.243583
vt 0.655305 0.226629
vt 0.667913 0.235313
vt 0.641405 0.228940
vt 0.654544 0.232049
vt 0.630612 0.245114
vt 0.640252 0.235871
vt 0.626488 0.258142
vt 0.620586 0.264998
vt 0.629429 0.274582
vt 0.637529 0.289893
vt 0.625128 0.277487
vt 0.653678 0.294441
vt 0.641070 0.285758
vt 0.667578 0.292131
vt 0.654437 0.289003
vt 0.635258 0.280713
vt 0.673725 0.240358
vt 0.694108 0.543359
vt 0.703007 0.545743
vt 0.712220 0.545743
vt 0.721119 0.543359
vt 0.729098 0.538752
vt 0.735612 0.532238
vt 0.740219 0.524259
vt 0.742603 0.515360
vt 0.742603 0.506147
vt 0.740218 0.497248
vt 0.735612 0.489270
vt 0.729097 0.482755
vt 0.721119 0.478149
vt 0.712220 0.475765
vt 0.703007 0.475765
vt 0.686129 0.482755
vt 0.679615 0.489270
vt 0.675008 0.497249
vt 0.672624 0.515361
vt 0.675009 0.524260
vt 0.679615 0.532238
vt 0.275425 0.179765
vt 0.706445 0.264651
vt 0.621738 0.251769
vt 0.247855 0.229197
vt 0.246554 0.222800
vt 0.687244 0.269301
s 1
f 2/1/1 1/2/2 5/3/3
f 2/4/1 9/5/4 1/6/2
f 3/7/5 10/8/6 2/4/1
f 4/9/7 11/10/8 3/11/5
f 5/12/3 12/13/9 4/9/7
f 6/14/10 13/15/11 5/16/3
f 7/17/12 14/18/13 6/14/10
f 8/19/14 15/20/15 7/17/12
f 1/6/2 16/21/16 8/22/14
f 14/23/13 15/24/15 16/25/16
f 1/2/2 8/26/14 7/27/12
f 7/27/12 6/28/10 1/2/2
f 6/28/10 5/3/3 1/2/2
f 5/3/3 4/29/7 3/30/5
f 3/30/5 2/1/1 5/3/3
f 2/4/1 10/8/6 9/5/4
f 3/7/5 11/31/8 10/8/6
f 4/9/7 12/13/9 11/10/8
f 5/12/3 13/32/11 12/13/9
f 6/14/10 14/18/13 13/15/11
f 7/17/12 15/20/15 14/18/13
f 8/19/14 16/33/16 15/20/15
f 1/6/2 9/5/4 16/21/16
f 16/25/16 9/34/4 14/23/13
f 9/34/4 10/35/6 14/23/13
f 10/35/6 11/36/8 12/37/9
f 12/37/9 13/38/11 10/35/6
f 13/38/11 14/23/13 10/35/6
f 21/39/17 42/40/18 19/41/19
f 24/42/20 45/43/21 20/44/22
f 27/45/23 49/46/24 23/47/25
f 30/48/26 53/49/27 26/50/28
f 33/51/29 57/52/30 29/53/31
f 36/54/32 61/55/33 32/56/34
f 39/57/35 65/58/36 35/59/37
f 47/60/38 74/61/39 43/62/40
f 22/63/41 18/64/42 31/65/43
f 70/66/44 73/67/45 94/68/46
f 55/69/47 79/70/48 50/71/49
f 54/72/50 87/73/51 82/74/52
f 63/75/53 85/76/54 58/77/55
f 67/78/56 88/79/57 62/80/58
f 71/81/59 91/82/60 66/83/61
f 89/84/62 92/85/63 95/86/64
f 51/87/65 76/88/66 46/89/67
f 17/90/68 18/64/42 19/91/19
f 20/44/22 21/39/17 22/92/41
f 23/93/25 24/94/20 25/95/69
f 26/50/28 27/45/23 28/96/70
f 29/97/31 30/98/26 31/65/43
f 32/99/34 33/100/29 34/101/71
f 35/59/37 36/54/32 37/102/72
f 38/103/73 39/104/35 40/105/74
f 42/40/18 44/106/75 41/107/76
f 46/89/67 48/108/77 45/43/21
f 49/109/24 51/87/65 52/110/78
f 54/72/50 56/111/79 53/49/27
f 57/112/30 59/113/80 60/114/81
f 62/80/58 64/115/82 61/55/33
f 65/58/36 67/78/56 68/116/83
f 70/117/44 72/118/84 69/119/85
f 73/67/45 74/120/39 75/121/86
f 76/122/66 77/123/87 78/124/88
f 79/125/48 80/126/89 81/127/90
f 82/128/52 83/129/91 84/130/92
f 85/76/54 86/131/93 87/132/51
f 88/133/57 89/84/62 90/134/94
f 91/135/60 92/85/63 93/136/95
f 94/68/46 95/86/64 96/137/96
f 38/103/73 18/64/42 17/90/68
f 40/105/74 35/138/37 37/139/72
f 37/139/72 32/99/34 34/101/71
f 34/101/71 29/97/31 31/65/43
f 31/65/43 26/140/28 28/141/70
f 28/141/70 23/93/25 25/95/69
f 25/95/69 20/142/22 22/63/41
f 22/63/41 19/91/19 18/64/42
f 42/40/18 17/143/68 19/41/19
f 45/43/21 21/39/17 20/44/22
f 48/108/77 43/62/40 42/40/18
f 49/109/24 24/42/20 23/144/25
f 45/43/21 51/87/65 46/89/67
f 53/49/27 27/45/23 26/50/28
f 56/111/79 50/71/49 49/46/24
f 57/112/30 30/48/26 29/145/31
f 60/114/81 54/72/50 53/49/27
f 61/55/33 33/51/29 32/56/34
f 64/115/82 58/146/55 57/52/30
f 65/58/36 36/54/32 35/59/37
f 61/55/33 67/78/56 62/80/58
f 69/119/85 39/57/35 38/147/73
f 72/118/84 66/83/61 65/58/36
f 70/148/44 41/107/76 44/106/75
f 43/149/40 73/67/45 44/150/75
f 76/88/66 47/60/38 46/89/67
f 78/124/88 75/121/86 74/120/39
f 50/151/49 81/127/90 51/152/65
f 76/122/66 80/126/89 77/123/87
f 82/74/52 55/69/47 54/72/50
f 84/130/92 80/126/89 79/125/48
f 58/77/55 87/132/51 59/153/80
f 87/132/51 83/129/91 82/128/52
f 88/133/57 63/75/53 62/154/58
f 90/134/94 86/131/93 85/76/54
f 66/83/61 93/155/95 67/78/56
f 88/133/57 92/85/63 89/84/62
f 94/68/46 71/156/59 70/66/44
f 96/137/96 92/85/63 91/135/60
f 95/86/64 73/67/45 75/121/86
f 17/143/68 69/157/85 38/158/73
f 21/39/17 48/108/77 42/40/18
f 24/42/20 52/110/78 45/43/21
f 27/45/23 56/111/79 49/46/24
f 30/48/26 60/114/81 53/49/27
f 33/51/29 64/115/82 57/52/30
f 36/54/32 68/116/83 61/55/33
f 39/57/35 72/118/84 65/58/36
f 47/60/38 78/159/88 74/61/39
f 18/64/42 40/105/74 37/139/72
f 37/139/72 34/101/71 18/64/42
f 34/101/71 31/65/43 18/64/42
f 31/65/43 28/141/70 25/95/69
f 25/95/69 22/63/41 31/65/43
f 70/66/44 44/150/75 73/67/45
f 55/69/47 84/160/92 79/70/48
f 54/72/50 59/113/80 87/73/51
f 63/75/53 90/134/94 85/76/54
f 67/78/56 93/155/95 88/79/57
f 71/81/59 96/161/96 91/82/60
f 95/86/64 75/121/86 89/84/62
f 75/121/86 77/123/87 89/84/62
f 77/123/87 80/126/89 83/129/91
f 83/129/91 86/131/93 77/123/87
f 86/131/93 89/84/62 77/123/87
f 51/87/65 81/162/90 76/88/66
f 42/40/18 43/62/40 44/106/75
f 46/89/67 47/60/38 48/108/77
f 49/109/24 50/163/49 51/87/65
f 54/72/50 55/69/47 56/111/79
f 57/112/30 58/164/55 59/113/80
f 62/80/58 63/165/53 64/115/82
f 65/58/36 66/83/61 67/78/56
f 70/117/44 71/81/59 72/118/84
f 38/103/73 40/105/74 18/64/42
f 40/105/74 39/104/35 35/138/37
f 37/139/72 36/166/32 32/99/34
f 34/101/71 33/100/29 29/97/31
f 31/65/43 30/98/26 26/140/28
f 28/141/70 27/167/23 23/93/25
f 25/95/69 24/94/20 20/142/22
f 22/63/41 21/168/17 19/91/19
f 42/40/18 41/107/76 17/143/68
f 45/43/21 48/108/77 21/39/17
f 48/108/77 47/60/38 43/62/40
f 49/109/24 52/110/78 24/42/20
f 45/43/21 52/110/78 51/87/65
f 53/49/27 56/111/79 27/45/23
f 56/111/79 55/69/47 50/71/49
f 57/112/30 60/114/81 30/48/26
f 60/114/81 59/113/80 54/72/50
f 61/55/33 64/115/82 33/51/29
f 64/169/82 63/170/53 58/171/55
f 65/58/36 68/116/83 36/54/32
f 61/55/33 68/116/83 67/78/56
f 69/119/85 72/118/84 39/57/35
f 72/118/84 71/81/59 66/83/61
f 70/148/44 69/157/85 41/107/76
f 43/149/40 74/120/39 73/67/45
f 76/88/66 78/159/88 47/60/38
f 78/124/88 77/123/87 75/121/86
f 50/151/49 79/125/48 81/127/90
f 76/122/66 81/127/90 80/126/89
f 82/74/52 84/160/92 55/69/47
f 84/130/92 83/129/91 80/126/89
f 58/77/55 85/76/54 87/132/51
f 87/132/51 86/131/93 83/129/91
f 88/133/57 90/134/94 63/75/53
f 90/134/94 89/84/62 86/131/93
f 66/83/61 91/82/60 93/155/95
f 88/133/57 93/136/95 92/85/63
f 94/68/46 96/137/96 71/156/59
f 96/137/96 95/86/64 92/85/63
f 95/86/64 94/68/46 73/67/45
f 17/143/68 41/107/76 69/157/85
f 98/172/97 97/173/98 101/174/99
f 98/175/97 105/176/100 97/177/98
f 99/178/101 106/179/102 98/175/97
f 100/180/103 107/181/104 99/182/101
f 101/183/99 108/184/105 100/180/103
f 102/185/106 109/186/107 101/187/99
f 103/188/108 110/189/109 102/185/106
f 104/190/110 111/191/111 103/188/108
f 97/177/98 112/192/112 104/193/110
f 110/194/109 111/195/111 112/196/112
f 97/173/98 104/197/110 103/198/108
f 103/198/108 102/199/106 97/173/98
f 102/199/106 101/174/99 97/173/98
f 101/174/99 100/200/103 99/201/101
f 99/201/101 98/172/97 101/174/99
f 98/175/97 106/179/102 105/176/100
f 99/178/101 107/202/104 106/179/102
f 100/180/103 108/184/105 107/181/104
f 101/183/99 109/203/107 108/184/105
f 102/185/106 110/189/109 109/186/107
f 103/188/108 111/191/111 110/189/109
f 104/190/110 112/204/112 111/191/111
f 97/177/98 105/176/100 112/192/112
f 112/196/112 105/205/100 110/194/109
f 105/205/100 106/206/102 110/194/109
f 106/206/102 107/207/104 108/208/105
f 108/208/105 109/209/107 106/206/102
f 109/209/107 110/194/109 106/206/102
f 122/210/113 120/211/114 118/212/115
f 114/213/116 115/214/117 113/215/118
f 118/216/115 115/214/117 116/217/119
f 119/218/120 118/212/115 120/211/114
f 120/219/114 121/220/121 119/221/120
f 120/211/114 122/210/113 121/222/121
f 113/215/118 123/223/122 124/224/123
f 113/225/118 124/226/123 114/227/116
f 121/220/121 123/223/122 115/214/117
f 118/212/115 116/228/119 122/210/113
f 116/228/119 114/229/116 122/210/113
f 114/229/116 124/230/123 122/210/113
f 114/213/116 116/217/119 115/214/117
f 118/216/115 117/231/124 115/214/117
f 119/218/120 117/232/124 118/212/115
f 124/233/123 123/223/122 121/220/121
f 121/234/121 122/210/113 124/230/123
f 123/223/122 113/215/118 115/214/117
f 115/214/117 117/231/124 119/221/120
f 119/221/120 121/220/121 115/214/117
s 0
f 125/235/125 126/235/125 127/235/125
f 125/235/125 127/235/125 128/235/125
f 129/236/126 130/236/126 131/236/126
f 129/236/126 131/236/126 132/236/126
f 133/237/127 134/237/127 135/237/127
f 133/237/127 135/237/127 136/237/127
f 137/238/128 138/238/128 139/238/128
f 137/238/128 139/238/128 140/238/128
f 141/239/129 142/240/129 143/241/129
f 141/239/129 143/241/129 144/242/129
f 145/243/130 146/244/130 147/245/130
f 145/243/130 147/245/130 148/246/130
f 149/247/125 150/247/125 151/247/125
f 149/247/125 151/247/125 152/247/125
f 153/248/126 154/248/126 155/248/126
f 153/248/126 155/248/126 156/248/126
f 157/249/127 158/249/127 159/249/127
f 157/249/127 159/249/127 160/249/127
f 161/250/128 162/250/128 163/250/128
f 161/250/128 163/250/128 164/250/128
f 165/251/129 166/252/129 167/253/129
f 165/251/129 167/253/129 168/254/129
f 169/255/130 170/256/130 171/257/130
f 169/255/130 171/257/130 172/258/130
f 181/259/131 177/260/132 173/261/133
s 1
f 174/262/134 197/263/135 173/264/136
f 175/265/137 198/266/138 174/262/134
f 176/267/139 198/266/138 175/265/137
f 177/268/140 199/269/141 176/267/139
f 177/268/140 200/270/142 199/269/141
f 178/271/143 201/272/144 200/270/142
f 180/273/145 201/274/144 179/275/146
f 181/276/147 201/274/144 180/273/145
f 182/277/148 203/278/149 202/279/150
f 184/280/151 204/281/152 203/278/149
f 186/282/153 204/281/152 185/283/154
f 187/284/155 205/285/156 186/282/153
f 188/286/157 205/287/156 187/288/155
f 189/289/158 206/290/159 188/291/157
f 189/289/158 207/292/160 206/290/159
f 190/293/161 208/294/162 207/292/160
f 192/295/163 208/294/162 191/296/164
f 193/297/165 208/294/162 192/295/163
f 194/298/166 210/299/167 209/300/168
f 196/301/169 197/263/135 210/302/167
f 198/303/138 212/304/170 211/305/171
f 198/303/138 213/306/172 212/304/170
f 200/307/142 214/308/173 213/306/172
f 202/309/150 214/308/173 201/310/144
f 203/311/149 215/312/174 202/309/150
f 204/313/152 216/314/175 203/311/149
f 205/287/156 218/315/176 217/316/177
f 205/287/156 219/317/178 218/315/176
f 207/318/160 220/319/179 219/317/178
f 209/320/168 220/319/179 208/321/162
f 210/322/167 221/323/180 209/320/168
f 197/324/135 222/325/181 210/322/167
s 0
f 224/326/182 222/325/183 223/327/184
f 173/261/185 196/328/186 195/329/187
f 195/329/188 194/330/189 193/331/190
f 193/331/190 192/332/191 191/333/192
f 191/333/192 190/334/193 189/335/194
f 189/335/194 188/336/195 187/337/196
f 187/337/196 186/338/197 185/339/198
f 185/339/199 184/340/200 183/341/201
f 183/341/202 182/342/203 181/259/131
f 181/259/131 180/343/204 179/344/205
f 179/344/205 178/345/143 177/260/206
f 177/260/207 176/346/208 175/347/209
f 175/347/210 174/348/211 173/261/185
f 173/261/136 195/329/212 193/331/190
f 193/331/190 191/333/164 189/335/158
f 189/335/213 187/337/214 185/339/199
f 185/339/199 183/341/215 189/335/216
f 183/341/217 181/259/218 189/335/194
f 181/259/147 179/344/219 177/260/220
f 177/260/221 175/347/222 173/261/185
f 173/261/223 193/331/190 181/259/131
f 193/331/224 189/335/225 181/259/131
s 1
f 174/262/134 198/266/138 197/263/135
f 176/267/139 199/269/141 198/266/138
f 177/268/140 178/271/143 200/270/142
f 178/271/143 179/349/146 201/272/144
f 181/276/147 202/279/150 201/274/144
f 181/276/147 182/277/148 202/279/150
f 182/277/148 183/350/202 203/278/149
f 183/350/202 184/280/151 203/278/149
f 184/280/151 185/283/154 204/281/152
f 186/282/153 205/285/156 204/281/152
f 188/286/157 206/351/159 205/287/156
f 189/289/158 190/293/161 207/292/160
f 190/293/161 191/296/164 208/294/162
f 193/297/165 209/300/168 208/294/162
f 193/297/165 194/298/166 209/300/168
f 194/298/166 195/352/226 210/299/167
f 195/352/226 196/353/169 210/299/167
f 196/301/169 173/264/136 197/263/135
f 197/324/135 198/303/138 211/305/171
f 198/303/138 199/354/141 213/306/172
f 199/354/141 200/307/142 213/306/172
f 200/307/142 201/310/144 214/308/173
f 202/309/150 215/312/174 214/308/173
f 203/311/149 216/314/175 215/312/174
f 204/313/152 217/316/177 216/314/175
f 204/313/152 205/287/156 217/316/177
f 205/287/156 206/351/159 219/317/178
f 206/351/159 207/318/160 219/317/178
f 207/318/160 208/321/162 220/319/179
f 209/320/168 221/323/180 220/319/179
f 210/322/167 222/325/181 221/323/180
f 197/324/135 211/305/171 222/325/181
f 214/308/173 215/312/174 223/327/227
f 220/319/179 221/323/180 224/326/228
s 0
f 222/325/229 211/305/171 212/304/230
f 212/304/231 213/306/232 223/327/233
f 213/306/232 214/308/234 223/327/235
f 223/327/235 215/312/236 216/314/237
f 216/314/237 217/316/238 218/315/239
f 218/315/239 219/317/240 224/326/241
f 219/317/240 220/319/242 224/326/228
f 224/326/243 221/323/244 222/325/229
f 222/325/245 212/304/246 223/327/247
f 223/327/248 216/314/237 218/315/249
f 218/315/249 224/326/250 223/327/251
