# DX12 UV variant: V already converted to 1-V; do NOT flip V again in the loader/shader.
# Metres; Y up; local part pivot; see assembly.json
mtllib S07_Shared.mtl
usemtl S07_Shared
# Blender 4.2.20 LTS
# www.blender.org
o S07_Body_LOD3.001
v 0.441909 0.054178 -0.474578
v -0.440863 0.055602 -0.476834
v -0.515785 0.055127 -0.400435
v -0.536449 0.073951 0.407358
v -0.441909 0.054178 0.474578
v 0.440863 0.055602 0.476834
v 0.515785 0.055127 0.400435
v 0.536449 0.073951 -0.407358
v 0.457452 0.114946 -0.506187
v -0.457409 0.116043 -0.506475
v -0.545960 0.113857 -0.417105
v -0.457452 0.114946 0.506187
v 0.457409 0.116043 0.506475
v 0.545960 0.113857 0.417105
v 0.450010 0.614020 -0.498516
v -0.451961 0.616012 -0.496028
v -0.539183 0.611552 -0.412422
v -0.536507 0.614066 0.414296
v -0.450010 0.614020 0.498516
v 0.451961 0.616012 0.496028
v 0.539183 0.611552 0.412422
v 0.536507 0.614066 -0.414296
v 0.403106 0.621242 -0.446414
v -0.403020 0.620300 -0.445990
v -0.486720 0.621917 -0.363167
v -0.486300 0.621252 0.363433
v -0.403106 0.621242 0.446414
v 0.403020 0.620300 0.445990
v 0.486720 0.621917 0.363167
v 0.486300 0.621252 -0.363433
v 0.400179 0.119192 -0.443121
v -0.402953 0.117848 -0.441363
v -0.483538 0.120487 -0.360587
v -0.481969 0.119192 0.362959
v -0.400179 0.119192 0.443121
v 0.402953 0.117848 0.441363
v 0.483538 0.120487 0.360587
v 0.481969 0.119192 -0.362959
v 0.506292 0.032742 -0.448401
v -0.532237 0.049948 -0.450636
v -0.506292 0.032742 0.448401
v 0.532237 0.049948 0.450636
v 0.463685 0.098814 -0.516147
v -0.466842 0.104394 -0.514751
v -0.554507 0.102423 0.422771
v -0.463685 0.098814 0.516147
v 0.466842 0.104394 0.514751
v 0.554507 0.102423 -0.422771
v 0.428499 0.135000 -0.525500
v 0.141500 0.135000 -0.525500
v 0.141500 0.543000 -0.525500
v 0.428499 0.543000 -0.525500
v -0.141500 0.135000 -0.525500
v -0.428499 0.135000 -0.525500
v -0.428499 0.543000 -0.525500
v -0.141500 0.543000 -0.525500
v 0.099001 0.141500 -0.538500
v -0.099001 0.141500 -0.538500
v -0.099001 0.582500 -0.538500
v 0.099001 0.582500 -0.538500
v 0.084000 0.127000 -0.554000
v -0.084000 0.127000 -0.554000
v -0.084000 0.561000 -0.554000
v 0.084000 0.561000 -0.554000
v 0.064499 0.118000 -0.575000
v -0.064499 0.118000 -0.575000
v -0.064499 0.170000 -0.575000
v 0.064499 0.170000 -0.575000
v 0.099500 0.613000 -0.598000
v 0.099500 0.613000 -0.518000
v 0.099500 0.565000 -0.518000
v 0.099500 0.565000 -0.598000
v -0.099500 0.565000 -0.598000
v -0.099500 0.565000 -0.518000
v -0.099500 0.613000 -0.518000
v -0.099500 0.613000 -0.598000
v 0.099500 0.565000 -0.598000
v -0.099500 0.565000 -0.598000
v -0.099500 0.613000 -0.598000
v 0.099500 0.613000 -0.598000
v 0.099500 0.613000 -0.518000
v -0.099500 0.613000 -0.518000
v -0.099500 0.565000 -0.518000
v 0.099500 0.565000 -0.518000
v 0.099500 0.565000 -0.518000
v -0.099500 0.565000 -0.518000
v -0.099500 0.565000 -0.598000
v 0.099500 0.565000 -0.598000
v 0.099500 0.613000 -0.598000
v -0.099500 0.613000 -0.598000
v -0.099500 0.613000 -0.518000
v 0.099500 0.613000 -0.518000
v -0.565500 0.135000 -0.428500
v -0.565500 0.135000 -0.141500
v -0.565500 0.543000 -0.141500
v -0.565500 0.543000 -0.428500
v -0.565500 0.135000 0.141500
v -0.565500 0.135000 0.428500
v -0.565500 0.543000 0.428500
v -0.565500 0.543000 0.141500
v -0.578501 0.141500 -0.099000
v -0.578501 0.141500 0.099000
v -0.578501 0.582500 0.099000
v -0.578501 0.582500 -0.099000
v -0.594000 0.127000 -0.084000
v -0.594000 0.127000 0.084000
v -0.594000 0.561000 0.084000
v -0.594000 0.561000 -0.084000
v -0.615000 0.118000 -0.064500
v -0.615000 0.118000 0.064500
v -0.615000 0.170000 0.064500
v -0.615000 0.170000 -0.064500
v -0.557999 0.613000 -0.099500
v -0.557999 0.613000 0.099500
v -0.557999 0.565000 0.099500
v -0.557999 0.565000 -0.099500
v -0.638000 0.565000 -0.099500
v -0.638000 0.565000 0.099500
v -0.638000 0.613000 0.099500
v -0.638000 0.613000 -0.099500
v -0.557999 0.565000 -0.099500
v -0.638000 0.565000 -0.099500
v -0.638000 0.613000 -0.099500
v -0.557999 0.613000 -0.099500
v -0.557999 0.613000 0.099500
v -0.638000 0.613000 0.099500
v -0.638000 0.565000 0.099500
v -0.557999 0.565000 0.099500
v -0.557999 0.565000 0.099500
v -0.638000 0.565000 0.099500
v -0.638000 0.565000 -0.099500
v -0.557999 0.565000 -0.099500
v -0.557999 0.613000 -0.099500
v -0.638000 0.613000 -0.099500
v -0.638000 0.613000 0.099500
v -0.557999 0.613000 0.099500
v -0.141499 0.543000 0.525500
v -0.428501 0.543000 0.525500
v -0.428501 0.135000 0.525500
v -0.141499 0.135000 0.525500
v 0.428500 0.543000 0.525500
v 0.141500 0.543000 0.525500
v 0.141500 0.135000 0.525500
v 0.428500 0.135000 0.525500
v 0.099000 0.582500 0.538500
v -0.099000 0.582500 0.538500
v -0.099000 0.141500 0.538500
v 0.099000 0.141500 0.538500
v 0.084000 0.561000 0.554000
v -0.084000 0.561000 0.554000
v -0.084000 0.127000 0.554000
v 0.084000 0.127000 0.554000
v 0.064500 0.170000 0.575000
v -0.064500 0.170000 0.575000
v -0.064500 0.118000 0.575000
v 0.064500 0.118000 0.575000
v 0.099500 0.613000 0.518000
v 0.099500 0.613000 0.598000
v 0.099500 0.565000 0.598000
v 0.099500 0.565000 0.518000
v -0.099500 0.565000 0.518000
v -0.099500 0.565000 0.598000
v -0.099500 0.613000 0.598000
v -0.099500 0.613000 0.518000
v 0.099500 0.565000 0.518000
v -0.099500 0.565000 0.518000
v -0.099500 0.613000 0.518000
v 0.099500 0.613000 0.518000
v 0.099500 0.613000 0.598000
v -0.099500 0.613000 0.598000
v -0.099500 0.565000 0.598000
v 0.099500 0.565000 0.598000
v 0.099500 0.565000 0.598000
v -0.099500 0.565000 0.598000
v -0.099500 0.565000 0.518000
v 0.099500 0.565000 0.518000
v 0.099500 0.613000 0.518000
v -0.099500 0.613000 0.518000
v -0.099500 0.613000 0.598000
v 0.099500 0.613000 0.598000
v 0.565500 0.543000 0.141500
v 0.565500 0.543000 0.428500
v 0.565500 0.135000 0.428500
v 0.565500 0.135000 0.141500
v 0.565500 0.543000 -0.428500
v 0.565500 0.543000 -0.141500
v 0.565500 0.135000 -0.141500
v 0.565500 0.135000 -0.428500
v 0.578501 0.582500 -0.099000
v 0.578501 0.582500 0.099000
v 0.578501 0.141500 0.099000
v 0.578501 0.141500 -0.099000
v 0.594000 0.561000 -0.084000
v 0.594000 0.561000 0.084000
v 0.594000 0.127000 0.084000
v 0.594000 0.127000 -0.084000
v 0.615002 0.170000 -0.064500
v 0.615002 0.170000 0.064500
v 0.615002 0.118000 0.064500
v 0.615002 0.118000 -0.064500
v 0.638000 0.613000 -0.099500
v 0.638000 0.613000 0.099500
v 0.638000 0.565000 0.099500
v 0.638000 0.565000 -0.099500
v 0.558000 0.565000 -0.099500
v 0.558000 0.565000 0.099500
v 0.558000 0.613000 0.099500
v 0.558000 0.613000 -0.099500
v 0.638000 0.565000 -0.099500
v 0.558000 0.565000 -0.099500
v 0.558000 0.613000 -0.099500
v 0.638000 0.613000 -0.099500
v 0.638000 0.613000 0.099500
v 0.558000 0.613000 0.099500
v 0.558000 0.565000 0.099500
v 0.638000 0.565000 0.099500
v 0.638000 0.565000 0.099500
v 0.558000 0.565000 0.099500
v 0.558000 0.565000 -0.099500
v 0.638000 0.565000 -0.099500
v 0.638000 0.613000 -0.099500
v 0.558000 0.613000 -0.099500
v 0.558000 0.613000 0.099500
v 0.638000 0.613000 0.099500
v 0.052000 0.297000 -0.573999
v -0.052000 0.297000 -0.573999
v -0.052000 0.317000 -0.573999
v 0.052000 0.317000 -0.573999
v 0.052000 0.371000 -0.573999
v -0.052000 0.371000 -0.573999
v -0.052000 0.391000 -0.573999
v 0.052000 0.391000 -0.573999
v 0.052000 0.445000 -0.573999
v -0.052000 0.445000 -0.573999
v -0.052000 0.465000 -0.573999
v 0.052000 0.465000 -0.573999
v -0.613999 0.297000 -0.052000
v -0.613999 0.297000 0.052000
v -0.613999 0.317000 0.052000
v -0.613999 0.317000 -0.052000
v -0.614000 0.371000 -0.052000
v -0.614000 0.371000 0.052000
v -0.614000 0.391000 0.052000
v -0.614000 0.391000 -0.052000
v -0.614000 0.445000 -0.052000
v -0.614000 0.445000 0.052000
v -0.614000 0.465000 0.052000
v -0.614000 0.465000 -0.052000
v 0.052000 0.317000 0.573999
v -0.052000 0.317000 0.573999
v -0.052000 0.297000 0.573999
v 0.052000 0.297000 0.573999
v 0.052000 0.391000 0.573999
v -0.052000 0.391000 0.573999
v -0.052000 0.371000 0.573999
v 0.052000 0.371000 0.573999
v 0.052000 0.465000 0.573999
v -0.052000 0.465000 0.573999
v -0.052000 0.445000 0.573999
v 0.052000 0.445000 0.573999
v 0.614000 0.317000 -0.052000
v 0.614000 0.317000 0.052000
v 0.614000 0.297000 0.052000
v 0.614000 0.297000 -0.052000
v 0.614000 0.391000 -0.052000
v 0.614000 0.391000 0.052000
v 0.614000 0.371000 0.052000
v 0.614000 0.371000 -0.052000
v 0.613998 0.465000 -0.052000
v 0.613998 0.465000 0.052000
v 0.613998 0.445000 0.052000
v 0.613998 0.445000 -0.052000
vn -0.1848 -0.8422 -0.5065
vn 0.3904 -0.0755 -0.9175
vn 0.1248 -0.7809 -0.6121
vn -0.9306 -0.0579 -0.3615
vn -0.4153 -0.0162 -0.9096
vn -0.8435 -0.4758 0.2493
vn -0.6490 -0.7192 -0.2479
vn 0.1873 -0.7166 0.6718
vn -0.2217 -0.0546 0.9736
vn -0.1224 -0.8949 0.4291
vn 0.9306 -0.0579 0.3615
vn 0.4153 -0.0162 0.9096
vn 0.8435 -0.4758 -0.2493
vn 0.6490 -0.7192 0.2479
vn 0.2660 0.5479 -0.7931
vn 0.6154 0.6220 -0.4842
vn -0.7969 0.5270 -0.2954
vn -0.6154 0.6220 0.4842
vn -0.2660 0.5479 0.7931
vn 0.7969 0.5270 0.2954
vn 0.4422 0.6547 0.6131
vn -0.4422 0.6547 -0.6131
vn -0.2016 0.4503 0.8698
vn -0.7843 0.4668 0.4086
vn 0.8432 0.5061 0.1812
vn 0.7873 0.4292 -0.4427
vn 0.2540 0.4589 -0.8514
vn -0.8432 0.5061 -0.1812
vn -0.4657 0.3652 -0.8060
vn 0.4657 0.3652 0.8060
vn -0.1287 0.3959 0.9092
vn -0.8383 0.4245 0.3422
vn 0.9164 0.3715 0.1488
vn 0.7389 0.3923 -0.5478
vn 0.1287 0.3959 -0.9092
vn -0.3571 0.7908 -0.4971
vn -0.8126 0.5640 -0.1465
vn 0.5513 0.4257 0.7175
vn -0.6454 -0.5658 -0.5131
vn -0.0212 -0.9442 -0.3287
vn 0.0187 -0.9704 0.2408
vn 0.0298 0.8897 -0.4557
vn -0.8043 0.0892 0.5875
vn -0.9463 0.0946 -0.3092
vn 0.6455 -0.5658 0.5131
vn 0.9463 0.0946 0.3092
vn -0.3882 0.1082 0.9152
vn 0.3883 0.1083 -0.9152
vn -0.0000 -0.0000 -1.0000
vn 1.0000 -0.0000 -0.0000
vn -1.0000 -0.0000 -0.0000
vn -0.0000 -0.0000 1.0000
vn -0.0000 -1.0000 -0.0000
vn -0.0000 1.0000 -0.0000
vt 0.440941 0.296606
vt 0.432335 0.436972
vt 0.440942 0.434767
vt 0.006200 0.305268
vt 0.014744 0.317154
vt 0.014785 0.301705
vt 0.009397 0.442800
vt 0.006178 0.318680
vt 0.521074 0.447884
vt 0.529680 0.307517
vt 0.521073 0.309723
vt 0.707839 0.459340
vt 0.699160 0.450161
vt 0.699231 0.463433
vt 0.704568 0.321594
vt 0.707764 0.447800
vt 0.432335 0.294316
vt 0.355582 0.435557
vt 0.007233 0.471005
vt 0.007427 0.608485
vt 0.155399 0.471035
vt 0.699231 0.306773
vt 0.622395 0.321204
vt 0.091340 0.318027
vt 0.606361 0.295930
vt 0.524197 0.296853
vt 0.529680 0.450174
vt 0.606433 0.308933
vt 0.606174 0.461859
vt 0.606579 0.448813
vt 0.622579 0.449001
vt 0.091728 0.303149
vt 0.182955 0.609929
vt 0.189179 0.478081
vt 0.182904 0.472543
vt 0.201998 0.465264
vt 0.196068 0.459042
vt 0.321534 0.623390
vt 0.201859 0.617156
vt 0.196092 0.623459
vt 0.334698 0.609889
vt 0.315604 0.617168
vt 0.334648 0.472502
vt 0.328423 0.604351
vt 0.315743 0.465276
vt 0.328404 0.478257
vt 0.321510 0.458973
vt 0.182883 0.433735
vt 0.260218 0.308164
vt 0.182824 0.307640
vt 0.189199 0.604175
vt 0.260152 0.295877
vt 0.183168 0.295877
vt 0.721127 0.312685
vt 0.798551 0.199517
vt 0.721098 0.198940
vt 0.721501 0.324534
vt 0.798551 0.312475
vt 0.674607 0.992782
vt 0.751942 0.867212
vt 0.674547 0.866688
vt 0.799039 0.449619
vt 0.721538 0.463378
vt 0.798523 0.463433
vt 0.799010 0.338022
vt 0.721580 0.449094
vt 0.659103 0.488481
vt 0.646124 0.476102
vt 0.533528 0.476905
vt 0.183168 0.445674
vt 0.260217 0.433615
vt 0.755688 0.558075
vt 0.750381 0.566885
vt 0.755688 0.574802
vt 0.355436 0.295677
vt 0.018956 0.620394
vt 0.143844 0.620151
vt 0.155594 0.608516
vt 0.143870 0.459127
vt 0.018982 0.459369
vt 0.625652 0.307087
vt 0.091563 0.443388
vt 0.798485 0.324534
vt 0.751941 0.992662
vt 0.721580 0.338290
vt 0.522141 0.488292
vt 0.522190 0.614832
vt 0.535169 0.627211
vt 0.647765 0.626408
vt 0.659792 0.613475
vt 0.260152 0.445674
vt 0.707839 0.310866
vt 0.332519 0.797140
vt 0.329726 0.645667
vt 0.193541 0.799933
vt 0.339373 0.290142
vt 0.329229 0.431620
vt 0.339374 0.429121
vt 0.181838 0.794788
vt 0.195892 0.808842
vt 0.315151 0.290142
vt 0.305006 0.431620
vt 0.315151 0.429121
vt 0.341430 0.650812
vt 0.327375 0.636758
vt 0.165758 0.647640
vt 0.151704 0.633585
vt 0.020220 0.633585
vt 0.193074 0.643169
vt 0.328358 0.287644
vt 0.823413 0.805601
vt 0.834083 0.808842
vt 0.827697 0.675835
vt 0.304135 0.287644
vt 0.079110 0.160387
vt 0.068402 0.157889
vt 0.074778 0.288004
vt 0.006166 0.647640
vt 0.006166 0.791616
vt 0.020220 0.805670
vt 0.151704 0.805670
vt 0.165758 0.791616
vt 0.809085 0.589119
vt 0.764268 0.589119
vt 0.764268 0.652830
vt 0.809085 0.652830
vt 0.810490 0.930123
vt 0.765673 0.930123
vt 0.765673 0.993834
vt 0.810490 0.993834
vt 0.854288 0.582138
vt 0.823369 0.582138
vt 0.823369 0.651001
vt 0.854288 0.651001
vt 0.703969 0.146527
vt 0.677735 0.146527
vt 0.677735 0.214297
vt 0.703969 0.214297
vt 0.936571 0.585856
vt 0.936571 0.565713
vt 0.928451 0.565713
vt 0.928451 0.585856
vt 0.523187 0.822222
vt 0.523187 0.830967
vt 0.526935 0.830967
vt 0.526935 0.822222
vt 0.767541 0.829243
vt 0.767547 0.837822
vt 0.771295 0.837822
vt 0.771289 0.829243
vt 0.924845 0.684863
vt 0.924845 0.657535
vt 0.921097 0.657535
vt 0.921097 0.684863
vt 0.087046 0.081381
vt 0.087046 0.108708
vt 0.090794 0.108708
vt 0.090794 0.081381
vt 0.256784 0.123395
vt 0.256784 0.096068
vt 0.248039 0.096068
vt 0.248039 0.123395
vt 0.138660 0.110285
vt 0.138660 0.137613
vt 0.147405 0.137613
vt 0.147405 0.110285
vt 0.564971 0.216278
vt 0.521001 0.216309
vt 0.521001 0.280021
vt 0.564971 0.279990
vt 0.397731 0.215114
vt 0.353761 0.215145
vt 0.353761 0.278856
vt 0.397731 0.278825
vt 0.842618 0.169297
vt 0.812283 0.169318
vt 0.812283 0.238183
vt 0.842618 0.238161
vt 0.605334 0.212140
vt 0.579595 0.212158
vt 0.579595 0.279930
vt 0.605334 0.279911
vt 0.248039 0.062093
vt 0.248039 0.081856
vt 0.256159 0.081862
vt 0.256159 0.062099
vt 0.291827 0.070323
vt 0.291827 0.097651
vt 0.295575 0.097651
vt 0.295575 0.070323
vt 0.273867 0.085460
vt 0.273886 0.112271
vt 0.277634 0.112271
vt 0.277615 0.085460
vt 0.807371 0.572928
vt 0.807371 0.564183
vt 0.803623 0.564183
vt 0.803623 0.572928
vt 0.785659 0.564183
vt 0.785659 0.572928
vt 0.789407 0.572928
vt 0.789407 0.564183
vt 0.688354 0.104826
vt 0.679609 0.104826
vt 0.679609 0.132153
vt 0.688354 0.132153
vt 0.854595 0.367977
vt 0.863340 0.367977
vt 0.863340 0.340650
vt 0.854595 0.340650
vt 0.765673 0.915828
vt 0.810491 0.915828
vt 0.810491 0.852117
vt 0.765673 0.852117
vt 0.183789 0.283545
vt 0.228606 0.283545
vt 0.228606 0.219835
vt 0.183789 0.219835
vt 0.814860 0.324534
vt 0.845779 0.324534
vt 0.845779 0.255670
vt 0.814860 0.255670
vt 0.227119 0.205540
vt 0.253353 0.205540
vt 0.253353 0.137769
vt 0.227119 0.137769
vt 0.882469 0.069372
vt 0.882469 0.089517
vt 0.890589 0.089517
vt 0.890589 0.069372
vt 0.939761 0.130285
vt 0.939761 0.139029
vt 0.943508 0.139029
vt 0.943508 0.130285
vt 0.787368 0.829243
vt 0.787374 0.837822
vt 0.791122 0.837822
vt 0.791116 0.829243
vt 0.313539 0.097651
vt 0.313539 0.070324
vt 0.309791 0.070324
vt 0.309791 0.097651
vt 0.917427 0.825574
vt 0.917427 0.852902
vt 0.921174 0.852902
vt 0.921174 0.825574
vt 0.339373 0.121944
vt 0.339373 0.094617
vt 0.330629 0.094617
vt 0.330629 0.121944
vt 0.039111 0.104160
vt 0.039111 0.131487
vt 0.047855 0.131487
vt 0.047855 0.104160
vt 0.006166 0.211367
vt 0.050983 0.211367
vt 0.050983 0.147656
vt 0.006166 0.147656
vt 0.620586 0.214297
vt 0.665403 0.214297
vt 0.665403 0.150587
vt 0.620586 0.150587
vt 0.181837 0.205540
vt 0.212756 0.205540
vt 0.212756 0.136676
vt 0.181837 0.136676
vt 0.412356 0.196620
vt 0.438590 0.196620
vt 0.438590 0.128850
vt 0.412356 0.128850
vt 0.225088 0.063592
vt 0.225088 0.083736
vt 0.233208 0.083736
vt 0.233208 0.063592
vt 0.488610 0.077951
vt 0.488610 0.105278
vt 0.492358 0.105278
vt 0.492358 0.077951
vt 0.069086 0.083771
vt 0.069105 0.110582
vt 0.072853 0.110582
vt 0.072834 0.083771
vt 0.544899 0.830967
vt 0.544899 0.822222
vt 0.541151 0.822222
vt 0.541151 0.830967
vt 0.888363 0.658780
vt 0.888363 0.667525
vt 0.892110 0.667525
vt 0.892110 0.658780
vt 0.235707 0.096068
vt 0.226962 0.096068
vt 0.226962 0.123395
vt 0.235707 0.123395
vt 0.653530 0.134418
vt 0.662275 0.134418
vt 0.662275 0.107091
vt 0.653530 0.107090
vt 0.966388 0.593352
vt 0.966388 0.577112
vt 0.963265 0.577112
vt 0.963265 0.593352
vt 0.962358 0.233255
vt 0.962358 0.217014
vt 0.959235 0.217014
vt 0.959235 0.233255
vt 0.312914 0.057367
vt 0.312914 0.041127
vt 0.309791 0.041127
vt 0.309791 0.057367
vt 0.975110 0.442381
vt 0.975110 0.458314
vt 0.978233 0.458316
vt 0.978233 0.442383
vt 0.925476 0.022472
vt 0.925476 0.038405
vt 0.928600 0.038407
vt 0.928600 0.022474
vt 0.272000 0.021747
vt 0.272000 0.037680
vt 0.275123 0.037682
vt 0.275123 0.021749
vt 0.959235 0.187193
vt 0.959235 0.203433
vt 0.962358 0.203433
vt 0.962358 0.187193
vt 0.651657 0.041045
vt 0.651657 0.057285
vt 0.654780 0.057285
vt 0.654780 0.041045
vt 0.453288 0.025495
vt 0.453288 0.041735
vt 0.456411 0.041735
vt 0.456411 0.025495
vt 0.966782 0.474696
vt 0.966782 0.490936
vt 0.969905 0.490936
vt 0.969905 0.474696
vt 0.412356 0.029392
vt 0.412356 0.045632
vt 0.415479 0.045632
vt 0.415479 0.029392
vt 0.812283 0.026895
vt 0.812283 0.043135
vt 0.815406 0.043135
vt 0.815406 0.026895
s 1
f 2/1/1 9/2/2 1/3/3
f 2/4/1 11/5/4 10/6/5
f 4/7/6 11/5/4 3/8/7
f 6/9/8 12/10/9 5/11/10
f 6/12/8 14/13/11 13/14/12
f 8/15/13 14/13/11 7/16/14
f 10/17/5 15/18/15 9/2/2
f 2/19/1 1/20/3 5/21/10
f 9/22/2 22/23/16 8/15/13
f 4/7/6 17/24/17 11/5/4
f 12/10/9 18/25/18 4/26/6
f 13/27/12 19/28/19 12/10/9
f 13/27/12 21/29/20 20/30/21
f 8/15/13 21/31/20 14/13/11
f 10/6/5 17/24/17 16/32/22
f 16/33/22 23/34/23 15/35/15
f 15/35/15 30/36/24 22/37/16
f 18/38/18 25/39/25 17/40/17
f 19/41/19 26/42/26 18/38/18
f 20/43/21 27/44/27 19/41/19
f 20/43/21 29/45/28 28/46/29
f 22/37/16 29/45/28 21/47/20
f 24/48/30 31/49/31 23/50/23
f 16/33/22 25/39/25 24/51/30
f 23/50/23 38/52/32 30/53/24
f 26/54/26 33/55/33 25/56/25
f 27/57/27 34/58/34 26/54/26
f 28/59/29 35/60/35 27/61/27
f 29/62/28 36/63/36 28/64/29
f 30/65/24 37/66/37 29/62/28
f 36/67/36 37/68/37 38/69/32
f 25/70/25 32/71/38 24/48/30
f 2/1/1 10/17/5 9/2/2
f 2/4/1 3/8/7 11/5/4
f 5/11/10 12/10/9 4/26/6
f 6/9/8 13/27/12 12/10/9
f 6/72/8 7/73/14 14/74/11
f 10/17/5 16/75/22 15/18/15
f 1/20/3 8/76/13 7/77/14
f 7/77/14 6/78/8 1/20/3
f 6/78/8 5/21/10 1/20/3
f 5/21/10 4/79/6 3/80/7
f 3/80/7 2/19/1 5/21/10
f 9/22/2 15/81/15 22/23/16
f 4/7/6 18/82/18 17/24/17
f 12/10/9 19/28/19 18/25/18
f 13/27/12 20/30/21 19/28/19
f 13/14/12 14/13/11 21/31/20
f 8/15/13 22/23/16 21/31/20
f 10/6/5 11/5/4 17/24/17
f 16/33/22 24/51/30 23/34/23
f 15/35/15 23/34/23 30/36/24
f 18/38/18 26/42/26 25/39/25
f 19/41/19 27/44/27 26/42/26
f 20/43/21 28/46/29 27/44/27
f 20/43/21 21/47/20 29/45/28
f 22/37/16 30/36/24 29/45/28
f 24/48/30 32/71/38 31/49/31
f 16/33/22 17/40/17 25/39/25
f 23/50/23 31/49/31 38/52/32
f 26/54/26 34/58/34 33/55/33
f 27/57/27 35/83/35 34/58/34
f 28/59/29 36/84/36 35/60/35
f 29/62/28 37/66/37 36/63/36
f 30/65/24 38/85/32 37/66/37
f 38/69/32 31/86/31 36/67/36
f 31/86/31 32/87/38 36/67/36
f 32/87/38 33/88/33 34/89/34
f 34/89/34 35/90/35 32/87/38
f 35/90/35 36/67/36 32/87/38
f 25/70/25 33/91/33 32/71/38
f 1/92/3 9/22/2 8/15/13
f 40/93/39 39/94/40 41/95/41
f 40/96/39 43/97/42 39/98/40
f 41/95/41 46/99/43 45/100/44
f 42/101/45 46/102/43 41/103/41
f 39/94/40 43/104/42 48/105/46
f 47/106/47 42/107/45 48/108/46
f 42/109/45 41/95/41 39/94/40
f 40/96/39 44/110/48 43/97/42
f 41/111/41 45/112/44 40/113/39
f 42/101/45 47/114/47 46/102/43
f 39/115/40 48/116/46 42/117/45
f 48/108/46 43/118/42 47/106/47
f 43/118/42 44/119/48 47/106/47
f 44/119/48 40/120/39 45/121/44
f 45/121/44 46/122/43 44/119/48
f 46/122/43 47/106/47 44/119/48
s 0
f 49/123/49 50/124/49 51/125/49
f 49/123/49 51/125/49 52/126/49
f 53/127/49 54/128/49 55/129/49
f 53/127/49 55/129/49 56/130/49
f 57/131/49 58/132/49 59/133/49
f 57/131/49 59/133/49 60/134/49
f 61/135/49 62/136/49 63/137/49
f 61/135/49 63/137/49 64/138/49
f 65/139/49 66/140/49 67/141/49
f 65/139/49 67/141/49 68/142/49
f 69/143/50 70/144/50 71/145/50
f 69/143/50 71/145/50 72/146/50
f 73/147/51 74/148/51 75/149/51
f 73/147/51 75/149/51 76/150/51
f 77/151/49 78/152/49 79/153/49
f 77/151/49 79/153/49 80/154/49
f 81/155/52 82/156/52 83/157/52
f 81/155/52 83/157/52 84/158/52
f 85/159/53 86/160/53 87/161/53
f 85/159/53 87/161/53 88/162/53
f 89/163/54 90/164/54 91/165/54
f 89/163/54 91/165/54 92/166/54
f 93/167/51 94/168/51 95/169/51
f 93/167/51 95/169/51 96/170/51
f 97/171/51 98/172/51 99/173/51
f 97/171/51 99/173/51 100/174/51
f 101/175/51 102/176/51 103/177/51
f 101/175/51 103/177/51 104/178/51
f 105/179/51 106/180/51 107/181/51
f 105/179/51 107/181/51 108/182/51
f 109/183/51 110/184/51 111/185/51
f 109/183/51 111/185/51 112/186/51
f 113/187/50 114/188/50 115/189/50
f 113/187/50 115/189/50 116/190/50
f 117/191/51 118/192/51 119/193/51
f 117/191/51 119/193/51 120/194/51
f 121/195/49 122/196/49 123/197/49
f 121/195/49 123/197/49 124/198/49
f 125/199/52 126/200/52 127/201/52
f 125/199/52 127/201/52 128/202/52
f 129/203/53 130/204/53 131/205/53
f 129/203/53 131/205/53 132/206/53
f 133/207/54 134/208/54 135/209/54
f 133/207/54 135/209/54 136/210/54
f 137/211/52 138/212/52 139/213/52
f 137/211/52 139/213/52 140/214/52
f 141/215/52 142/216/52 143/217/52
f 141/215/52 143/217/52 144/218/52
f 145/219/52 146/220/52 147/221/52
f 145/219/52 147/221/52 148/222/52
f 149/223/52 150/224/52 151/225/52
f 149/223/52 151/225/52 152/226/52
f 153/227/52 154/228/52 155/229/52
f 153/227/52 155/229/52 156/230/52
f 157/231/50 158/232/50 159/233/50
f 157/231/50 159/233/50 160/234/50
f 161/235/51 162/236/51 163/237/51
f 161/235/51 163/237/51 164/238/51
f 165/239/49 166/240/49 167/241/49
f 165/239/49 167/241/49 168/242/49
f 169/243/52 170/244/52 171/245/52
f 169/243/52 171/245/52 172/246/52
f 173/247/53 174/248/53 175/249/53
f 173/247/53 175/249/53 176/250/53
f 177/251/54 178/252/54 179/253/54
f 177/251/54 179/253/54 180/254/54
f 181/255/50 182/256/50 183/257/50
f 181/255/50 183/257/50 184/258/50
f 185/259/50 186/260/50 187/261/50
f 185/259/50 187/261/50 188/262/50
f 189/263/50 190/264/50 191/265/50
f 189/263/50 191/265/50 192/266/50
f 193/267/50 194/268/50 195/269/50
f 193/267/50 195/269/50 196/270/50
f 197/271/50 198/272/50 199/273/50
f 197/271/50 199/273/50 200/274/50
f 201/275/50 202/276/50 203/277/50
f 201/275/50 203/277/50 204/278/50
f 205/279/51 206/280/51 207/281/51
f 205/279/51 207/281/51 208/282/51
f 209/283/49 210/284/49 211/285/49
f 209/283/49 211/285/49 212/286/49
f 213/287/52 214/288/52 215/289/52
f 213/287/52 215/289/52 216/290/52
f 217/291/53 218/292/53 219/293/53
f 217/291/53 219/293/53 220/294/53
f 221/295/54 222/296/54 223/297/54
f 221/295/54 223/297/54 224/298/54
f 225/299/49 226/300/49 227/301/49
f 225/299/49 227/301/49 228/302/49
f 229/303/49 230/304/49 231/305/49
f 229/303/49 231/305/49 232/306/49
f 233/307/49 234/308/49 235/309/49
f 233/307/49 235/309/49 236/310/49
f 237/311/51 238/312/51 239/313/51
f 237/311/51 239/313/51 240/314/51
f 241/315/51 242/316/51 243/317/51
f 241/315/51 243/317/51 244/318/51
f 245/319/51 246/320/51 247/321/51
f 245/319/51 247/321/51 248/322/51
f 249/323/52 250/324/52 251/325/52
f 249/323/52 251/325/52 252/326/52
f 253/327/52 254/328/52 255/329/52
f 253/327/52 255/329/52 256/330/52
f 257/331/52 258/332/52 259/333/52
f 257/331/52 259/333/52 260/334/52
f 261/335/50 262/336/50 263/337/50
f 261/335/50 263/337/50 264/338/50
f 265/339/50 266/340/50 267/341/50
f 265/339/50 267/341/50 268/342/50
f 269/343/50 270/344/50 271/345/50
f 269/343/50 271/345/50 272/346/50
