# DX12 UV variant: V already converted to 1-V; do NOT flip V again in the loader/shader.
# Metres; Y up; local part pivot; see assembly.json
mtllib S07_Shared.mtl
usemtl S07_Shared
# Blender 4.2.20 LTS
# www.blender.org
o S07_Lid_LOD0.001
v 0.451000 -0.003000 -0.501000
v -0.451000 -0.003000 -0.501000
v -0.541000 -0.003000 -0.411000
v -0.541000 -0.003000 0.411000
v -0.451000 -0.003000 0.501000
v 0.451000 -0.003000 0.501000
v 0.541000 -0.003000 0.411000
v 0.541000 -0.003000 -0.411000
v 0.451000 0.022000 -0.501000
v -0.451000 0.022000 -0.501000
v -0.541000 0.022000 -0.411000
v -0.541000 0.022000 0.411000
v -0.451000 0.022000 0.501000
v 0.451000 0.022000 0.501000
v 0.541000 0.022000 0.411000
v 0.541000 0.022000 -0.411000
v 0.467193 0.032000 -0.513807
v 0.452616 0.019000 -0.510000
v 0.445000 0.032000 -0.523000
v -0.467193 0.032000 -0.513807
v -0.445000 0.032000 -0.523000
v -0.452616 0.019000 -0.510000
v -0.563000 0.032000 -0.405000
v -0.553808 0.032000 -0.427193
v -0.550000 0.019000 -0.412615
v -0.553808 0.032000 0.427193
v -0.563000 0.032000 0.405000
v -0.550000 0.019000 0.412615
v -0.445000 0.032000 0.523000
v -0.467193 0.032000 0.513807
v -0.452616 0.019000 0.510000
v 0.467193 0.032000 0.513807
v 0.445000 0.032000 0.523000
v 0.452616 0.019000 0.510000
v 0.563000 0.032000 0.405000
v 0.553808 0.032000 0.427193
v 0.550000 0.019000 0.412615
v 0.553808 0.032000 -0.427193
v 0.563000 0.032000 -0.405000
v 0.550000 0.019000 -0.412615
v 0.467193 0.211000 -0.513807
v 0.445000 0.211000 -0.523000
v 0.437443 0.234281 -0.515043
v 0.461634 0.233324 -0.506556
v -0.467193 0.211000 -0.513807
v -0.461634 0.233324 -0.506556
v -0.437443 0.234281 -0.515043
v -0.445000 0.211000 -0.523000
v -0.563000 0.211000 -0.405000
v -0.555044 0.234281 -0.397442
v -0.546556 0.233324 -0.421634
v -0.553808 0.211000 -0.427193
v -0.553808 0.211000 0.427193
v -0.546556 0.233324 0.421634
v -0.555044 0.234281 0.397442
v -0.563000 0.211000 0.405000
v -0.445000 0.211000 0.523000
v -0.437443 0.234281 0.515043
v -0.461634 0.233324 0.506556
v -0.467193 0.211000 0.513807
v 0.467193 0.211000 0.513807
v 0.461634 0.233324 0.506556
v 0.437443 0.234281 0.515043
v 0.445000 0.211000 0.523000
v 0.563000 0.211000 0.405000
v 0.555044 0.234281 0.397442
v 0.546556 0.233324 0.421634
v 0.553808 0.211000 0.427193
v 0.553808 0.211000 -0.427193
v 0.546556 0.233324 -0.421634
v 0.555044 0.234281 -0.397442
v 0.563000 0.211000 -0.405000
v 0.403823 0.329676 -0.431988
v 0.380779 0.328719 -0.441957
v 0.383615 0.339000 -0.421000
v -0.403823 0.329676 -0.431988
v -0.383615 0.339000 -0.421000
v -0.380779 0.328719 -0.441957
v -0.481956 0.328719 -0.340779
v -0.461000 0.339000 -0.343616
v -0.471989 0.329676 -0.363823
v -0.471989 0.329676 0.363823
v -0.461000 0.339000 0.343616
v -0.481956 0.328719 0.340779
v -0.380779 0.328719 0.441957
v -0.383615 0.339000 0.421000
v -0.403823 0.329676 0.431988
v 0.403823 0.329676 0.431988
v 0.383615 0.339000 0.421000
v 0.380779 0.328719 0.441957
v 0.481956 0.328719 0.340779
v 0.461000 0.339000 0.343616
v 0.471989 0.329676 0.363823
v 0.471989 0.329676 -0.363823
v 0.461000 0.339000 -0.343616
v 0.481956 0.328719 -0.340779
v 0.402000 -0.032000 -0.442000
v -0.402000 -0.032000 -0.442000
v -0.482000 -0.032000 -0.362000
v -0.482000 -0.032000 0.362000
v -0.402000 -0.032000 0.442000
v 0.402000 -0.032000 0.442000
v 0.482000 -0.032000 0.362000
v 0.482000 -0.032000 -0.362000
v 0.402000 0.023000 -0.442000
v -0.402000 0.023000 -0.442000
v -0.482000 0.023000 -0.362000
v -0.482000 0.023000 0.362000
v -0.402000 0.023000 0.442000
v 0.402000 0.023000 0.442000
v 0.482000 0.023000 0.362000
v 0.482000 0.023000 -0.362000
v 0.000000 0.357500 -0.078072
v -0.005196 0.363500 -0.082000
v 0.005196 0.363500 -0.082000
v 0.000000 0.370500 -0.078072
v 0.005196 0.364500 -0.082000
v -0.005196 0.364500 -0.082000
v 0.067612 0.357500 -0.039036
v 0.068417 0.363500 -0.045500
v 0.073612 0.363500 -0.036500
v 0.067612 0.370500 -0.039036
v 0.073612 0.364500 -0.036500
v 0.068417 0.364500 -0.045500
v 0.067612 0.357500 0.039036
v 0.073612 0.363500 0.036500
v 0.068417 0.363500 0.045500
v 0.067612 0.370500 0.039036
v 0.068417 0.364500 0.045500
v 0.073612 0.364500 0.036500
v 0.000000 0.357500 0.078072
v 0.005196 0.363500 0.082000
v -0.005196 0.363500 0.082000
v 0.000000 0.370500 0.078072
v -0.005196 0.364500 0.082000
v 0.005196 0.364500 0.082000
v -0.067612 0.357500 0.039036
v -0.068417 0.363500 0.045500
v -0.073612 0.363500 0.036500
v -0.067612 0.370500 0.039036
v -0.073612 0.364500 0.036500
v -0.068417 0.364500 0.045500
v -0.067612 0.357500 -0.039036
v -0.073612 0.363500 -0.036500
v -0.068417 0.363500 -0.045500
v -0.067612 0.370500 -0.039036
v -0.068417 0.364500 -0.045500
v -0.073612 0.364500 -0.036500
v 0.082500 0.338000 -0.328000
v 0.082500 0.347000 -0.337000
v 0.091499 0.347000 -0.328000
v 0.082500 0.347000 -0.337000
v 0.082500 0.356000 -0.328000
v 0.091499 0.347000 -0.328000
v 0.082500 0.338000 -0.311999
v 0.091499 0.347000 -0.311999
v 0.082500 0.347000 -0.302999
v 0.082500 0.356000 -0.311999
v 0.082500 0.347000 -0.302999
v 0.091499 0.347000 -0.311999
v -0.082500 0.338000 -0.328000
v -0.091499 0.347000 -0.328000
v -0.082500 0.347000 -0.337000
v -0.082500 0.356000 -0.328000
v -0.082500 0.347000 -0.337000
v -0.091499 0.347000 -0.328000
v -0.082500 0.338000 -0.311999
v -0.082500 0.347000 -0.302999
v -0.091499 0.347000 -0.311999
v -0.082500 0.356000 -0.311999
v -0.091499 0.347000 -0.311999
v -0.082500 0.347000 -0.302999
v 0.082500 0.338000 0.311999
v 0.082500 0.347000 0.302999
v 0.091499 0.347000 0.311999
v 0.082500 0.347000 0.302999
v 0.082500 0.356000 0.311999
v 0.091499 0.347000 0.311999
v 0.082500 0.338000 0.328000
v 0.091499 0.347000 0.328000
v 0.082500 0.347000 0.337000
v 0.082500 0.356000 0.328000
v 0.082500 0.347000 0.337000
v 0.091499 0.347000 0.328000
v -0.082500 0.338000 0.311999
v -0.091499 0.347000 0.311999
v -0.082500 0.347000 0.302999
v -0.082500 0.356000 0.311999
v -0.082500 0.347000 0.302999
v -0.091499 0.347000 0.311999
v -0.082500 0.338000 0.328000
v -0.082500 0.347000 0.337000
v -0.091499 0.347000 0.328000
v -0.082500 0.356000 0.328000
v -0.091499 0.347000 0.328000
v -0.082500 0.347000 0.337000
v -0.226000 0.332000 0.000000
v -0.218299 0.332000 0.058493
v -0.195722 0.332000 0.112999
v -0.159806 0.332000 0.159805
v -0.113000 0.332000 0.195721
v -0.058493 0.332000 0.218300
v 0.000000 0.332000 0.226000
v 0.058493 0.332000 0.218300
v 0.113000 0.332000 0.195721
v 0.159806 0.332000 0.159805
v 0.195722 0.332000 0.112999
v 0.218299 0.332000 0.058493
v 0.226000 0.332000 0.000000
v 0.218299 0.332000 -0.058493
v 0.195722 0.332000 -0.112999
v 0.159806 0.332000 -0.159805
v 0.113000 0.332000 -0.195721
v 0.058493 0.332000 -0.218300
v 0.000000 0.332000 -0.226000
v -0.058493 0.332000 -0.218300
v -0.113000 0.332000 -0.195721
v -0.159806 0.332000 -0.159805
v -0.195722 0.332000 -0.112999
v -0.218299 0.332000 -0.058493
v -0.226000 0.345000 0.000000
v -0.218299 0.345000 0.058493
v -0.195722 0.345000 0.112999
v -0.159806 0.345000 0.159805
v -0.113000 0.345000 0.195721
v -0.058493 0.345000 0.218300
v 0.000000 0.345000 0.226000
v 0.058493 0.345000 0.218300
v 0.113000 0.345000 0.195721
v 0.159806 0.345000 0.159805
v 0.195722 0.345000 0.112999
v 0.218299 0.345000 0.058493
v 0.226000 0.345000 0.000000
v 0.218299 0.345000 -0.058493
v 0.195722 0.345000 -0.112999
v 0.159806 0.345000 -0.159805
v 0.113000 0.345000 -0.195721
v 0.058493 0.345000 -0.218300
v 0.000000 0.345000 -0.226000
v -0.058493 0.345000 -0.218300
v -0.113000 0.345000 -0.195721
v -0.159806 0.345000 -0.159805
v -0.195722 0.345000 -0.112999
v -0.218299 0.345000 -0.058493
v -0.219000 0.359000 0.000000
v -0.211538 0.359000 0.056683
v -0.189660 0.359000 0.109501
v -0.154856 0.359000 0.154858
v -0.109500 0.359000 0.189659
v -0.056681 0.359000 0.211536
v 0.000000 0.359000 0.219000
v 0.056681 0.359000 0.211536
v 0.109500 0.359000 0.189659
v 0.154856 0.359000 0.154858
v 0.189660 0.359000 0.109501
v 0.211538 0.359000 0.056683
v 0.219000 0.359000 0.000000
v 0.211538 0.359000 -0.056683
v 0.189660 0.359000 -0.109501
v 0.154856 0.359000 -0.154858
v 0.109500 0.359000 -0.189659
v 0.056681 0.359000 -0.211536
v 0.000000 0.359000 -0.219000
v -0.056681 0.359000 -0.211536
v -0.109500 0.359000 -0.189659
v -0.154856 0.359000 -0.154858
v -0.189660 0.359000 -0.109501
v -0.211538 0.359000 -0.056683
v -0.186000 0.362000 0.000000
v -0.179662 0.362000 0.048141
v -0.161081 0.362000 0.093000
v -0.131522 0.362000 0.131523
v -0.093000 0.362000 0.161079
v -0.048141 0.362000 0.179661
v 0.000000 0.362000 0.186001
v 0.048141 0.362000 0.179661
v 0.093000 0.362000 0.161079
v 0.131522 0.362000 0.131523
v 0.161081 0.362000 0.093000
v 0.179662 0.362000 0.048141
v 0.186000 0.362000 0.000000
v 0.179662 0.362000 -0.048141
v 0.161081 0.362000 -0.093000
v 0.131522 0.362000 -0.131523
v 0.093000 0.362000 -0.161079
v 0.048141 0.362000 -0.179661
v 0.000000 0.362000 -0.186001
v -0.048141 0.362000 -0.179661
v -0.093000 0.362000 -0.161079
v -0.131522 0.362000 -0.131523
v -0.161081 0.362000 -0.093000
v -0.179662 0.362000 -0.048141
v -0.180000 0.359000 0.000000
v -0.173867 0.359000 0.046587
v -0.155885 0.359000 0.090000
v -0.127279 0.359000 0.127279
v -0.090000 0.359000 0.155884
v -0.046587 0.359000 0.173866
v 0.000000 0.359000 0.180000
v 0.046587 0.359000 0.173866
v 0.090000 0.359000 0.155884
v 0.127279 0.359000 0.127279
v 0.155885 0.359000 0.090000
v 0.173867 0.359000 0.046587
v 0.180000 0.359000 0.000000
v 0.173867 0.359000 -0.046587
v 0.155885 0.359000 -0.090000
v 0.127279 0.359000 -0.127279
v 0.090000 0.359000 -0.155884
v 0.046587 0.359000 -0.173866
v 0.000000 0.359000 -0.180000
v -0.046587 0.359000 -0.173866
v -0.090000 0.359000 -0.155884
v -0.127279 0.359000 -0.127279
v -0.155885 0.359000 -0.090000
v -0.173867 0.359000 -0.046587
vn 0.0068 -1.0000 -0.0022
vn -0.4893 -0.2111 -0.8462
vn 0.4687 -0.8345 0.2899
vn -0.0068 1.0000 -0.0022
vn 0.0155 -0.9929 -0.1178
vn 0.4896 0.2115 -0.8459
vn -0.0391 -0.9992 -0.0102
vn -0.2970 0.2690 -0.9162
vn -0.8622 0.2557 -0.4373
vn -0.0225 -0.9997 0.0089
vn -0.9288 0.2499 0.2738
vn -0.0155 -0.9929 0.1178
vn -0.4896 0.2115 0.8459
vn 0.0391 -0.9992 0.0102
vn 0.2970 0.2690 0.9162
vn 0.8622 0.2557 0.4373
vn 0.1500 -0.4454 -0.8827
vn 0.0082 0.0377 -0.9993
vn 0.0113 -0.0701 -0.9975
vn -0.6237 -0.1764 -0.7615
vn -0.6640 0.0399 -0.7467
vn -0.6605 -0.0661 -0.7479
vn -0.8854 -0.4393 -0.1519
vn -0.9992 0.0377 -0.0091
vn -0.9975 -0.0700 -0.0122
vn -0.7615 -0.1764 0.6237
vn -0.7468 0.0401 0.6639
vn -0.7479 -0.0661 0.6605
vn -0.1500 -0.4454 0.8827
vn -0.0082 0.0377 0.9993
vn -0.0113 -0.0701 0.9975
vn 0.6237 -0.1764 0.7615
vn 0.6640 0.0399 0.7467
vn 0.6605 -0.0661 0.7479
vn 0.8854 -0.4393 0.1519
vn 0.9992 0.0377 0.0091
vn 0.9975 -0.0700 0.0122
vn -0.0214 0.4384 -0.8985
vn 0.0082 0.6674 -0.7447
vn 0.0041 0.5698 -0.8218
vn 0.0006 -1.0000 -0.0075
vn -0.2806 -0.7603 -0.5858
vn 0.2710 -0.9316 0.2422
vn 0.6474 0.6731 -0.3575
vn 0.4437 0.7340 -0.5142
vn 0.5141 0.7344 -0.4431
vn -0.8973 0.4409 0.0204
vn -0.7448 0.6672 -0.0090
vn -0.8217 0.5698 -0.0049
vn -0.6474 0.6731 0.3575
vn -0.4437 0.7340 0.5142
vn -0.5141 0.7344 0.4431
vn 0.0214 0.4384 0.8985
vn -0.0082 0.6674 0.7447
vn -0.0041 0.5698 0.8218
vn 0.5735 0.5848 0.5737
vn 0.4437 0.7340 0.5142
vn 0.4938 0.6541 0.5730
vn 0.8973 0.4409 -0.0204
vn 0.7448 0.6672 0.0090
vn 0.8217 0.5698 0.0049
vn -0.0011 1.0000 0.0054
vn 0.0115 0.9999 0.0014
vn 0.4545 0.8899 0.0386
vn -0.5735 0.5848 -0.5737
vn -0.4437 0.7340 -0.5142
vn -0.4938 0.6541 -0.5730
vn 0.6630 -0.0583 -0.7463
vn -0.6287 -0.5832 -0.5144
vn -0.8085 -0.5821 0.0868
vn 0.0854 -0.5757 0.8132
vn 0.6287 -0.5832 0.5144
vn 0.7479 -0.0661 -0.6605
vn 0.8085 -0.5821 -0.0868
vn 0.4096 0.4094 -0.8152
vn 0.6633 0.0409 -0.7472
vn -0.3674 0.3265 -0.8708
vn -0.8438 0.3375 -0.4173
vn -0.8712 0.3265 0.3665
vn -0.4096 0.4094 0.8152
vn -0.4168 0.3380 0.8438
vn 0.3674 0.3265 0.8708
vn 0.8438 0.3375 0.4173
vn 0.8712 0.3265 -0.3665
vn 0.7470 0.0399 -0.6637
vn 0.0314 0.8766 -0.4802
vn -0.3083 0.8811 -0.3587
vn -0.1133 0.8696 -0.4806
vn -0.4787 0.8774 -0.0314
vn -0.4231 0.8790 -0.2200
vn -0.3567 0.8837 0.3031
vn -0.4807 0.8696 0.1125
vn -0.0314 0.8766 0.4802
vn 0.1133 0.8696 0.4806
vn 0.4231 0.8790 0.2200
vn 0.4807 0.8696 -0.1125
vn 0.0044 -0.9994 -0.0356
vn -0.4613 -0.2154 -0.8607
vn 0.4550 -0.8326 0.3157
vn -0.0043 0.9994 -0.0356
vn 0.0359 -0.9573 -0.2867
vn 0.4643 0.2200 -0.8579
vn -0.0783 -0.9964 -0.0323
vn -0.3092 0.2918 -0.9051
vn -0.8699 0.2594 -0.4195
vn -0.0420 -0.9977 0.0526
vn -0.9164 0.2772 0.2887
vn -0.0359 -0.9573 0.2867
vn -0.4643 0.2200 0.8579
vn 0.0783 -0.9964 0.0323
vn 0.3092 0.2918 0.9051
vn 0.8699 0.2594 0.4195
vn -0.4059 0.6402 -0.6522
vn -0.3572 -0.6417 -0.6786
vn -0.4065 -0.6443 -0.6478
vn 0.4059 0.6402 0.6522
vn 0.3572 -0.6417 0.6786
vn 0.4065 -0.6443 0.6478
vn -0.3618 0.6399 0.6780
vn -0.4088 -0.6421 0.6486
vn -0.3576 -0.6436 0.6767
vn -0.7680 0.6399 0.0256
vn -0.7663 -0.6418 -0.0299
vn -0.7642 -0.6443 0.0281
vn 0.7680 0.6399 -0.0256
vn 0.7663 -0.6418 0.0299
vn 0.7642 -0.6443 -0.0281
vn -0.0304 0.9994 0.0176
vn -0.0000 0.9988 0.0486
vn 0.1978 0.7466 0.6352
vn 0.3618 0.6399 -0.6780
vn 0.4088 -0.6421 -0.6486
vn 0.3576 -0.6436 -0.6767
vn -0.0001 -0.9988 -0.0486
vn -0.1879 0.5654 -0.8031
vn -0.3114 -0.0430 -0.9493
vn 0.0324 -0.9993 -0.0188
vn 0.6017 0.5648 -0.5647
vn 0.6663 -0.0440 -0.7444
vn 0.0434 -0.9987 0.0250
vn 0.9778 -0.0439 0.2048
vn 0.0001 -0.9991 0.0422
vn 0.3114 -0.0430 0.9493
vn -0.0376 -0.9991 0.0218
vn -0.6663 -0.0440 0.7444
vn -0.0385 -0.9990 -0.0222
vn -0.7841 0.5725 -0.2395
vn -0.9778 -0.0439 -0.2048
vn 0.3049 0.7273 0.6148
vn -0.0359 0.9422 -0.3330
vn -0.0401 0.9419 0.3334
vn 0.0359 -0.9422 -0.3331
vn -0.0665 0.2652 -0.9619
vn 0.7318 0.6346 -0.2486
vn 0.3212 0.7151 -0.6209
vn 0.5911 0.7021 -0.3971
vn 0.0162 0.9996 0.0216
vn 0.0401 -0.9419 0.3334
vn 0.9662 0.2504 0.0617
vn 0.2438 0.6410 0.7278
vn -0.1357 0.9907 -0.0017
vn 0.6202 0.7535 0.2179
vn -0.0401 -0.9419 -0.3334
vn -0.9662 0.2504 -0.0617
vn -0.2438 0.6410 -0.7278
vn 0.1357 0.9907 0.0017
vn -0.6202 0.7535 -0.2179
vn -0.0359 -0.9422 0.3331
vn 0.0665 0.2652 0.9619
vn -0.7318 0.6346 0.2486
vn -0.0162 0.9996 -0.0216
vn -0.3212 0.7150 0.6209
vn 0.3212 0.7150 -0.6209
vn -0.3212 0.7151 0.6209
vn -0.0000 -1.0000 -0.0000
vn -0.9659 -0.0000 0.2588
vn -0.9742 0.2256 -0.0000
vn -1.0000 -0.0000 -0.0000
vn -0.8660 -0.0000 0.5000
vn -0.9410 0.2256 0.2521
vn -0.7071 -0.0000 0.7071
vn -0.8437 0.2256 0.4871
vn -0.5000 -0.0000 0.8660
vn -0.6889 0.2256 0.6889
vn -0.2588 -0.0000 0.9659
vn -0.4871 0.2256 0.8437
vn -0.0000 -0.0000 1.0000
vn -0.2522 0.2256 0.9410
vn 0.2588 -0.0000 0.9659
vn -0.0000 0.2256 0.9742
vn 0.5000 -0.0000 0.8660
vn 0.2522 0.2256 0.9410
vn 0.7071 -0.0000 0.7071
vn 0.4871 0.2256 0.8437
vn 0.8660 -0.0000 0.5000
vn 0.6889 0.2256 0.6889
vn 0.9659 -0.0000 0.2588
vn 0.8437 0.2256 0.4871
vn 1.0000 -0.0000 -0.0000
vn 0.9410 0.2256 0.2521
vn 0.9659 -0.0000 -0.2588
vn 0.9742 0.2256 -0.0000
vn 0.8660 -0.0000 -0.5000
vn 0.9410 0.2256 -0.2521
vn 0.7071 -0.0000 -0.7071
vn 0.8437 0.2256 -0.4871
vn 0.5000 -0.0000 -0.8660
vn 0.6889 0.2256 -0.6889
vn 0.2588 -0.0000 -0.9659
vn 0.4871 0.2256 -0.8437
vn -0.0000 -0.0000 -1.0000
vn 0.2522 0.2256 -0.9410
vn -0.2588 -0.0000 -0.9659
vn -0.0000 0.2256 -0.9742
vn -0.5000 -0.0000 -0.8660
vn -0.2522 0.2256 -0.9410
vn -0.7071 -0.0000 -0.7071
vn -0.4871 0.2256 -0.8437
vn -0.8660 -0.0000 -0.5000
vn -0.6889 0.2256 -0.6889
vn -0.9659 -0.0000 -0.2588
vn -0.8437 0.2256 -0.4871
vn -0.9410 0.2256 -0.2521
vn -0.5901 0.8073 -0.0000
vn -0.5700 0.8073 0.1527
vn -0.5111 0.8073 0.2951
vn -0.4173 0.8073 0.4173
vn -0.1527 0.8073 0.5700
vn -0.2951 0.8073 0.5111
vn -0.0000 0.8073 0.5901
vn 0.1527 0.8073 0.5700
vn 0.4173 0.8073 0.4173
vn 0.2951 0.8073 0.5111
vn 0.5111 0.8073 0.2951
vn 0.5700 0.8073 0.1527
vn 0.5901 0.8073 -0.0000
vn 0.5700 0.8073 -0.1527
vn 0.5111 0.8073 -0.2951
vn 0.4173 0.8073 -0.4173
vn 0.1527 0.8073 -0.5700
vn 0.2951 0.8073 -0.5111
vn -0.0000 0.8073 -0.5901
vn -0.1527 0.8073 -0.5700
vn -0.4173 0.8073 -0.4173
vn -0.2951 0.8073 -0.5111
vn -0.5111 0.8073 -0.2951
vn -0.5700 0.8073 -0.1527
vn 0.1577 0.9866 -0.0422
vn 0.1632 0.9866 -0.0000
vn 0.1414 0.9866 -0.0816
vn 0.1154 0.9866 -0.1154
vn 0.0423 0.9866 -0.1577
vn 0.0816 0.9866 -0.1414
vn -0.0000 0.9866 -0.1632
vn -0.0423 0.9866 -0.1577
vn -0.1154 0.9866 -0.1154
vn -0.0816 0.9866 -0.1414
vn -0.1414 0.9866 -0.0816
vn -0.1577 0.9866 -0.0422
vn -0.1577 0.9866 0.0422
vn -0.1632 0.9866 -0.0000
vn -0.1414 0.9866 0.0816
vn -0.1154 0.9866 0.1154
vn -0.0423 0.9866 0.1577
vn -0.0816 0.9866 0.1414
vn -0.0000 0.9866 0.1632
vn 0.0423 0.9866 0.1577
vn 0.1154 0.9866 0.1154
vn 0.0816 0.9866 0.1414
vn 0.1414 0.9866 0.0816
vn 0.1577 0.9866 0.0422
vn 0.4320 0.8944 -0.1157
vn 0.4472 0.8944 -0.0000
vn 0.3873 0.8944 -0.2236
vn 0.3162 0.8944 -0.3162
vn 0.2236 0.8944 -0.3873
vn -0.0000 0.8944 -0.4472
vn 0.1158 0.8944 -0.4320
vn -0.2236 0.8944 -0.3873
vn -0.1158 0.8944 -0.4320
vn -0.3162 0.8944 -0.3162
vn -0.3873 0.8944 -0.2236
vn -0.4320 0.8944 -0.1157
vn -0.4320 0.8944 0.1157
vn -0.4472 0.8944 -0.0000
vn -0.3873 0.8944 0.2236
vn -0.3162 0.8944 0.3162
vn -0.2236 0.8944 0.3873
vn -0.0000 0.8944 0.4472
vn -0.1158 0.8944 0.4320
vn 0.2236 0.8944 0.3873
vn 0.1158 0.8944 0.4320
vn 0.3162 0.8944 0.3162
vn 0.3873 0.8944 0.2236
vn 0.4320 0.8944 0.1157
vn -0.0000 1.0000 -0.0000
vn 0.7360 0.6243 -0.2618
vn 0.2619 0.6269 0.7337
vn -0.7360 0.6243 0.2618
vn -0.2619 0.6269 -0.7337
vt 0.353761 0.653935
vt 0.353761 0.794788
vt 0.510230 0.653935
vt 0.873855 0.854537
vt 0.869989 0.985840
vt 0.873855 0.985641
vt 0.871891 0.836368
vt 0.869989 0.854736
vt 0.870137 0.210711
vt 0.860687 0.324534
vt 0.864574 0.324534
vt 0.869577 0.191752
vt 0.866250 0.210711
vt 0.751377 0.743731
vt 0.735780 0.808842
vt 0.739667 0.808842
vt 0.751936 0.724772
vt 0.747490 0.743731
vt 0.746373 0.610949
vt 0.748049 0.724772
vt 0.868025 0.993834
vt 0.871891 0.993635
vt 0.510855 0.838927
vt 0.496801 0.824873
vt 0.368440 0.824873
vt 0.502632 0.307075
vt 0.473069 0.437449
vt 0.500765 0.436420
vt 0.500848 0.285816
vt 0.474790 0.304355
vt 0.502485 0.303327
vt 0.154397 0.332645
vt 0.125154 0.445935
vt 0.152965 0.444931
vt 0.153096 0.310695
vt 0.126482 0.329914
vt 0.154293 0.328910
vt 0.676397 0.668320
vt 0.718072 0.605537
vt 0.690261 0.604533
vt 0.674871 0.689399
vt 0.703878 0.672188
vt 0.676068 0.671184
vt 0.676199 0.805420
vt 0.702578 0.694138
vt 0.674767 0.693134
vt 0.471151 0.308883
vt 0.453288 0.424185
vt 0.469316 0.436032
vt 0.008196 0.835239
vt 0.008196 0.976597
vt 0.167476 0.835239
vt 0.326010 0.992850
vt 0.329603 0.970793
vt 0.318054 0.980449
vt 0.122831 0.334257
vt 0.105716 0.431884
vt 0.121427 0.444448
vt 0.122891 0.330290
vt 0.105716 0.319165
vt 0.106657 0.333500
vt 0.181837 0.962865
vt 0.204573 0.836617
vt 0.193992 0.826788
vt 0.706273 0.690779
vt 0.723449 0.679655
vt 0.707446 0.672921
vt 0.707737 0.804937
vt 0.722244 0.697893
vt 0.706333 0.694747
vt 0.197213 0.955800
vt 0.208174 0.968911
vt 0.315064 0.978459
vt 0.469566 0.287710
vt 0.454577 0.309596
vt 0.471172 0.304879
vt 0.007601 0.978873
vt 0.006166 0.975408
vt 0.504386 0.305154
vt 0.024592 0.818002
vt 0.021127 0.819437
vt 0.023403 0.820032
vt 0.156227 0.330585
vt 0.169506 0.836428
vt 0.168070 0.832963
vt 0.168070 0.978873
vt 0.169506 0.975408
vt 0.167476 0.976597
vt 0.672937 0.691074
vt 0.021127 0.992399
vt 0.024592 0.993834
vt 0.023403 0.991804
vt 0.469235 0.439060
vt 0.472830 0.440152
vt 0.474936 0.308103
vt 0.472706 0.284247
vt 0.473153 0.286844
vt 0.126586 0.333649
vt 0.124956 0.308834
vt 0.121718 0.312431
vt 0.125286 0.311699
vt 0.704208 0.669324
vt 0.702682 0.690403
vt 0.707764 0.807677
vt 0.704010 0.806424
vt 0.704192 0.808842
vt 0.331474 0.967348
vt 0.328175 0.967498
vt 0.340824 0.845174
vt 0.338834 0.848165
vt 0.342054 0.848897
vt 0.327723 0.831755
vt 0.327873 0.835053
vt 0.331169 0.833625
vt 0.217993 0.823516
vt 0.220983 0.825506
vt 0.221715 0.822286
vt 0.207872 0.836467
vt 0.206444 0.833171
vt 0.195223 0.958790
vt 0.193992 0.955067
vt 0.208324 0.972210
vt 0.204878 0.970339
vt 0.314331 0.981679
vt 0.151079 0.993834
vt 0.152268 0.991804
vt 0.154545 0.819437
vt 0.152268 0.820032
vt 0.007601 0.832963
vt 0.500525 0.439123
vt 0.500401 0.283219
vt 0.152767 0.307830
vt 0.721585 0.607312
vt 0.676381 0.807838
vt 0.467273 0.446575
vt 0.342054 0.977176
vt 0.340398 0.980821
vt 0.337552 0.821174
vt 0.341197 0.822830
vt 0.195649 0.823143
vt 0.182822 0.966746
vt 0.722507 0.693989
vt 0.322129 0.993834
vt 0.470829 0.447817
vt 0.498524 0.446789
vt 0.522562 0.670800
vt 0.522562 0.796350
vt 0.660605 0.670800
vt 0.857849 0.684438
vt 0.849344 0.801736
vt 0.857849 0.801298
vt 0.856103 0.668288
vt 0.849344 0.684877
vt 0.887221 0.448896
vt 0.877546 0.549583
vt 0.886091 0.549262
vt 0.886091 0.432074
vt 0.878676 0.449217
vt 0.290928 0.387017
vt 0.273949 0.445674
vt 0.282495 0.445380
vt 0.290844 0.370158
vt 0.282382 0.387312
vt 0.282495 0.270133
vt 0.282299 0.370452
vt 0.847599 0.808842
vt 0.856103 0.808403
vt 0.661230 0.855792
vt 0.648737 0.843299
vt 0.535680 0.843299
vt 0.506169 0.062473
vt 0.505817 0.051194
vt 0.506014 0.062473
vt 0.123121 0.055248
vt 0.123006 0.064875
vt 0.123276 0.055243
vt 0.182898 0.060700
vt 0.182610 0.051059
vt 0.182742 0.060693
vt 0.182833 0.049447
vt 0.183634 0.039365
vt 0.182678 0.049440
vt 0.122263 0.043540
vt 0.123231 0.053623
vt 0.122419 0.043535
vt 0.823803 0.352087
vt 0.813245 0.358183
vt 0.813245 0.370374
vt 0.506052 0.049686
vt 0.507071 0.042613
vt 0.505897 0.049686
vt 0.505002 0.050665
vt 0.507015 0.050668
vt 0.505972 0.051195
vt 0.475341 0.184230
vt 0.475466 0.185240
vt 0.476278 0.183834
vt 0.823803 0.376470
vt 0.822992 0.377083
vt 0.824614 0.377083
vt 0.124128 0.054379
vt 0.122108 0.054443
vt 0.123076 0.053628
vt 0.464783 0.165943
vt 0.465594 0.165330
vt 0.463971 0.165330
vt 0.813119 0.357173
vt 0.812308 0.358578
vt 0.181771 0.050183
vt 0.183790 0.050276
vt 0.182765 0.051067
vt 0.505213 0.062727
vt 0.506143 0.063746
vt 0.507226 0.062730
vt 0.506298 0.063746
vt 0.465594 0.190939
vt 0.464783 0.190326
vt 0.834487 0.371383
vt 0.122108 0.042673
vt 0.476278 0.172435
vt 0.813119 0.371383
vt 0.475341 0.172039
vt 0.475466 0.171029
vt 0.122895 0.065628
vt 0.122850 0.064879
vt 0.122739 0.065633
vt 0.454225 0.172039
vt 0.822992 0.351473
vt 0.453288 0.183834
vt 0.453288 0.172435
vt 0.824615 0.351473
vt 0.834361 0.358183
vt 0.834487 0.357173
vt 0.463971 0.190939
vt 0.454225 0.184230
vt 0.454099 0.185240
vt 0.794364 0.100216
vt 0.796862 0.074450
vt 0.794364 0.074450
vt 0.621991 0.099912
vt 0.620586 0.099912
vt 0.621991 0.101317
vt 0.798268 0.100216
vt 0.796862 0.100216
vt 0.796862 0.101622
vt 0.054129 0.040671
vt 0.052692 0.040671
vt 0.053499 0.042387
vt 0.812308 0.337939
vt 0.813804 0.339141
vt 0.813804 0.337245
vt 0.963265 0.562294
vt 0.963265 0.564156
vt 0.964493 0.562802
vt 0.091442 0.264953
vt 0.093030 0.265390
vt 0.092833 0.263573
vt 0.960981 0.868065
vt 0.961612 0.869781
vt 0.962419 0.868065
vt 0.750381 0.589054
vt 0.751859 0.588322
vt 0.750381 0.587134
vt 0.624490 0.101317
vt 0.624490 0.099912
vt 0.625895 0.074146
vt 0.624490 0.074146
vt 0.792958 0.100216
vt 0.621991 0.072741
vt 0.621991 0.074146
vt 0.794364 0.073045
vt 0.091442 0.288935
vt 0.007571 0.096981
vt 0.010070 0.071215
vt 0.007571 0.071215
vt 0.926882 0.111155
vt 0.925477 0.111155
vt 0.926882 0.112560
vt 0.011475 0.096981
vt 0.010070 0.096981
vt 0.010070 0.098387
vt 0.371142 0.058306
vt 0.369841 0.057695
vt 0.369841 0.059591
vt 0.848278 0.043759
vt 0.847426 0.042039
vt 0.846629 0.043759
vt 0.211264 0.028642
vt 0.212515 0.030020
vt 0.212515 0.028193
vt 0.751318 0.829061
vt 0.752906 0.829498
vt 0.752710 0.827681
vt 0.369841 0.043535
vt 0.369841 0.045363
vt 0.371190 0.044030
vt 0.827632 0.337939
vt 0.826136 0.337245
vt 0.826136 0.339141
vt 0.929381 0.112560
vt 0.929381 0.111155
vt 0.930786 0.085389
vt 0.929381 0.085389
vt 0.006166 0.096981
vt 0.926882 0.083984
vt 0.926882 0.085389
vt 0.007571 0.069810
vt 0.751318 0.853043
vt 0.694108 0.478149
vt 0.672624 0.506148
vt 0.686130 0.538752
vt 0.274176 0.140786
vt 0.276636 0.132170
vt 0.274615 0.132137
vt 0.273949 0.149961
vt 0.276197 0.140819
vt 0.273949 0.159036
vt 0.275970 0.149994
vt 0.274176 0.167393
vt 0.275970 0.159069
vt 0.274615 0.174462
vt 0.276197 0.167426
vt 0.275235 0.179762
vt 0.276636 0.174495
vt 0.705664 0.289142
vt 0.702957 0.294441
vt 0.704978 0.294433
vt 0.706190 0.282078
vt 0.703643 0.289150
vt 0.706521 0.273725
vt 0.704169 0.282087
vt 0.706634 0.264650
vt 0.704500 0.273733
vt 0.706521 0.255473
vt 0.704613 0.264659
vt 0.706190 0.246820
vt 0.704500 0.255481
vt 0.705664 0.239278
vt 0.704169 0.246828
vt 0.704978 0.233363
vt 0.703643 0.239286
vt 0.704179 0.229477
vt 0.702957 0.233371
vt 0.248099 0.278774
vt 0.245129 0.283545
vt 0.247142 0.283515
vt 0.248833 0.272150
vt 0.246086 0.278804
vt 0.249295 0.264095
vt 0.246821 0.272180
vt 0.249452 0.255158
vt 0.247282 0.264125
vt 0.249295 0.245947
vt 0.247440 0.255188
vt 0.248833 0.237091
vt 0.247282 0.245977
vt 0.248099 0.229193
vt 0.246820 0.237121
vt 0.247142 0.222791
vt 0.246086 0.229223
vt 0.277256 0.124636
vt 0.275235 0.124602
vt 0.278894 0.132712
vt 0.278470 0.141094
vt 0.278250 0.149985
vt 0.278250 0.158779
vt 0.278894 0.173727
vt 0.278470 0.166877
vt 0.279495 0.178863
vt 0.700729 0.293481
vt 0.701394 0.288353
vt 0.702224 0.273414
vt 0.701904 0.281509
vt 0.702334 0.264621
vt 0.702224 0.255728
vt 0.701904 0.247342
vt 0.701394 0.240034
vt 0.621887 0.247029
vt 0.627360 0.239716
vt 0.626493 0.239051
vt 0.242890 0.282576
vt 0.244529 0.271563
vt 0.243818 0.277981
vt 0.244977 0.263757
vt 0.245129 0.255096
vt 0.244529 0.237590
vt 0.244976 0.246171
vt 0.243818 0.229936
vt 0.242890 0.223733
vt 0.279495 0.125411
vt 0.667578 0.292131
vt 0.672173 0.283579
vt 0.665606 0.287370
vt 0.675310 0.287667
vt 0.677534 0.278217
vt 0.681623 0.281354
vt 0.681326 0.271651
vt 0.688397 0.265000
vt 0.686086 0.273623
vt 0.683288 0.256745
vt 0.683288 0.264327
vt 0.688397 0.256072
vt 0.681326 0.249421
vt 0.681623 0.239717
vt 0.686087 0.247449
vt 0.675310 0.233404
vt 0.677535 0.242854
vt 0.665607 0.233701
vt 0.672173 0.237493
vt 0.658956 0.226630
vt 0.667579 0.228940
vt 0.650028 0.226629
vt 0.658283 0.231739
vt 0.641405 0.228940
vt 0.650701 0.231739
vt 0.636810 0.237492
vt 0.643377 0.233701
vt 0.633673 0.233404
vt 0.631449 0.242853
vt 0.627657 0.249420
vt 0.620586 0.256071
vt 0.622896 0.247448
vt 0.625695 0.264326
vt 0.625695 0.256744
vt 0.620586 0.264998
vt 0.627657 0.271650
vt 0.627360 0.281353
vt 0.622896 0.273622
vt 0.633672 0.287666
vt 0.631448 0.278216
vt 0.643376 0.287369
vt 0.636810 0.283578
vt 0.650027 0.294441
vt 0.641404 0.292130
vt 0.658955 0.294441
vt 0.650700 0.289332
vt 0.658282 0.289332
vt 0.671602 0.282835
vt 0.665248 0.286504
vt 0.676791 0.277647
vt 0.680460 0.271292
vt 0.682359 0.264205
vt 0.680460 0.249779
vt 0.682359 0.256867
vt 0.671603 0.238236
vt 0.676791 0.243424
vt 0.665248 0.234567
vt 0.658161 0.232668
vt 0.650823 0.232668
vt 0.637381 0.238235
vt 0.643735 0.234567
vt 0.632192 0.243424
vt 0.628523 0.249778
vt 0.626624 0.256866
vt 0.628523 0.271291
vt 0.626624 0.264204
vt 0.637380 0.282835
vt 0.632192 0.277646
vt 0.643735 0.286504
vt 0.650822 0.288403
vt 0.658160 0.288403
vt 0.367816 0.808842
vt 0.496176 0.808842
vt 0.510230 0.794788
vt 0.496176 0.639881
vt 0.367816 0.639881
vt 0.868025 0.836568
vt 0.865691 0.191752
vt 0.742486 0.610949
vt 0.354386 0.838927
vt 0.354386 0.979780
vt 0.368440 0.993834
vt 0.496801 0.993834
vt 0.510855 0.979780
vt 0.454886 0.313506
vt 0.106920 0.337404
vt 0.723449 0.792374
vt 0.453288 0.295815
vt 0.468928 0.285107
vt 0.121207 0.309526
vt 0.707957 0.670016
vt 0.154545 0.992399
vt 0.151079 0.818002
vt 0.006166 0.836428
vt 0.779805 0.185785
vt 0.783551 0.184576
vt 0.779805 0.120518
vt 0.535055 0.808842
vt 0.648112 0.808842
vt 0.660605 0.796350
vt 0.648112 0.658307
vt 0.535055 0.658307
vt 0.847599 0.668727
vt 0.877546 0.432395
vt 0.273949 0.270428
vt 0.523187 0.855792
vt 0.523187 0.981342
vt 0.535680 0.993834
vt 0.648737 0.993834
vt 0.661230 0.981342
vt 0.183790 0.039372
vt 0.834361 0.370374
vt 0.507226 0.042613
vt 0.122263 0.042668
vt 0.812308 0.369978
vt 0.454099 0.171029
vt 0.794364 0.101622
vt 0.625895 0.099912
vt 0.792958 0.074450
vt 0.624490 0.072741
vt 0.796862 0.073045
vt 0.620586 0.074146
vt 0.093030 0.289372
vt 0.007571 0.098387
vt 0.930786 0.111155
vt 0.006166 0.071215
vt 0.929381 0.083984
vt 0.010070 0.069810
vt 0.925477 0.085389
vt 0.752906 0.853480
vt 0.694108 0.543359
vt 0.703007 0.545743
vt 0.712220 0.545743
vt 0.721119 0.543359
vt 0.729098 0.538752
vt 0.735612 0.532238
vt 0.740219 0.524259
vt 0.742603 0.515360
vt 0.742603 0.506147
vt 0.740218 0.497248
vt 0.735612 0.489270
vt 0.729097 0.482755
vt 0.721119 0.478149
vt 0.712220 0.475765
vt 0.703007 0.475765
vt 0.686129 0.482755
vt 0.679615 0.489270
vt 0.675008 0.497249
vt 0.672624 0.515361
vt 0.675009 0.524260
vt 0.679615 0.532238
vt 0.277256 0.179795
vt 0.702158 0.229486
vt 0.245129 0.222822
vt 0.700729 0.234302
s 1
f 2/1/1 1/2/2 5/3/3
f 2/4/1 9/5/4 1/6/2
f 3/7/5 10/8/6 2/4/1
f 4/9/7 11/10/8 3/11/5
f 5/12/3 12/13/9 4/9/7
f 6/14/10 13/15/11 5/16/3
f 7/17/12 14/18/13 6/14/10
f 8/19/14 15/20/15 7/17/12
f 1/6/2 16/21/16 8/22/14
f 14/23/13 15/24/15 16/25/16
f 21/26/17 42/27/18 19/28/19
f 24/29/20 45/30/21 20/31/22
f 27/32/23 49/33/24 23/34/25
f 30/35/26 53/36/27 26/37/28
f 33/38/29 57/39/30 29/40/31
f 36/41/32 61/42/33 32/43/34
f 39/44/35 65/45/36 35/46/37
f 47/47/38 74/48/39 43/49/40
f 22/50/41 18/51/42 31/52/43
f 70/53/44 73/54/45 94/55/46
f 55/56/47 79/57/48 50/58/49
f 54/59/50 87/60/51 82/61/52
f 63/62/53 85/63/54 58/64/55
f 67/65/56 88/66/57 62/67/58
f 71/68/59 91/69/60 66/70/61
f 89/71/62 92/72/63 95/73/64
f 51/74/65 76/75/66 46/76/67
f 17/77/68 18/51/42 19/78/19
f 20/31/22 21/26/17 22/79/41
f 23/80/25 24/81/20 25/82/69
f 26/37/28 27/32/23 28/83/70
f 29/84/31 30/85/26 31/52/43
f 32/86/34 33/87/29 34/88/71
f 35/46/37 36/41/32 37/89/72
f 38/90/73 39/91/35 40/92/74
f 42/27/18 44/93/75 41/94/76
f 46/76/67 48/95/77 45/30/21
f 49/96/24 51/74/65 52/97/78
f 54/59/50 56/98/79 53/36/27
f 57/99/30 59/100/80 60/101/81
f 62/67/58 64/102/82 61/42/33
f 65/45/36 67/65/56 68/103/83
f 70/104/44 72/105/84 69/106/85
f 73/54/45 74/107/39 75/108/86
f 76/109/66 77/110/87 78/111/88
f 79/112/48 80/113/89 81/114/90
f 82/115/52 83/116/91 84/117/92
f 85/63/54 86/118/93 87/119/51
f 88/120/57 89/71/62 90/121/94
f 91/122/60 92/72/63 93/123/95
f 94/55/46 95/73/64 96/124/96
f 38/90/73 18/51/42 17/77/68
f 40/92/74 35/125/37 37/126/72
f 37/126/72 32/86/34 34/88/71
f 34/88/71 29/84/31 31/52/43
f 31/52/43 26/127/28 28/128/70
f 28/128/70 23/80/25 25/82/69
f 25/82/69 20/129/22 22/50/41
f 22/50/41 19/78/19 18/51/42
f 42/27/18 17/130/68 19/28/19
f 45/30/21 21/26/17 20/31/22
f 48/95/77 43/49/40 42/27/18
f 49/96/24 24/29/20 23/131/25
f 45/30/21 51/74/65 46/76/67
f 53/36/27 27/32/23 26/37/28
f 56/98/79 50/58/49 49/33/24
f 57/99/30 30/35/26 29/132/31
f 60/101/81 54/59/50 53/36/27
f 61/42/33 33/38/29 32/43/34
f 64/102/82 58/133/55 57/39/30
f 65/45/36 36/41/32 35/46/37
f 61/42/33 67/65/56 62/67/58
f 69/106/85 39/44/35 38/134/73
f 72/105/84 66/70/61 65/45/36
f 70/135/44 41/94/76 44/93/75
f 43/136/40 73/54/45 44/137/75
f 76/75/66 47/47/38 46/76/67
f 78/111/88 75/108/86 74/107/39
f 50/138/49 81/114/90 51/139/65
f 76/109/66 80/113/89 77/110/87
f 82/61/52 55/56/47 54/59/50
f 84/117/92 80/113/89 79/112/48
f 58/64/55 87/119/51 59/140/80
f 87/119/51 83/116/91 82/115/52
f 88/120/57 63/62/53 62/141/58
f 90/121/94 86/118/93 85/63/54
f 66/70/61 93/142/95 67/65/56
f 88/120/57 92/72/63 89/71/62
f 94/55/46 71/143/59 70/53/44
f 96/124/96 92/72/63 91/122/60
f 95/73/64 73/54/45 75/108/86
f 17/130/68 69/144/85 38/145/73
f 98/146/97 97/147/98 101/148/99
f 98/149/97 105/150/100 97/151/98
f 99/152/101 106/153/102 98/149/97
f 100/154/103 107/155/104 99/156/101
f 101/157/99 108/158/105 100/154/103
f 102/159/106 109/160/107 101/161/99
f 103/162/108 110/163/109 102/159/106
f 104/164/110 111/165/111 103/162/108
f 97/151/98 112/166/112 104/167/110
f 110/168/109 111/169/111 112/170/112
f 147/171/113 114/172/114 145/173/115
f 129/174/116 132/175/117 127/176/118
f 135/177/119 138/178/120 133/179/121
f 141/180/122 144/181/123 139/182/124
f 123/183/125 126/184/126 121/185/127
f 140/186/128 134/187/129 128/188/130
f 117/189/131 120/190/132 115/191/133
f 113/192/134 114/172/114 115/191/133
f 116/193/135 117/189/131 118/194/136
f 119/195/137 120/196/132 121/197/127
f 122/198/138 123/199/125 124/200/139
f 125/201/140 126/184/126 127/176/118
f 128/202/130 129/174/116 130/203/141
f 131/204/142 132/205/117 133/206/121
f 134/187/129 135/207/119 136/208/143
f 137/209/144 138/178/120 139/182/124
f 140/210/128 141/180/122 142/211/145
f 143/212/146 144/213/123 145/173/115
f 146/214/147 147/171/113 148/215/148
f 115/216/133 119/195/137 113/217/134
f 117/218/131 122/198/138 124/200/139
f 118/194/136 115/191/133 114/172/114
f 121/185/127 124/219/139 123/183/125
f 126/220/126 119/195/137 121/197/127
f 123/199/125 128/188/130 130/221/141
f 127/176/118 130/203/141 129/174/116
f 132/205/117 125/222/140 127/223/118
f 136/208/143 128/188/130 134/187/129
f 133/224/121 136/225/143 135/226/119
f 133/206/121 137/227/144 131/204/142
f 135/207/119 140/186/128 142/228/145
f 139/182/124 142/211/145 141/180/122
f 144/229/123 137/227/144 139/230/124
f 141/231/122 146/232/147 148/233/148
f 145/173/115 148/215/148 147/171/113
f 114/234/114 143/235/146 145/236/115
f 118/194/136 146/214/147 116/193/135
f 137/227/144 143/235/146 119/195/137
f 158/237/149 164/238/150 170/239/151
f 149/240/152 150/241/153 151/242/154
f 152/243/155 153/244/156 154/245/157
f 155/246/158 156/247/159 157/248/160
f 158/249/149 159/250/161 160/251/162
f 161/252/163 162/253/164 163/254/165
f 164/255/150 165/256/166 166/257/167
f 167/258/168 168/259/169 169/260/170
f 170/261/151 171/262/171 172/263/172
f 149/240/152 156/264/159 155/265/158
f 158/237/149 154/245/157 153/244/156
f 155/265/158 168/266/169 167/267/168
f 170/239/151 159/268/161 158/237/149
f 167/267/168 162/269/164 161/270/163
f 164/238/150 171/271/171 170/239/151
f 161/270/163 150/241/153 149/240/152
f 153/272/156 165/256/166 164/255/150
f 167/267/168 149/240/152 155/265/158
f 182/273/149 188/274/150 194/275/151
f 173/276/152 174/277/153 175/278/154
f 176/279/173 177/280/156 178/281/157
f 179/282/158 180/283/159 181/284/160
f 182/285/149 183/286/161 184/287/162
f 185/288/163 186/289/164 187/290/165
f 188/291/150 189/292/166 190/293/167
f 191/294/168 192/295/169 193/296/170
f 194/297/151 195/298/171 196/299/174
f 173/276/152 180/300/159 179/301/158
f 182/273/149 178/281/157 177/280/156
f 179/301/158 192/302/169 191/303/168
f 194/275/151 183/304/161 182/273/149
f 191/303/168 186/305/164 185/306/163
f 188/274/150 195/307/171 194/275/151
f 185/306/163 174/277/153 173/276/152
f 177/308/156 189/292/166 188/291/150
f 191/303/168 173/276/152 179/301/158
s 0
f 205/309/175 201/310/175 197/311/175
s 1
f 198/312/176 221/313/177 197/314/178
f 199/315/179 222/316/180 198/312/176
f 200/317/181 223/318/182 199/315/179
f 201/319/183 224/320/184 200/317/181
f 202/321/185 225/322/186 201/319/183
f 203/323/187 226/324/188 202/321/185
f 204/325/189 227/326/190 203/327/187
f 205/328/191 228/329/192 204/325/189
f 206/330/193 229/331/194 205/328/191
f 207/332/195 230/333/196 206/330/193
f 208/334/197 231/335/198 207/332/195
f 209/336/199 232/337/200 208/334/197
f 210/338/201 233/339/202 209/336/199
f 211/340/203 234/341/204 210/338/201
f 212/342/205 235/343/206 211/340/203
f 213/344/207 236/345/208 212/346/205
f 214/347/209 237/348/210 213/344/207
f 215/349/211 238/350/212 214/347/209
f 216/351/213 239/352/214 215/349/211
f 217/353/215 240/354/216 216/351/213
f 218/355/217 241/356/218 217/353/215
f 219/357/219 242/358/220 218/355/217
f 220/359/221 243/360/222 219/357/219
f 197/314/178 244/361/223 220/362/221
f 222/316/180 245/363/224 221/313/177
f 223/318/182 246/364/225 222/316/180
f 224/320/184 247/365/226 223/318/182
f 225/322/186 248/366/227 224/320/184
f 225/322/186 250/367/228 249/368/229
f 226/324/188 251/369/230 250/367/228
f 228/329/192 251/370/230 227/326/190
f 229/331/194 252/371/231 228/329/192
f 229/331/194 254/372/232 253/373/233
f 230/333/196 255/374/234 254/372/232
f 231/335/198 256/375/235 255/374/234
f 232/337/200 257/376/236 256/375/235
f 234/341/204 257/376/236 233/339/202
f 235/343/206 258/377/237 234/341/204
f 236/378/208 259/379/238 235/380/206
f 237/348/210 260/381/239 236/345/208
f 237/348/210 262/382/240 261/383/241
f 238/350/212 263/384/242 262/382/240
f 240/354/216 263/384/242 239/352/214
f 241/356/218 264/385/243 240/354/216
f 241/356/218 266/386/244 265/387/245
f 242/358/220 267/388/246 266/386/244
f 243/360/222 268/389/247 267/388/246
f 244/361/223 245/363/224 268/390/247
f 245/391/224 270/392/248 269/393/249
f 246/394/225 271/395/250 270/392/248
f 247/396/226 272/397/251 271/395/250
f 249/398/229 272/397/251 248/399/227
f 249/398/229 274/400/252 273/401/253
f 250/402/228 275/403/254 274/400/252
f 252/404/231 275/403/254 251/405/230
f 253/406/233 276/407/255 252/404/231
f 253/406/233 278/408/256 277/409/257
f 255/410/234 278/408/256 254/411/232
f 256/412/235 279/413/258 255/410/234
f 257/414/236 280/415/259 256/412/235
f 257/414/236 282/416/260 281/417/261
f 258/418/237 283/419/262 282/416/260
f 259/379/238 284/420/263 283/419/262
f 261/421/241 284/420/263 260/422/239
f 261/421/241 286/423/264 285/424/265
f 262/425/240 287/426/266 286/423/264
f 264/427/243 287/426/266 263/428/242
f 265/429/245 288/430/267 264/427/243
f 265/429/245 290/431/268 289/432/269
f 267/433/246 290/431/268 266/434/244
f 268/435/247 291/436/270 267/433/246
f 245/391/224 292/437/271 268/435/247
f 269/393/249 294/438/272 293/439/273
f 270/392/248 295/440/274 294/438/272
f 271/395/250 296/441/275 295/440/274
f 272/397/251 297/442/276 296/441/275
f 274/400/252 297/442/276 273/401/253
f 274/400/252 299/443/277 298/444/278
f 276/407/255 299/443/277 275/403/254
f 276/407/255 301/445/279 300/446/280
f 278/408/256 301/445/279 277/409/257
f 279/413/258 302/447/281 278/408/256
f 280/415/259 303/448/282 279/413/258
f 281/417/261 304/449/283 280/415/259
f 281/417/261 306/450/284 305/451/285
f 282/416/260 307/452/286 306/450/284
f 283/419/262 308/453/287 307/452/286
f 284/420/263 309/454/288 308/453/287
f 286/423/264 309/454/288 285/424/265
f 286/423/264 311/455/289 310/456/290
f 288/430/267 311/455/289 287/426/266
f 288/430/267 313/457/291 312/458/292
f 290/431/268 313/457/291 289/432/269
f 291/436/270 314/459/293 290/431/268
f 292/437/271 315/460/294 291/436/270
f 269/393/249 316/461/295 292/437/271
s 0
f 312/458/296 316/461/296 300/446/296
s 1
f 1/2/2 8/462/14 7/463/12
f 7/463/12 6/464/10 1/2/2
f 6/464/10 5/3/3 1/2/2
f 5/3/3 4/465/7 3/466/5
f 3/466/5 2/1/1 5/3/3
f 2/4/1 10/8/6 9/5/4
f 3/7/5 11/467/8 10/8/6
f 4/9/7 12/13/9 11/10/8
f 5/12/3 13/468/11 12/13/9
f 6/14/10 14/18/13 13/15/11
f 7/17/12 15/20/15 14/18/13
f 8/19/14 16/469/16 15/20/15
f 1/6/2 9/5/4 16/21/16
f 16/25/16 9/470/4 14/23/13
f 9/470/4 10/471/6 14/23/13
f 10/471/6 11/472/8 12/473/9
f 12/473/9 13/474/11 10/471/6
f 13/474/11 14/23/13 10/471/6
f 21/26/17 48/95/77 42/27/18
f 24/29/20 52/97/78 45/30/21
f 27/32/23 56/98/79 49/33/24
f 30/35/26 60/101/81 53/36/27
f 33/38/29 64/102/82 57/39/30
f 36/41/32 68/103/83 61/42/33
f 39/44/35 72/105/84 65/45/36
f 47/47/38 78/475/88 74/48/39
f 18/51/42 40/92/74 37/126/72
f 37/126/72 34/88/71 18/51/42
f 34/88/71 31/52/43 18/51/42
f 31/52/43 28/128/70 25/82/69
f 25/82/69 22/50/41 31/52/43
f 70/53/44 44/137/75 73/54/45
f 55/56/47 84/476/92 79/57/48
f 54/59/50 59/100/80 87/60/51
f 63/62/53 90/121/94 85/63/54
f 67/65/56 93/142/95 88/66/57
f 71/68/59 96/477/96 91/69/60
f 95/73/64 75/108/86 89/71/62
f 75/108/86 77/110/87 89/71/62
f 77/110/87 80/113/89 83/116/91
f 83/116/91 86/118/93 77/110/87
f 86/118/93 89/71/62 77/110/87
f 51/74/65 81/478/90 76/75/66
f 42/27/18 43/49/40 44/93/75
f 46/76/67 47/47/38 48/95/77
f 49/96/24 50/479/49 51/74/65
f 54/59/50 55/56/47 56/98/79
f 57/99/30 58/480/55 59/100/80
f 62/67/58 63/481/53 64/102/82
f 65/45/36 66/70/61 67/65/56
f 70/104/44 71/68/59 72/105/84
f 38/90/73 40/92/74 18/51/42
f 40/92/74 39/91/35 35/125/37
f 37/126/72 36/482/32 32/86/34
f 34/88/71 33/87/29 29/84/31
f 31/52/43 30/85/26 26/127/28
f 28/128/70 27/483/23 23/80/25
f 25/82/69 24/81/20 20/129/22
f 22/50/41 21/484/17 19/78/19
f 42/27/18 41/94/76 17/130/68
f 45/30/21 48/95/77 21/26/17
f 48/95/77 47/47/38 43/49/40
f 49/96/24 52/97/78 24/29/20
f 45/30/21 52/97/78 51/74/65
f 53/36/27 56/98/79 27/32/23
f 56/98/79 55/56/47 50/58/49
f 57/99/30 60/101/81 30/35/26
f 60/101/81 59/100/80 54/59/50
f 61/42/33 64/102/82 33/38/29
f 64/485/82 63/486/53 58/487/55
f 65/45/36 68/103/83 36/41/32
f 61/42/33 68/103/83 67/65/56
f 69/106/85 72/105/84 39/44/35
f 72/105/84 71/68/59 66/70/61
f 70/135/44 69/144/85 41/94/76
f 43/136/40 74/107/39 73/54/45
f 76/75/66 78/475/88 47/47/38
f 78/111/88 77/110/87 75/108/86
f 50/138/49 79/112/48 81/114/90
f 76/109/66 81/114/90 80/113/89
f 82/61/52 84/476/92 55/56/47
f 84/117/92 83/116/91 80/113/89
f 58/64/55 85/63/54 87/119/51
f 87/119/51 86/118/93 83/116/91
f 88/120/57 90/121/94 63/62/53
f 90/121/94 89/71/62 86/118/93
f 66/70/61 91/69/60 93/142/95
f 88/120/57 93/123/95 92/72/63
f 94/55/46 96/124/96 71/143/59
f 96/124/96 95/73/64 92/72/63
f 95/73/64 94/55/46 73/54/45
f 17/130/68 41/94/76 69/144/85
f 97/147/98 104/488/110 103/489/108
f 103/489/108 102/490/106 97/147/98
f 102/490/106 101/148/99 97/147/98
f 101/148/99 100/491/103 99/492/101
f 99/492/101 98/146/97 101/148/99
f 98/149/97 106/153/102 105/150/100
f 99/152/101 107/493/104 106/153/102
f 100/154/103 108/158/105 107/155/104
f 101/157/99 109/494/107 108/158/105
f 102/159/106 110/163/109 109/160/107
f 103/162/108 111/165/111 110/163/109
f 104/164/110 112/495/112 111/165/111
f 97/151/98 105/150/100 112/166/112
f 112/170/112 105/496/100 110/168/109
f 105/496/100 106/497/102 110/168/109
f 106/497/102 107/498/104 108/499/105
f 108/499/105 109/500/107 106/497/102
f 109/500/107 110/168/109 106/497/102
f 147/171/113 118/194/136 114/172/114
f 129/174/116 136/225/143 132/175/117
f 135/177/119 142/211/145 138/178/120
f 141/180/122 148/501/148 144/181/123
f 123/183/125 130/203/141 126/184/126
f 128/188/130 122/198/138 140/186/128
f 122/198/138 116/502/135 140/186/128
f 116/502/135 146/232/147 140/186/128
f 117/189/131 124/503/139 120/190/132
f 115/216/133 120/196/132 119/195/137
f 117/218/131 116/502/135 122/198/138
f 118/194/136 117/189/131 115/191/133
f 121/185/127 120/504/132 124/219/139
f 126/220/126 125/222/140 119/195/137
f 123/199/125 122/198/138 128/188/130
f 127/176/118 126/184/126 130/203/141
f 132/205/117 131/204/142 125/222/140
f 136/208/143 129/505/116 128/188/130
f 133/224/121 132/175/117 136/225/143
f 133/206/121 138/506/120 137/227/144
f 135/207/119 134/187/129 140/186/128
f 139/182/124 138/178/120 142/211/145
f 144/229/123 143/235/146 137/227/144
f 141/231/122 140/186/128 146/232/147
f 145/173/115 144/213/123 148/215/148
f 114/234/114 113/217/134 143/235/146
f 118/194/136 147/171/113 146/214/147
f 143/235/146 113/217/134 119/195/137
f 119/195/137 125/222/140 131/204/142
f 131/204/142 137/227/144 119/195/137
f 158/237/149 153/244/156 164/238/150
f 149/240/152 151/242/297 156/264/159
f 158/237/149 160/507/162 154/245/157
f 155/265/158 157/508/298 168/266/169
f 170/239/151 172/509/172 159/268/161
f 167/267/168 169/510/299 162/269/164
f 164/238/150 166/511/167 171/271/171
f 161/270/163 163/512/300 150/241/153
f 153/272/156 152/513/155 165/256/166
f 167/267/168 161/270/163 149/240/152
f 182/273/149 177/280/156 188/274/150
f 173/276/152 175/278/297 180/300/159
f 182/273/149 184/514/162 178/281/157
f 179/301/158 181/515/298 192/302/169
f 194/275/151 196/516/174 183/304/161
f 191/303/168 193/517/299 186/305/164
f 188/274/150 190/518/167 195/307/171
f 185/306/163 187/519/300 174/277/153
f 177/308/156 176/520/173 189/292/166
f 191/303/168 185/306/163 173/276/152
s 0
f 197/311/175 220/521/175 219/522/175
f 219/522/175 218/523/175 217/524/175
f 217/524/175 216/525/175 215/526/175
f 215/526/175 214/527/175 213/528/175
f 213/528/175 212/529/175 211/530/175
f 211/530/175 210/531/175 209/532/175
f 209/532/175 208/533/175 207/534/175
f 207/534/175 206/535/175 205/309/175
f 205/309/175 204/536/175 203/537/175
f 203/537/175 202/538/175 201/310/175
f 201/310/175 200/539/175 199/540/175
f 199/540/175 198/541/175 197/311/175
f 197/311/175 219/522/175 217/524/175
f 217/524/175 215/526/175 213/528/175
f 213/528/175 211/530/175 209/532/175
f 209/532/175 207/534/175 213/528/175
f 207/534/175 205/309/175 213/528/175
f 205/309/175 203/537/175 201/310/175
f 201/310/175 199/540/175 197/311/175
f 197/311/175 217/524/175 205/309/175
f 217/524/175 213/528/175 205/309/175
s 1
f 198/312/176 222/316/180 221/313/177
f 199/315/179 223/318/182 222/316/180
f 200/317/181 224/320/184 223/318/182
f 201/319/183 225/322/186 224/320/184
f 202/321/185 226/324/188 225/322/186
f 203/323/187 227/542/190 226/324/188
f 204/325/189 228/329/192 227/326/190
f 205/328/191 229/331/194 228/329/192
f 206/330/193 230/333/196 229/331/194
f 207/332/195 231/335/198 230/333/196
f 208/334/197 232/337/200 231/335/198
f 209/336/199 233/339/202 232/337/200
f 210/338/201 234/341/204 233/339/202
f 211/340/203 235/343/206 234/341/204
f 212/342/205 236/543/208 235/343/206
f 213/344/207 237/348/210 236/345/208
f 214/347/209 238/350/212 237/348/210
f 215/349/211 239/352/214 238/350/212
f 216/351/213 240/354/216 239/352/214
f 217/353/215 241/356/218 240/354/216
f 218/355/217 242/358/220 241/356/218
f 219/357/219 243/360/222 242/358/220
f 220/359/221 244/544/223 243/360/222
f 197/314/178 221/313/177 244/361/223
f 222/316/180 246/364/225 245/363/224
f 223/318/182 247/365/226 246/364/225
f 224/320/184 248/366/227 247/365/226
f 225/322/186 249/368/229 248/366/227
f 225/322/186 226/324/188 250/367/228
f 226/324/188 227/542/190 251/369/230
f 228/329/192 252/371/231 251/370/230
f 229/331/194 253/373/233 252/371/231
f 229/331/194 230/333/196 254/372/232
f 230/333/196 231/335/198 255/374/234
f 231/335/198 232/337/200 256/375/235
f 232/337/200 233/339/202 257/376/236
f 234/341/204 258/377/237 257/376/236
f 235/343/206 259/545/238 258/377/237
f 236/378/208 260/422/239 259/379/238
f 237/348/210 261/383/241 260/381/239
f 237/348/210 238/350/212 262/382/240
f 238/350/212 239/352/214 263/384/242
f 240/354/216 264/385/243 263/384/242
f 241/356/218 265/387/245 264/385/243
f 241/356/218 242/358/220 266/386/244
f 242/358/220 243/360/222 267/388/246
f 243/360/222 244/544/223 268/389/247
f 244/361/223 221/313/177 245/363/224
f 245/391/224 246/394/225 270/392/248
f 246/394/225 247/396/226 271/395/250
f 247/396/226 248/399/227 272/397/251
f 249/398/229 273/401/253 272/397/251
f 249/398/229 250/402/228 274/400/252
f 250/402/228 251/405/230 275/403/254
f 252/404/231 276/407/255 275/403/254
f 253/406/233 277/409/257 276/407/255
f 253/406/233 254/411/232 278/408/256
f 255/410/234 279/413/258 278/408/256
f 256/412/235 280/415/259 279/413/258
f 257/414/236 281/417/261 280/415/259
f 257/414/236 258/418/237 282/416/260
f 258/418/237 259/379/238 283/419/262
f 259/379/238 260/422/239 284/420/263
f 261/421/241 285/424/265 284/420/263
f 261/421/241 262/425/240 286/423/264
f 262/425/240 263/428/242 287/426/266
f 264/427/243 288/430/267 287/426/266
f 265/429/245 289/432/269 288/430/267
f 265/429/245 266/434/244 290/431/268
f 267/433/246 291/436/270 290/431/268
f 268/435/247 292/437/271 291/436/270
f 245/391/224 269/393/249 292/437/271
f 269/393/249 270/392/248 294/438/272
f 270/392/248 271/395/250 295/440/274
f 271/395/250 272/397/251 296/441/275
f 272/397/251 273/401/253 297/442/276
f 274/400/252 298/444/278 297/442/276
f 274/400/252 275/403/254 299/443/277
f 276/407/255 300/446/280 299/443/277
f 276/407/255 277/409/257 301/445/279
f 278/408/256 302/447/281 301/445/279
f 279/413/258 303/448/282 302/447/281
f 280/415/259 304/449/283 303/448/282
f 281/417/261 305/451/285 304/449/283
f 281/417/261 282/416/260 306/450/284
f 282/416/260 283/419/262 307/452/286
f 283/419/262 284/420/263 308/453/287
f 284/420/263 285/424/265 309/454/288
f 286/423/264 310/456/290 309/454/288
f 286/423/264 287/426/266 311/455/289
f 288/430/267 312/458/292 311/455/289
f 288/430/267 289/432/269 313/457/291
f 290/431/268 314/459/293 313/457/291
f 291/436/270 315/460/294 314/459/293
f 292/437/271 316/461/295 315/460/294
f 269/393/249 293/439/273 316/461/295
s 0
f 316/461/296 293/439/296 296/441/296
f 293/439/296 294/438/296 296/441/296
f 294/438/296 295/440/296 296/441/296
f 296/441/296 297/442/296 300/446/296
f 297/442/296 298/444/296 300/446/296
f 298/444/296 299/443/296 300/446/296
f 300/446/296 301/445/296 304/449/296
f 301/445/296 302/447/296 304/449/296
f 302/447/296 303/448/296 304/449/296
f 304/449/296 305/451/296 308/453/296
f 305/451/296 306/450/296 308/453/296
f 306/450/296 307/452/296 308/453/296
f 308/453/296 309/454/296 312/458/296
f 309/454/296 310/456/296 312/458/296
f 310/456/296 311/455/296 312/458/296
f 312/458/296 313/457/296 316/461/296
f 313/457/296 314/459/296 316/461/296
f 314/459/296 315/460/296 316/461/296
f 316/461/296 296/441/296 300/446/296
f 300/446/296 304/449/296 308/453/296
f 308/453/296 312/458/296 300/446/296
